<svg xmlns="http://www.w3.org/2000/svg" viewBox="0 0 491.4 297" enable-background="new 0 0 491.4 297" style="fill:#594a38;"><path d="M80.4 277.5c-2.6 0-5.8 3.1-6.4 6.9-.7 3.8.9 6.9 4 6.9 1.9-.2 3.6-1.1 4.8-2.5l-.4-.8c-.9.9-2.1 1.6-3.4 1.7-2 0-2.9-1.5-3-3.7 4.6-1 6.8-3.3 7.2-5.3.1-.3.1-.6.1-.8-.1-1.5-1.4-2.5-2.9-2.4zm-4.3 7.4l.1-.6c.6-3.4 2.3-5.4 4-5.4.9 0 1.2.8 1.1 1.8l.1.1c-.3 1.5-1.9 3.4-5.3 4.1zm19.4-48.2c.7.1 1.5.2 2.2.2l4.7.3c1.6.1 2.9.1 4.4.2 1.5.1 3 .2 4.4.3s3.2.1 4.7.2l4.4.3s3.1.2 4.7.3c1.5.1 3 .2 4.5.2h2.2c.8 0 1.5.1 2.3.2 1.5.1 3 .2 4.6.3 1.1.1 2.3.2 3.4.4l2.4.3s1.4.1 2.1.1l4.6.2c.7 0 1.5 0 2.2.1.7.1 1.6.2 2.4.2 1.4.2 2.8.3 4.2.4 1.4.1 3 .2 4.6.3s3 .2 4.4.3c1.5.1 3.1.2 4.7.2 1.6.1 3.1.2 4.6.2l4.5.1s3.1.1 4.7.1 3 0 4.6.1 2.9 0 4.4.1c1.5.1 3 .3 4.6.4s3 .3 4.4.4 3 .1 4.5.2 3 .2 4.4.2h1.3c.4 0 .7-.3.7-.7 0-.4-.3-.7-.7-.7-1.2-.1-2.4-.3-3.7-.4-1.2-.2-2.6-.4-4-.5-1.3-.2-2.8-.4-4.3-.6l-2.4-.3-2.2-.2c-1.5-.2-3-.4-4.5-.5l-4.5-.6c-1.5-.1-3-.1-4.5-.1s-3-.1-4.4-.1l-4.9-.3-4.4-.5-1.7-.2-4.4-.7c-1.7-.2-3.3-.3-5-.4l-4.2-.2-2.4-.1h-6.4s-2.7 0-4-.1c-1.5-.3-3-.6-4.5-.7l-4.5-.4-2.4-.2h-2.3c-1.6 0-3.1 0-4.6-.1s-2.8-.1-4.2-.1c-1.6-.1-3.2-.2-4.8-.2h-4.4l-4.5-.2c-3.1 0-6.1-.2-9.2-.4l-4.5-.4c-1.5-.1-2.9-.1-4.3-.2h-3.5c-1.3 0-2.5.2-3.7.4-.4.1-.7.4-.9.7-.4.8-.2 1.7.6 2.1.4.2.8.3 1.2.2l1.1-.2 2.3-.1h2.1c1.5 0 3.1 0 4.7.1.6-.1 1.4 0 2.1.1zm10.9 49.9l-2.8-19.1h-.7l-9.6 19.1c-1.4 2.7-1.9 3.3-3.9 3.3l-.2.8h6.9l.2-.8c-2.4 0-2.8-.8-1.8-2.8l2.1-4.2h6.6l.6 4.2c.3 2.1-.4 2.8-2.7 2.8l-.2.8h8l.2-.8c-2.1-.1-2.3-.7-2.7-3.3zm-9.1-5.2l4.4-8.8 1.3 8.8h-5.7zm-52.9-22.9c.4 0 .8-.2.8-.6v-.2l-.3-6.2c0-.4-.3-.8-.8-.8-.4 0-.8.3-.8.8.1 2.1.2 4.1.4 6.2 0 .3.3.7.7.8zm8.6-2.3c.6 0 1.2-.4 1.3-1 .2-1.2.3-2.4.1-3.6 0-.7-.2-1.3-.3-2l-.8-4c-.2-.6-.7-1-1.4-1h-.3c-.4.1-.7.3-.8.6-.2.3-.2.7-.1 1.1l.6 2.9c.2 1 .4 1.7.5 2.6.1 1 .1 2 0 3.1-.1.7.5 1.3 1.2 1.3zm7.4 16.2v-4.3h-15.5l-1.5 4.3h.8c.9-2 1.4-2.8 4.8-2.8h2.2l-2.8 15.9c-.7 3.7-1.1 4.4-3.5 4.4l-.2.8h7.9l.2-.8c-2.3 0-2.6-.7-2-4.4l2.8-15.9h2.2c3.4 0 3.7.8 3.9 2.8h.7zm178.9-72.2l4.3.5c1.1.2 2.2.3 3.3.6l1.8.4 2.2.5c.9.5 2 .3 2.8-.4.4-.4.7-1 .7-1.7 0-.6-.2-1.2-.7-1.7l-.8-.6c-.4-.2-.8-.4-1.2-.5-.3-.1-.5-.2-.8-.2l-1.4-.3c-1-.2-2-.5-3.1-.7-2.3-.4-4.6-.7-6.9-.9l-3.2-.5-4-.5c-2.5-.2-4.9-.5-7.4-.8-2.5-.2-5.1-.5-7.6-.8-2.5-.3-5-.5-7.5-.7-5-.4-9.9-.9-14.9-1.2-5.1-.4-10.3-.8-15.5-1l-3.8-.3-3.8-.2c-2.6 0-5.2-.2-7.7-.2h-.9c-2.3 0-4.6.2-6.9.3l-7.4.4c-1.4.1-2.7.3-4.1.5-1.4.1-2.6.2-3.9.3-2.5.2-4.9.5-7.4.8l-3.8.3s-2.5.1-3.7.2l-8.1 1.1-9 1.4c-1.5.2-3 .5-4.5.9l-2.2.5-2.4.5c-1 .3-2 .6-3 1-.3.1-.6.2-.8.4h-.3c-.4 0-.8.2-1 .6-.4.7-.6 1.4-.9 2.1l-1.2 2.7c-.5 1-1 2-1.4 3l-1.4 2.9-1.5 3.1-1.7 3.5s-1 2.4-1.6 3.6c-.8 1.8-1.5 3.5-2.2 5.3-.7 1.8-1.3 3.6-2 5.3l-1.4 3c-.5 1-1 2-1.4 3-.9 2.1-1.7 4.3-2.5 6.5l-.4 1v-.1l-.1.1v.1l-2.7 6c-1 2.3-2 4.7-2.9 7.1-.1.5.1 1 .6 1.1.2.1.5 0 .7-.1.2-.1.3-.3.4-.5 1.1-2.9 2.3-5.8 3.5-8.7l2.4-5.5-.1.2.1-.3v-.1l.1-.1v.1l.2-.5-.1.2c.4-1 .8-2 1.3-3.1s.8-1.9 1.3-2.9c.4-1 .9-2 1.4-2.9.5-.9 1.1-2.2 1.6-3.3l1.4-3.1 2.2-4.8 2.1-4.9c.4-1 .9-1.9 1.3-2.8l.7-1.6c.1.8.8 1.3 1.6 1.3 3.1-.2 6.2-.1 9.3.2l5 .7s3.5.3 5.2.5 3.3.4 4.9.5l5.1.3 5.1.4c1.7.1 3.5.2 5.2.4 1.7.2 3.5.4 5.3.6 1.8.2 3.3.4 5 .6 1.7.2 3.2.2 4.8.2h7.7s1.8.1 2.6.2c1.7.2 3.4.4 5.1.5 1.7.2 3.3.3 4.9.4s3.4.2 5.1.4c.9.1 1.8.2 2.6.2s1.6.1 2.4.1l5 .4 5.1.3 5 .3 5.1.3 5.1.3c1.7.1 3.1.2 4.7.5 3.3.5 6.6.9 9.8 1.1 1.7.1 3.4.2 5.1.4 1.7.1 3.3.3 5 .5l4.2.4 4.9.3c.7 0 1.2-.6 1.2-1.2 0-.5-.4-1-.8-1.1-1.7-.3-3.5-.5-5.2-.7-3.3-.5-6.6-1-10-1.2-3.3-.2-6.7-.5-10-.8-.8-.1-1.6-.1-2.4-.1-.8 0-1.6-.1-2.3-.2-1.6-.1-3.2-.2-4.9-.3-1.6 0-3.1-.1-4.7-.2-.8 0-1.5 0-2.3-.1l-2.3-.2c-1.7-.3-3.3-.7-4.9-1s-3.3-.7-5-1c-1.6-.3-3.6-.6-5.4-.8l-2.4-.2-2.6-.3c-1.7-.2-3.4-.2-5.1-.3-1.7-.1-3.3-.2-4.9-.4-1.6-.2-3.4-.4-5.1-.5-.9-.1-1.8-.1-2.6-.1-.9 0-1.7 0-2.5.1-1.8.1-3.7.2-5.5.1-1.7 0-3.4-.2-5.1-.4-3.4-.5-6.8-1-10.2-1.4-.9-.1-1.7-.2-2.6-.2l-2.5-.1c-1.7-.1-3.4-.3-5.1-.3l-4.3-.1s-2.7-.2-4.1-.3l-4.1-.3c-1.3-.1-2.7-.2-4-.4l-1.8-.3h-.6l-.5-.1c-1.5-.2-3-.3-4.5-.3h-2.3l-3 .1c-.3 0-.6.1-.8.2.9-2 1.8-4.1 2.6-6.1.1-.3.2-.6.4-.9.4-.8.8-1.7 1.3-2.5l.3-.6.5.5c.6.3 1.2.4 1.9.2 2.9-1 5.8-1.7 8.8-2.2 1.9-.4 3.8-.6 5.8-.9l11.9-1.8 3.1-.3c1.3-.1 2.6-.1 4-.2l7.6-.8c1.2-.1 2.4-.2 3.6-.2 1.2-.1 2.6-.2 3.9-.4 1.3-.1 2.7-.3 4.1-.4l3.5-.2c2.1-.1 4.2-.3 6.2-.4l-2.1.7c-1.4.4-2.7.8-4.1 1.1l-3.4.9c-.6.2-1.2.3-1.8.6l-2.3.8c-2.4.9-4.8 1.9-7.3 2.9l-1.7 1.5-2.1.8c-.8.4-1.5.8-2.1 1.3-.5.3-.9.9-1.1 1.5-.4 1.3.4 2.6 1.7 3 .6.2 1.3.1 1.9-.2.6-.5 1.3-.9 2-1.3 2.1-.9 4.3-1.7 6.4-2.5-.1 1 .4 1.9 1.2 2.5-.9.5-1.7 1.1-2.6 1.8-.8.8-1 2-.4 3 .3.4.6.7 1 1 .7.4 1.4.5 2.2.2l2.1-.7 2.7-1 4.2-1.8 7.7-3.4 4.4-1.8c-.4.6-.6 1.4-.4 2.1l.3.6-.5.2-.7.3c-.7.4-1.2 1-1.3 1.8-.2.7-.1 1.3.2 1.9.5.8 1.3 1.2 2.2 1.2 1.2 0 2.3-.2 3.5-.6.6-.2 1.3-.4 2-.6l4-1.3 7.8-2.6c2.6-.9 4.9-1.5 7.4-2.3l3.2-1c-.7.8-1 1.8-.7 2.8.1.4.3.8.6 1.1l.5.4c.2.1.3.2.5.2l-.1.1-1.4 1.5c-.7.7-1.3 1.6-1.7 2.5-.2.7-.1 1.3.2 1.9.5.8 1.3 1.2 2.2 1.2.7 0 1.4-.2 2-.5l1.4-.7s1-.6 1.6-.9c.7-.4 1.4-.9 2.1-1.4 1.2 1.2 2.9.6 4.3.1.7-.2 1.3-.5 2-.8l2-.8c-.2.5-.2 1.1-.1 1.7.3 1 1 1.7 2 2 1.4.4 2.8-.3 4.1-.8l2.6-1c0 .5.1 1.1.3 1.6.6 1 1.7 1.5 2.9 1.4.9-.1 1.7-.3 2.5-.6-.1.8.1 1.6.7 2.2 1.1 1.2 2.7.8 4 .4l1.7-.5 2-.7c.8-.3 1.6-.7 2.3-1l.9-.4v.2c.4 1.3 1.7 2.1 3.1 1.8 1-.3 1.7-1.1 1.8-2.2l1.8-1.5c1.1-.9 2.7-1.8 3-3.3.2-.7.1-1.3-.2-1.9-.4-.5-.9-.9-1.5-1.1.2-.3.4-.6.5-1 .2-.7.1-1.4-.3-2-.4-.8-1.3-1.2-2.2-1.2-1.3.1-2.6.5-3.8 1.1l-1.9.8c.2-.4.3-.9.3-1.3 0-.7-.3-1.3-.7-1.8-.5-.5-1.1-.7-1.8-.7-.5 0-1.1.1-1.5.3l-.5.2.1-.1c.2-.4.3-.8.3-1.3 0-.2 0-.3-.1-.5l2.8.3c1.1-.1 2.5.1 3.8.3zm-63.7-4.8l-2.1.8c0-.3 0-.7-.1-1-.1-.3-.2-.6-.4-.9l.8.1c1.3 0 2.6.2 3.9.3h.3c-.8.2-1.6.4-2.4.7zm10.3-.1l-.1-.2h.6l-.5.2zm16.1 1c-2.5.6-5.1 1.4-7.5 2.4-2.4.9-4.9 1.6-7.3 2.3l.7-.4c.8-.5 1.6-1 2.3-1.7.6-.6.9-1.6.6-2.4-.1-.4-.3-.8-.7-1.1l2.6.2 7.7.6 1.8.2h-.2zm11.6 1.7l-.4.2c-.1-.4-.3-.7-.6-1l2 .1-1 .7zm8.7 1.9c-1.9 1-3.8 1.8-5.7 2.7l.8-.7 1-1 .3-.2c.7-.5 1.3-1.2 1.6-2 .1-.2.1-.5.1-.7l5 .5c-1 .4-2 .9-3.1 1.4zm-152.8 88.4l.9-5.1c.6-3.2-.1-5.6-2.6-5.6-1.9.2-3.5 1.3-4.4 3l2.3-13.1-4.5.9-.1.8c1.9 0 2.1.6 1.5 4.4l-3 17h2.1l1-5.6c.7-3.9 2.8-5.8 4.1-5.8 1.8 0 2.1 1.6 1.6 4l-.9 5.2c-.3 1.5.3 2.6 1.6 2.6 1-.1 1.8-.6 2.5-1.3v-.9c-.4.4-.9.7-1.5.8-.6.2-.8-.5-.6-1.3zm-21.6-45.7c1.2.1 2.2.1 3.3.1 1.1 0 2.2.2 3.2.2 1.3.1 2.6.2 3.8.2 1.4 0 2.5-1.1 2.5-2.5s-1.1-2.5-2.5-2.5c-1.3 0-2.6-.1-3.8-.2-1.3-.1-2.3-.2-3.4-.2l-3.5-.1c-1.2-.1-2.4-.2-3.6-.2-2.3-.1-4.7-.2-7-.4-.6-.1-1.3-.1-1.9-.1s-1-.1-1.5-.1h-.2c-1.4.1-2.7.2-4.1.5-1.3.4-2 1.7-1.6 2.9.2.6.6 1.1 1.1 1.4.6.3 1.2.4 1.8.2l.8-.1c.9-.1 1.8-.1 2.8-.1l3.6.3c2.2.2 4.5.3 6.7.4 1.1.2 2.3.3 3.5.3zm126.7-181.8c1.2-1.2 2.3-2.2 3.4-3.4 2-2 3.9-4.1 5.8-6.2l3.1-3.3c1-1.1 2-2 3.1-3s2.1-2.1 3.1-3.2 1.9-2.1 2.8-3.2l2.6-3c.5-.5.5-1.3 0-1.7-.2-.2-.5-.4-.8-.3-.3 0-.7.1-.9.3l-2 1.8c-.7.6-1 1-1.5 1.5l-3.1 3.4s-2 2-3.1 3-2 2.1-3 3.1-1.9 2.1-2.8 3.1c-.9 1-1.8 2.2-2.8 3.2-.5.6-1 1.1-1.6 1.7-.6.5-1 1-1.5 1.5l-3.5 3.4-1 1.1-1.8 2c-.2.3-.4.6-.4.9 0 .7.6 1.3 1.3 1.3.4 0 .7-.1 1-.4 1.3-1.2 2.4-2.4 3.6-3.6zm-154.1 165.8l1.2-3 .8-1.8-.1.2.4-.9c.5-1.2 1.1-2.4 1.6-3.7l.1-.2-.1.1.3-.8v-.1c.5-1.2.9-2.4 1.3-3.6.2-.7.4-1.3.7-1.9s.5-1.1.7-1.7l.7-1.5c.1-.2.1-.4.1-.6-.1-.2-.2-.4-.4-.5-.1-.1-.3-.1-.4-.1h-.2c-.2.1-.4.2-.5.4l-.7 1.7h-.1c-.5-.1-1.1.2-1.2.7-.7 2.2-1.6 4.4-2.4 6.5-.4 1-.7 2-1 3-.3 1-.7 2-1.1 3l-.2.4c-.8 2-1.8 3.9-2.6 5.8-.8 2-1.8 3.6-2.7 5.3l-1.2-4.6c-.2-1.1-1.2-2-2.3-2-.2 0-.4 0-.6.1-1.3.4-2 1.7-1.7 3 .7 2.4 1.3 4.7 1.9 7.1.2.6.5 1 1 1.3l-1.6 2.5-1.6 2.3c-.5.8-1 1.6-1.4 2.4-.1.5.2 1.1.7 1.2h.5c.3-.1.5-.2.6-.5l.2-.3-.1.1-.5 1.1c-.3.7-.5 1.4-.7 2-.1.3.1.7.4.8.3.1.7-.1.8-.4.2-.7.4-1.4.7-2.1.4-1 1-2 1.5-3s1-1.9 1.6-2.8l1.4-2.7c.5-.9 1-2 1.4-3l1.2-2.4c.7-1.2 1.5-2.5 2.1-3.7.6-.9 1.1-2 1.5-3.1zm-15.2 7.2zm0 .1c-.3 0-.6.1-.8.3-.2.2-.3.5-.3.8l-.2 1.9-.1-.2-1.2-2.7c-.2-.3-.5-.6-.8-.6-.1 0-.2-.1-.4 0-.6 0-1.2.4-1.4 1-.1.4 0 .8.1 1.1.8 1.7 1.5 3.4 2.4 5 .2.5.7.9 1.2 1.2.6.2 1.2 0 1.6-.5.3-.4.5-.9.6-1.4.1-.6.2-1.1.2-1.7.1-1 .2-2 .2-3.1.1-.7-.4-1.2-1.1-1.1zm6.4-42.3c.3.8.7 1.6 1 2.3.1.3.2.7.4 1l.3.4c.2.2.4.3.6.3.2.1.4 0 .6-.1.2-.1.4-.4.4-.7v-.5c.5.1.9-.2 1-.7.1-.3.2-.6.2-.9 0-.2 0-.3.1-.5 0-.3.1-.6.1-1v-.1c0-.2 0-.4-.1-.6-.2-.4-.7-.5-1.1-.3l-.2-1.1c-.1-.2-.2-.4-.4-.5-.1-.1-.3-.1-.5-.1h-.2c-.2.1-.4.2-.5.4-.1.2-.1.5-.1.7l.3 1.9v.4l-.5-1-1.8-4.2c-.1-.2-.3-.3-.5-.4h-.2c-.1 0-.3 0-.4.1-.2.1-.3.3-.4.5v.2c0 .1 0 .3.1.4l1.8 4.1zm-6.4 42.2zm23.9-31.7c1.2.3 2.4-.4 2.8-1.6.6-2.7 1.4-5.4 2.3-8l2.6-6.8s1.7-4.8 2.6-7.1c.4-1.1.8-2.2 1.2-3.4.3-1.1.7-2.5 1-3.8.6-2.3 1.2-4.6 1.9-6.9.7-2.3 1.6-4.7 2.2-7.1s1.3-4.7 2-7l1.2-3.5s.7-2.4 1.1-3.6c.3-1.2.7-2.4 1.2-3.5.4-1.1.9-2.2 1.2-3.4.4-1.1.7-2.3 1-3.5l1-3.6c.6-2.2 1.1-4.5 1.7-6.8l1-3.9c.3-1.3.6-2.4 1-3.6.2-.6.4-1.1.6-1.6.5-1.1 1-2.2 1.4-3.3.5-1.1.8-2.2 1.2-3.3.4-1.1.9-2.2 1.2-3.3s.8-2.3 1.2-3.5c.4-1.2.7-2.2 1.1-3.3.4-1.1.7-2.1 1-3.2l2.1-7c.2-.9.6-1.8.9-2.7s.6-1.8.9-2.8c.7-1.9 1.3-3.7 1.9-5.6.3-.9.5-1.8.8-2.6l.6-2.3c.2-1.1.4-2.2.5-3.3.1-.7.2-1.5.2-2.2l.1-.4c1.3-.8 2.6-1.5 3.9-2.1l4.5-2s2.9-1.4 4.4-2c2.2-.9 4.4-1.7 6.6-2.5l3.6-1.3c1.4-.4 2.7-1 3.9-1.7.9-.6 1.4-1.6 1.1-2.7-.3-1-1.3-1.7-2.3-1.7-.2 0-.4 0-.6.1l-1.6.6-6 2.3c-2.3.9-4.5 1.8-6.8 2.8-2.1.9-4.1 2.1-6.1 3.2-1 .5-2.1 1-3.1 1.6s-2.2 1.3-3.3 2l-.3.2h-.2c-.2 0-.4 0-.6.1-.6.2-1.1.6-1.5 1.1l-.3.6-1.9 1.4c-.4.3-.7.7-.9 1.1-.2 1 .3 2 1.3 2.3.2.1.4.1.6.1-.1.8-.3 1.7-.5 2.5-.2 1-.7 2-1 3-.7 2.3-1.5 4.5-2.2 6.7l-1.1 3.2s-.7 2.3-1 3.5-.7 2.2-1 3.3c-.3 1.1-.6 2.3-1 3.4-.8 2.6-1.7 5.1-2.6 7.7-.4 1.3-.9 2.6-1.4 3.8-.5 1.3-.8 2.3-1.2 3.4-.5 1.1-1.1 2.3-1.5 3.5-.2.6-.5 1.2-.6 1.8-.2.6-.3 1.2-.5 1.9l-1 3.6c-.3 1.2-.6 2.3-.8 3.5-.6 2.3-1.1 4.7-1.8 7s-1.3 4.8-2.2 7.1c-.4 1.1-.9 2.2-1.3 3.4s-.7 2.3-1 3.5c-.4 1.1-.8 2.3-1.1 3.5-.4 1.2-.8 2.4-1.2 3.7s-.7 2.4-1 3.6-.6 2.4-.9 3.5l-2.1 6.7-2 7.3c-.7 2.5-1.5 4.7-2.4 7-.9 2.3-1.6 4.7-2.4 7l-1.3 3.5s-.8 2.5-1.2 3.8c-.6 1.9-1 3.9-1.5 5.9-.1 1.2.6 2.4 1.7 2.7zm288.6-.2c.4.3.8.6 1.3.8.6.3 1.4.1 1.7-.5.3-.5.2-1.1-.2-1.5-1.7-1.4-3.5-2.7-5.2-4-1.3-1.1-2.7-2.1-4.2-3-.7-.4-1.4-.9-2-1.3-.6-.4-1.3-.9-2-1.4l-.4-.3c-.2-.2-.5-.3-.8-.3-.6 0-1.1.5-1.1 1.1 0 .3.1.6.3.8l3.1 2.4c.5.4 1 .8 1.5 1.1s.9.6 1.4 1l2.2 1.8c.7.6 1.8 1.3 2.7 2l.8.6.9.7zm-300.8-18.4l.3 3.2c.2 2.3.4 4.7.5 7 0 .3.1.6.3.8.5.4 1.2.4 1.7-.1.2-.2.3-.5.3-.8-.1-2.3-.3-4.7-.5-7l-.3-3.2s-.2-2.2-.4-3.2c-.2-.6-.8-.9-1.3-.8-.2.1-.4.1-.5.3-.2.2-.3.5-.3.8v1.5l.2 1.5zm5 11.4c.7 0 1.2-.6 1.2-1.2 0-.7-.6-1.2-1.2-1.2s-1.2.6-1.2 1.2.5 1.2 1.2 1.2zm11.4 30.6c1.3-1.7 2.6-3.4 3.8-5.2.6-.9 1.2-1.8 1.8-2.8l.8-.9 1.7-1.9c.1 0 .3 0 .4-.1.2-.1.5-.3.7-.5l.7-.6c.4-.3.7-.7 1-1 .8-.8 1.6-1.6 2.3-2.4l1.9-2c.1.1.2.2.3.2.4.2.8.2 1.2.1l1-.2c1.2-.1 2.5 0 3.7.1l2.4.2c.8.1 1.5.3 2.3.5.8.2 1.8.3 2.7.5l2.6.5s1.8.2 2.6.3c1.1.2 2.1.3 3.2.4s2 .2 2.9.3c.9.1 2.1.1 3.1.1h2.5c.7 0 1.3.1 2 .2h.3l-.2.4c-.2.6-.5 1.2-.7 1.7v-.1l-.3.6v-.1l-.1.3c-1 2.3-2.1 4.5-3 6.8s-1.8 4.9-2.7 7.3l-.9 2.5c-.3.8-.6 1.7-1 2.5-.6 1.6-1.2 3.2-1.8 4.7l-1.5 3.2c-.5 1-1 2.4-1.5 3.6l-.8 2c-.4 1-.8 2.1-1.1 3.2-.3 1.1-.6 2-1 3-.7 2.1-1.5 4.2-2.1 6.3-.2.5 0 1 .5 1.2s1 0 1.2-.5c0-.1 0-.1.1-.2l.9-2.8s.6-1.8 1-2.7c.4-.9.7-1.8 1-2.6s.7-1.8 1-2.6l1.5-3.3 1.6-3.5 1.6-3.4c.5-1.1 1-2.3 1.5-3.5.5-1.2 1.1-2.5 1.7-3.8.5-1.1.9-2.2 1.3-3.3.4-1.1.9-2.5 1.4-3.7.5-1.2.9-2.4 1.3-3.6l.6-1.8.6-1.7c.4-1.1.8-2.3 1.2-3.5.4-1.1.8-2.5 1.2-3.7.4-1.2.8-2.3 1.1-3.5.2-.8.4-1.5.6-2.2.2-.8.4-1.4.6-2.1s.5-1.3.7-2c.1-.4.3-.8.4-1.1.2-.4.3-.9.5-1.4.1-.5-.2-1-.6-1.1h-.2c-.1 0-.2 0-.3.1.4-.9.2-2-.5-2.7-.4-.4-1-.7-1.6-.7h-.1c-1 .1-1.9.2-2.9.4-.9.1-1.6.2-2.4.3l-3 .2c-1.2.1-2.3.3-3.5.5-1.2.2-2.2.3-3.3.5-2.2.4-4.4.8-6.5 1.4-1 .2-1.9.6-2.9.9l-2.9.8-3.6 1c-1.1.3-2.2.7-3.3 1.2l-3.9 1.4-.3.1c-.4-.3-.9-.5-1.5-.5s-1.3.2-1.7.7l-.7.9-.4.1c-1 .3-1.5 1.2-1.2 2.2 0 .1 0 .1.1.2l-1.5 2.4c-.5.8-1.2 1.8-1.7 2.7s-1.1 1.8-1.6 2.7c-1 1.9-2.2 3.6-3.4 5.4l-1.9 2.6c-.6.9-1.2 1.8-1.9 2.7l-.6.8c-1.7 2.1-3.5 4.1-5.1 6.3-.8 1.1-1.6 2.3-2.2 3.5l-2 3.6c-.5.9-.2 2 .7 2.5s2 .2 2.5-.7c.9-1.5 1.8-3 2.9-4.4 1.3-1.6 2.8-3.1 4.2-4.6 1.6-2.2 3.1-3.9 4.5-5.8zm33.6 21.1v-.2.2zm-15.7-41.9v-.3l1.3-.4c1-.3 2-.4 3-.6 2.1-.4 4.1-.9 6.2-1.5 1-.3 2-.6 3-.8s2.1-.5 3.2-.7c1.4-.3 2.7-.5 4.1-.7 1.2-.2 2.3-.4 3.5-.5 1.5-.2 2.9-.2 4.4-.3 1.7-.2 3.5-.4 5.2-.7.3-.1.5-.2.7-.3-.2.4-.5.8-.7 1.3-.2.6-.5 1.2-.6 1.9l-1.1 3.5-1 3.6-.3.9c-.2-.2-.4-.4-.7-.5-1-.2-2-.4-3-.4h-1.4l-3-.2c-1.9-.2-3.8-.3-5.6-.6l-2.5-.4c-1.1-.2-2.2-.4-3.2-.5l-3.8-.6c-1.3-.2-2.6-.3-3.9-.4l-1.9-.1h-2c0-.4.1-.6.1-.7zm105.5-114.7c-1.2 1.3-2.3 2.6-3.4 3.9-1.1 1.3-2.2 2.7-3.4 3.9-1.2 1.2-2.6 2.5-4 3.8-1.2 1.1-2.4 2.3-3.5 3.6-1.2 1.4-2.3 2.7-3.6 4-1.2 1.3-2.4 2.7-3.6 4.1l-2.1 2.4s-1.5 1.8-2.3 2.6-1.6 1.8-2.4 2.8c-1 1.2-1.9 2.5-2.8 3.7-.4.6-.4 1.3-.2 1.9.4 1.3 1.7 2.1 3.1 1.8l.6-.2c.4-.2.7-.5.9-.9.6-.8 1.2-1.5 1.7-2.3l6.8-8c2.2-2.7 4.4-5.9 6.5-8.8.4-.6.9-1.2 1.4-1.9.8-1 1.7-2 2.6-3s1.7-2 2.5-3c1-1.2 1.9-2.4 2.8-3.6.8-1 1.5-2 2.2-3l1.7-2.2.4-.6-.1.1c.5-.7 1.1-1.4 1.7-2l1.6-1.9c1.1-1.3 2.3-2.6 3.5-4 2.3-2.8 4.8-5.5 7.3-8.1l1.7-1.7s1.1-1.2 1.7-1.8l3.6-4c.3-.4.3-1 0-1.3-.2-.2-.4-.3-.7-.3-.3 0-.5.1-.7.3l-2.3 2.1c-.7.7-1.2 1.3-1.8 2l-3.7 3.9c-1.2 1.3-2.3 2.7-3.5 4.1-1.1 1.4-2.2 2.8-3.4 4.1s-2.3 2.7-3.5 4c-1.1 1.2-2.1 2.3-3.3 3.5zm172.9 9.1l-.7-2.5c-.4-1.7-.8-3.4-1.1-5.1l-.5-2.6c-.2-.8-.4-1.7-.5-2.6-.2-1.7-.6-3.3-1-5l-.6-2.6s-.5-1.7-.7-2.5l-1.2-4.2c-.3-1.4-.6-2.8-1-4.2l-.5-2.1s-.2-1.5-.4-2.2l-.5-2.2-.3-1.3-.6-1.5c-.6-1.6-1.1-3.2-1.6-4.8-.2-.8-.5-1.6-.7-2.3-.3-.8-.6-1.6-.9-2.5-.3-.8-.6-1.7-.8-2.5-.2-.9-.4-1.7-.7-2.5-.6-1.8-.8-3.6-1.2-5.4l-.2-.7c-.1-.4-.5-.7-1-.7h-.2c-.5.2-.8.7-.7 1.2l.2 1.4c.1 1.1.2 2.2.5 3.2.2 1.1.5 2 .7 3 .2 1 .4 2 .7 2.9l1 2.7c.6 1.4 1 2.8 1.5 4.2l.7 2.2.9 2.4c.2.5.3 1.1.4 1.6l.3 1.4.5 2.5c.1.9.4 1.8.6 2.7s.4 1.7.6 2.5c.2.8.4 1.7.6 2.6l.7 2.5c.2.8.5 1.8.7 2.7l.5 2.5 1.2 5.9.6 3s.3 2 .5 3c.1 1.2.3 2.5.5 3.7.2 1.2.3 2.4.6 3.5.3 1.2.6 2.4.9 3.7.3 1.2.5 2.4.7 3.5l.2 2.4s.1 1.7.2 2.5l.6 5.5c.1 1 .3 2.1.5 3.2.1.9.2 1.8.4 2.7l1 5.4c.3 1.8.5 3.3.9 5l.5 2.4.3 2.2c.1.9.2 1.8.4 2.7l.4 2.5c.1.8.3 1.9.4 2.8s.3 1.6.4 2.4.3 1.8.5 2.7c.2.9.4 1.8.6 2.6.5 1.9 1 3.7 1.6 5.5.2.6.6 1.2 1.2 1.5 1.2.7 2.7.3 3.4-.9.3-.6.4-1.3.3-1.9-.5-1.7-1.1-3.3-1.5-5l-.6-2.4c-.2-.8-.3-1.6-.4-2.5-.3-1.6-.6-3.3-.8-4.9-.2-1.7-.5-3.1-.8-4.7-.2-1.8-.5-3.6-.9-5.4l-.6-2.8c-.2-1-.2-1.7-.4-2.5-.3-1.8-.8-3.6-1-5.4s-.5-3.6-.8-5.3l-.5-2.8s-.3-1.8-.5-2.6l-.5-2.7s-.3-1.7-.5-2.6c-.2-.8-.5-1.7-.8-2.5s-.5-1.7-.9-2.6c-.3-1.3-.5-2.2-.8-3zm6.3-17.5v3.8l.3 7.8c.1 2 .2 3.9.5 5.9v.4c.2.8 1.1 1.3 1.9 1.1.3-.1.5-.2.7-.4.3-.3.5-.7.5-1.1-.3-2.6-.5-5.3-.7-8-.2-2.5-.4-5-.5-7.5-.1-2.5-.1-5-.1-7.6-.1-2.6-.3-5.3-.6-7.9-.2-1.2-.4-2.4-.7-3.6l-.3-1.8c-.1-.6-.2-1.3-.4-2l-.7-3.7c-.2-1.2-.5-2.5-.8-3.8l-1.3-5.9c-.1-.5-.5-.8-1-.8h-.3c-.3.1-.5.2-.6.5-.1.2-.2.5-.1.8.4 2.6 1.3 5.1 1.9 7.7l.9 3.8.4 1.6c.1.4.2.7.2 1.1l.1 1v-.2l.4 3.8c.1 1.3.2 2.4.2 3.6 0 1.2.1 2.5.1 3.8v3.9c.1 0 0 2.5 0 3.7zm-110.5 45.8c-.1 1.1-.3 1.9-.4 2.9l-.3 2.5c-.2 1.8-.2 3.5-.3 5.2-.1 1.8-.1 3.5-.2 5.2-.1 1.7-.1 3.4-.1 5.1 0 1.7.1 3.2.1 4.7 0 .7.3 1.3.7 1.8 1 1 2.6 1 3.5 0 .5-.5.7-1.1.7-1.8-.1-1.9-.1-3.8-.2-5.8l.1-5.1c.1-3.5.4-6.9.3-10.4 0-1.7-.1-3.4-.1-5s0-3.5.1-5.2c.1-1.7.2-3.6.3-5.4.1-1.6.1-3.3.3-4.9 0-.2 0-.4.1-.5.1-.8.2-1.6.3-2.5.1-.9.3-1.8.3-2.7l.2-5.3c.1-1.8.1-3.5.1-5.2 0-1.7-.1-3.3 0-4.9s.2-3.1.3-4.7c0-.5-.4-.8-.8-.8-.5 0-.8.4-.8.8-.2 1.9-.3 3.8-.3 5.7 0 1.6-.1 3.3-.2 4.9-.1 1.6-.2 3.3-.3 5-.1 1.7-.2 3.5-.4 5.2-.2 1.4-.5 2.8-.8 4.2-.3 1.4-.7 2.9-.9 4.3-.3 1.6-.6 3.2-.8 4.9s-.3 3.1-.5 4.6v-.2c.3 1.2.2 2.2 0 3.4zm-153.7 39.9l-2.3.2c-.9.1-1.8.2-2.7.4-1.4.3-2.8.5-4.2.7l-4.6.8c-.9 0-1.8.2-2.7.4-1 .3-1.6 1.3-1.3 2.2.3 1 1.3 1.5 2.2 1.3l.6-.2c.5 0 1 0 1.6-.1l2.1-.2 4.1-.3 3.6-.4c1.2-.1 2.5-.2 3.8-.2 2.6-.1 5.1-.4 7.7-.7s5.4-.6 8.1-1c1.2-.2 2.5-.3 3.7-.4s2.7-.2 4.1-.3c2.8-.2 5.6-.4 8.4-.5 2.6-.1 5.2-.3 7.9-.6 2.6-.3 5.2-.4 7.9-.7 1.9-.2 3.8-.4 5.7-.5s3.8-.2 5.8-.3l5.3-.4 5.8-.6h-.1c5.3-.7 10.6-.9 15.9-1.4l8-.7s5.4-.4 8.1-.7c5.3-.5 10.5-.7 15.8-.6h12.2s2.7.1 4 .2l7.3.4c2.4.2 4.6.5 6.9.6 2.5.1 5 .2 7.5.4l7.4.6c1.6.2 3.1.5 4.7.8 1.9.3 3.7.6 5.6.8l5 .4c1.7.1 3.3.3 4.9.5l7.5 1.3 8.1 1.8c1.2.2 2.4.5 3.6.9 1.3.4 2.5.9 3.8 1.2 1.3.3 2.6.6 3.8.9l3.9 1c3.8 1 7.6 1.8 11.4 2.7 1.9.5 3.7 1 5.5 1.5 1 .3 2 .5 3.1.7l3.1.8c.8.2 1.6-.1 2-.8.5-.9.2-1.9-.6-2.5-.7-.4-1.4-.7-2.1-1l-1.9-.5c-1.3-.3-2.5-.7-3.8-1.2s-2.4-.8-3.5-1.2c-1.2-.4-2.5-.8-3.7-1.1-1.2-.4-2.5-.7-3.8-1l-3.9-1-3.5-.9c-1.2-.3-2.6-.6-3.9-.9-1.3-.3-2.5-.8-3.8-1.2-1.3-.4-2.6-.8-4-1.1l-4-.9-3.7-.9c-1.2-.2-2.5-.4-3.7-.7l-4.2-.8c-2.8-.5-5.6-.6-8.4-.8-1.6-.1-3.1-.2-4.7-.4l-7.9-1.3-4.4-.4c-1.5-.1-2.7-.2-4.1-.3-1.4-.1-3-.2-4.5-.2-1.3 0-2.6-.1-3.9-.2-2.7-.2-5.4-.5-8.1-.6-1.2 0-2.5-.1-3.7-.2-1.2-.1-2.7-.2-4-.3-2.8-.1-5.6-.1-8.3-.1h-5c-3.6 0-7.2 0-10.8.2l-4.3.3c-1.3.1-2.6.3-3.8.4-2.6.2-5.2.3-7.9.5s-5.3.5-8 .7l-8.2.6c-2 .1-4 .4-6 .7-1.4.2-2.7.3-4 .4-1.3.1-2.4.2-3.6.3l-4.1.3s-2.6.1-3.8.2c-2.7.2-5.4.6-8 .8l-8.2.7c-2.2.2-4.4.3-6.6.4l-6.5.4-4.2.3c.1-.2.1-.4.1-.7l.2-2.1.2-1.1.2-1.3c.2-.9.4-1.7.7-2.6.5-1.7 1.1-3.4 1.7-5.1.5-1.7 1.1-3.6 1.8-5.3.6-1.8 1.1-3.3 1.7-4.9l1.7-4.9 1.6-5.1c1-3.4 2.4-6.6 3.2-10 .3-1.1.7-2.1 1.1-3.2l1.2-3.1c.4-.8.8-1.6 1.1-2.4.4-.8.8-1.9 1.1-2.8.6-1.6 1-3.3 1.5-5 .5-1.7 1-3.3 1.6-5 .6-1.7 1.2-3.2 1.7-4.8.5-1.6 1.1-3.3 1.6-5l.9-2.6s.5-1.5.7-2.3c.5-1.7 1.2-3.4 1.8-5 .6-1.6 1-3.2 1.5-4.8.3-1 .6-2 1-2.9.4-.9.7-2 1-3 .5-2 .9-4 1.1-6 .1-.5-.1-.9-.6-1.1h-.2c-.4 0-.7.2-.9.6l-1.2 5.4c-.4 1.8-1.1 3.3-1.6 5-.5 1.7-1 3.3-1.5 4.9s-1.3 3.3-1.9 5c-.6 1.7-1.1 3.2-1.6 4.8-.6 1.6-1.1 3.4-1.7 5.2-.5 1.7-1 3.3-1.6 4.9-.6 1.6-1.2 3.2-1.9 4.8-.6 1.6-1.3 3.5-2 5.2-.7 1.6-1.5 3.2-2.3 4.8l-1.3 2.3c-.4.8-.7 1.5-1.1 2.2-.4.7-.9 1.5-1.4 2.3-.4.7-.7 1.3-1 2 0-.5 0-.9.1-1.4 0-.5.1-1 .2-1.5l.4-2c.3-1.3.6-2.5.8-3.8.1-.7.3-1.4.5-2.1s.4-1.3.6-2l1.2-3.5c.2-.6.4-1.1.5-1.7.2-.6.4-1.4.5-2.1.3-1.2.7-2.4 1-3.5.7-2.5 1.3-5 1.8-7.6.2-1.2.4-2.5.7-3.7l.9-3.7s.5-2.5.8-3.7l.5-2c.2-.7.2-1.2.3-1.8.2-1.3.3-2.6.5-3.8.2-1.3.4-2.3.6-3.4.1-.6.3-1.2.4-1.9.2-.6.3-1.1.4-1.7.6-2.6 1-5.2 1.3-7.8 0-.3-.2-.5-.5-.6-.3 0-.5.2-.6.6 0 .2 0 .4-.1.6-.3 2.5-.8 5-1.4 7.5l-1 3.7s-.6 2.4-.8 3.6c-.2 1.2-.4 2.5-.7 3.8l-1.2 3.6c-.8 2.4-1.6 4.9-2.3 7.4l-1.1 3.7-1.2 3.6s-.9 2.5-1.2 3.7c-.4 1.2-.7 2.4-.9 3.7-.2 1-.4 2.1-.7 3.1-.3 1-.7 2.2-.9 3.2l-.4 1.6-.3 2.1c-.1 1.1-.2 2.3-.4 3.4-.2 1.4-.4 2.9-.5 4.3-.1 1.4-.1 2.9 0 4.3 0 .5.4.9.8 1-.3.8-.6 1.6-.9 2.5-.6 1.6-1 3.3-1.5 5s-1 3.3-1.5 4.9c-.5 1.6-1 3.4-1.5 5.1-.5 1.7-1 3.4-1.4 5.1-.3 1.3-.6 2.6-.9 4l-.9 3.8c-.3 1.3-.6 2.5-.8 3.8l-.4 2.6c-.1.9-.2 1.6-.2 2.4 0 .3.1.7.3 1l-6.4.9-6.5.7c-1.7.1-3.1.2-4.7.3zm95.1-94.9c-.7.7-1.3 1.4-1.9 2.1-.8.9-1.5 1.9-2.2 2.8-.2.3-.2.7-.1 1.1.1.4.3.7.6.8.3.2.7.2 1.1.1.4-.1.7-.3.8-.7l1.1-1.5c.8-1 1.5-1.9 2.4-2.8.8-.9 1.6-1.7 2.4-2.5.8-.8 1.8-1.8 2.6-2.7l2.6-2.8 2.6-2.7 2.5-2.5s1.8-1.7 2.7-2.6c.9-.9 1.8-1.8 2.8-2.6 1.5-1.4 3-2.7 4.5-4l-.2.2c.5-.4 1-.8 1.6-1.2.5-.4 1.1-1 1.7-1.5.4-.4.4-1 0-1.3-.2-.2-.4-.3-.7-.3-.2 0-.5.1-.7.3l-.4.3c-1 .8-2.1 1.5-3 2.3-1 .8-1.8 1.6-2.7 2.5-.9.8-1.7 1.7-2.5 2.5-.9.8-1.9 1.8-2.8 2.7-.9.9-1.7 1.6-2.6 2.4l-2.9 2.6-2.6 2.4c-.9.8-1.9 1.8-2.9 2.6-1.3 1.5-2.6 2.7-3.8 4zm-47.1-30c.1 0 .2-.2.2-.3l-.1-.2h-.2l-1.1.2-.2.1v.2l.1.2h.2l1.1-.2zm188.3 144.6l-3.5-1.9c-1.2-.6-2.2-1-3.2-1.5l-2.7-1.2c-.8-.3-1.7-.6-2.5-.8-.9-.3-1.8-.6-2.6-.9-.9-.3-2-.7-3.1-1-.1 0-.2-.1-.4 0-.6 0-1.1.4-1.3 1-.2.7.2 1.4.9 1.6 1.6.5 3.2 1.1 4.9 1.6.7.2 1.3.4 2 .5.7.2 1.5.4 2.2.7 1.1.5 2.2 1 3.2 1.5 1.1.5 2.1 1.1 3.1 1.7 1 .6 2.3 1.4 3.5 2l3.3 1.7c.7.4 1.4.7 2.2 1l2 .8c1.7.7 3.4 1.5 5.1 2.4.8.5 1.7 1 2.4 1.5l2.8 1.9c.4.3 1 .1 1.3-.3.2-.4.2-.9-.2-1.2-1-.8-2-1.6-3-2.5l-1.7-1.3-1.6-1c-1-.6-2.1-1.2-3.2-1.7s-2.3-1-3.5-1.5c-1.2-.5-2.1-1-3.2-1.5-1-.4-2.1-1-3.2-1.6zm106.7-2l-.6-.9-.6-.7c-.2-.2-.4-.3-.5-.5-.2-.2-.4-.2-.6-.2-.2 0-.4.1-.6.2-.2.2-.2.4-.2.6 0 .2.1.4.2.6.3.2.6.5.8.8.5.6.9 1.3 1.3 2l.9 1.3c.6.9 1.2 1.8 1.8 2.8.6 1 1 1.8 1.6 2.7l1.8 2.7 1.4 1.9c.6.8 1.2 1.6 1.9 2.4.1.1.2.2.4.2.4.1.9-.1 1-.6.1-.2 0-.4-.1-.6-.7-1.1-1.5-2.1-2.2-3.1-.6-.9-1.3-1.8-1.9-2.6s-1.1-1.7-1.7-2.6l-.9-1.5c-.3-.5-.6-1-.9-1.4l-1.3-1.9-1-1.6zm-43.3 27.6c-.2-.1-.4-.1-.5-.1-.4 0-.8.2-1 .5-.5.9-.9 1.9-1.3 2.8l-.8 2-3.1 6.9c-.5 1.1-.8 2.3-1.2 3.4-.4 1.1-1 2.3-1.4 3.5l-1 2.8s-.8 1.9-1.2 2.9c-.4 1-.7 1.9-1 2.8-.3 1-.5 2-.7 3-.1.3 0 .6.1.9.2.3.4.4.7.5.6.2 1.2-.2 1.4-.8.1-.6.2-1.2.4-1.8l.6-1.8c.4-1.2.9-2.4 1.4-3.5l.7-1.7.6-1.7c.4-1.2.9-2.3 1.4-3.5.6-1.4 1-2.8 1.5-4.1.5-1.4 1.1-2.6 1.6-3.9l1.3-3.1 1.2-3c.2-.6.5-1.1.8-1.7.2-.3.1-.9-.5-1.3zm43-48.5c-.2 0-.4 0-.5.1-2.3 1.3-4.5 2.7-6.5 4.2l-6.1 4.4c-1 .8-2.1 1.6-3.2 2.3s-2 1.3-2.9 2l-6.2 4.5-3.2 2.1c-1.1.7-2.1 1.5-3.1 2.3l-3 2.4s-1.9 1.5-2.8 2.3c-1.5 1.4-3 2.8-4.6 4.2-1.8 1.5-3.4 3-5 4.6-.3.4-.2 1.1.2 1.4.4.3.8.3 1.2 0 .9-.9 1.9-1.9 2.9-2.8s1.8-1.5 2.7-2.2l4.9-4.1 3.1-2.2c1-.7 1.9-1.4 2.8-2.1l6.1-4.3c2-1.5 4.1-3.1 6.2-4.6l2.9-2.1s2.1-1.6 3.1-2.4l5.6-4.1s4-2.7 6-4.1c.5-.3.7-1 .4-1.5-.3-.2-.6-.4-1-.3zm-290.7 103.4l-4.5.9-.1.8c1.9 0 2.1.6 1.5 4.4l-.8 4.5c-.7-.4-1.5-.7-2.4-.6-3.1 0-6.3 3.1-7 6.9-.6 3.8.8 6.9 3.9 6.9 1.4-.1 2.7-.8 3.6-1.9.1 1 .6 1.7 1.6 1.7 1-.1 1.8-.6 2.5-1.3v-.9c-.4.4-.9.7-1.5.8-.5 0-.6-.7-.5-1.5l3.7-20.7zm-5.4 18.7c-.2 1.8-1.5 3.2-3.3 3.5-2.2 0-2.8-2.4-2.2-5.4.6-3 2.1-5.7 4.4-5.7.9 0 1.7.3 2.3.9l-1.2 6.7zm251-53.2l-.9 2.8s-.6 1.7-1 2.6c-.6 1.5-1.4 2.9-2.1 4.3-.8 1.6-1.4 3.3-1.9 5l-.7 2.3-.8 2.3c-.1.3-.2.7-.2 1l-.3 1.4c-.2.9-.3 1.7-.3 2.6v.5c0 .7.6 1.3 1.3 1.3.4 0 .7-.1.9-.4.2-.3.4-.6.4-.9l.1-1.4c.1-.7.3-1.4.5-2.1.2-.6.3-1.1.6-1.6.6-1.5 1.3-3 1.9-4.4l1.1-2.4s.7-1.3 1-2c.3-.7.8-1.5 1.1-2.3.3-.8.8-1.8 1.1-2.7.6-1.5 1-3.1 1.5-4.7s1-3.1 1.5-4.7 1-3.1 1.6-4.6l1.8-4.8c.6-1.6 1.1-3.2 1.8-4.8l.7-1.8c.8-1.6 1.4-3.2 1.9-4.9.2-.7-.1-1.4-.7-1.7-.2-.1-.5-.2-.8-.2h-.4c-.4.1-.7.4-.9.7-.4.9-.8 1.7-1.2 2.5-.4.8-.8 1.5-1.1 2.3-.8 1.7-1.4 3.5-2.1 5.2l-1.8 4.7c-.6 1.6-1.2 3.2-1.7 4.8-.7 2.1-1.2 4.1-1.9 6.1zm-40.2 48.1c-.5-.5-1.3-.5-1.8 0-.2.2-.4.5-.4.9.1.8.1 1.5 0 2.3-.1.5-.2.9-.4 1.4-.4.7-.8 1.4-1.3 2.1l-.1.1c-.2.2-.3.5-.4.9 0 .7.5 1.2 1.2 1.2.3 0 .6-.1.9-.4l.9-1.2c.3-.4.6-.9.9-1.4l.5-1.1.3-1.4c.1-.8.1-1.7.1-2.5 0-.3-.1-.6-.4-.9zm32.9 10.2c-.2-.7-.3-1.3-.4-2s-.3-1.4-.5-2.1c-.3-1.3-.5-2.7-.7-4l-.7-4.1-.1-.6-.4-3.9c-.2-1.5-.4-2.9-.6-4.3-.2-1.5-.4-2.7-.6-4l-.7-4.1-.4-2.9c-.2-1-.3-1.8-.5-2.7l-.5-2.7c-.1-.9-.3-1.7-.5-2.6l-.5-4-.8-4.1s-.5-2.7-.8-4c-.3-1.3-.6-2.7-1-4.1l-1.1-4.9c-.2-.7-.9-1-1.5-.9-.2.1-.4.2-.5.3-.2.2-.4.5-.4.9.4 3.1 1 6.2 1.6 9.2.5 2.6.9 5.3 1.3 7.9l.2 1.4.6 4.4s.4 2.7.6 4c.2 1.3.5 2.9.8 4.3l.7 4.2c.3 1.4.5 2.6.8 3.9.2 1.3.5 2.8.8 4.2s.5 2.7.8 4.1c.1.6.3 1.3.5 1.9.2.6.3 1.3.5 2l.7 3.3c.1.6.2 1.2.4 1.8.1.6.3 1.2.4 1.7l.6 3.6c.3 1.2.6 2.4 1 3.6.2.6.8.9 1.4.7.5-.2.9-.7.7-1.3-.5-1.2-.9-2.6-1.2-4.1zm-8.3-6.2l-.4-4.8-.3-2.4s-.1-1.6-.1-2.4c-.1-1.7-.4-3.5-.7-5.2-.1-.8-.2-1.6-.4-2.4l-.4-2.4c-.2-.8-.3-1.6-.4-2.4s-.3-1.7-.5-2.5l-.6-2.4s-.3-1.5-.4-2.3c-.3-1.6-.7-3.2-1.1-4.8-.4-1.6-.8-3.2-1.3-4.7-.5-1.6-1-2.9-1.5-4.4-.2-.8-.4-1.6-.7-2.4l-.7-2.3c-1-3.1-2-6.2-3.2-9.3-.1-.4-.5-.7-.9-.7h-.2s-.1 0-.1.1c.4-.9.3-2.1-.5-2.8-1.1-1-2.3-1.7-3.6-2.3l-2.9-1.4-2.7-1.2c-.8-.3-1.5-.7-2.2-1.1-.5-1.1-1.7-1.6-2.8-1.4l-.9-.5-2.7-1.4c-2.1-1-4.3-2-6.6-2.8-.9-.4-1.9-.7-2.9-1-1-.3-1.7-.6-2.6-1-1-.5-2.1-.9-3.2-1.3s-1.9-.6-2.9-.9c-2.1-.7-4.2-1.3-6.4-2l-3.5-.9c-1.2-.3-2.2-.5-3.3-.7-2.3-.4-4.6-.8-6.9-1h-2l-2.4.1c-.8 0-1.8.1-2.6.2l.9-1.6c.3-.5.1-1.1-.4-1.3-.1-.1-.3-.1-.5-.1-.3 0-.7.2-.8.5l-1.5 2.8c-.4 0-.7.2-1 .5-.6.6-.7 1.5-.2 2.1l-.7 1.9c-.4 1.2-.7 2.3-1 3.5l-.8 2.9c-.3 1-.7 2.2-1.1 3.3l-2.1 6.2c-.4 1-.8 1.9-1.1 2.9-.4 1-.8 2-1 3.1l-.9 3.3c-.3 1.1-.6 2-.9 2.9-.3.9-.7 2-1 3-.3 1-.6 2.1-.8 3.2l-.9 3.3c-.3 1.1-.6 2-.9 3-.6 2.1-1.2 4.2-2 6.3l-1.1 3c-.3 1-.7 2.1-1 3.2-.7 2.1-1.3 4.2-1.8 6.4l-.6 2.9c-.1.2 0 .5.1.7.1.2.3.4.6.4.5.1 1-.2 1.2-.7.1-.7.3-1.3.5-2s.3-1.2.5-1.7l.9-3.2c.6-2.1 1.2-4.2 1.9-6.2l1-3s.7-2.2 1-3.3c.4-2.1 1.1-4.2 1.6-6.3.5-2 1-4.1 1.6-6.1l1-3.2s.6-2 .9-3.1c.3-1.1.5-2 .8-3s.7-2.1 1.1-3.1l1.3-3.2c.4-1.1.7-2.1 1.1-3.1l1.6-4.8c.3.4.7.6 1.1.8.6.1 1.2.1 1.7-.2l1.7-.9c.6.6 1.5.9 2.4.6l.4-.1c.6 1 1.7 1.5 2.8 1.2.5-.1 1-.3 1.4-.5l.1.3c.5.9 1.6 1.4 2.6 1.2.1 1 .8 1.8 1.8 2.1h.3l-.2.2c-.1.3-.2.6-.4.9-.3 1.1.2 2.2 1.2 2.8.5.3 1 .5 1.5.5.4 0 .8 0 1.2-.1.5-.1 1.1-.3 1.6-.5.8-.3 1.5-.6 2.2-.9l.4-.2c.6.8 1.7 1.1 2.6.9 1.2-.4 2.3-1 3.4-1.6.3.5.8.9 1.5 1.1.3.1.6.1 1 .1l1-.1c.5-.1 1-.3 1.4-.5l1.1-.4.7-.3.1.2c.2.4.5.7.9.9.7.4 1.5.6 2.2.4 1.3-.2 2.7-.5 3.9-1l1.4-.5.2.2c.4.3.8.6 1.3.7.3.1.6.1.9.1.5 0 1 0 1.5-.1.6-.1 1.2-.2 1.8-.4l1.8-.6.1.1c1 .5 1.9 1 2.8 1.4 1 .4 1.8.8 2.7 1.2s1.8.8 2.6 1.3c1.1.5 2.2 1.1 3.2 1.7l.3.3c.9.6 2.1.4 2.9-.3v.3c.4 1.7.8 3.5 1.3 5.2l.5 2.3.5 2.3c.3 1.6.6 3.2.8 4.8.3 1.6.7 3.2 1.1 4.8.4 1.6.6 3.2.9 4.8l.9 4.8c.3 1.6.7 3.2 1.2 4.8l.6 2.2c.1.4.2.9.4 1.3-1.2-.3-2.5-.4-3.8-.4h-3.4l-6.3.1s-4.3-.2-6.5-.3c-1-.1-2.1-.1-3.1-.1l-3-.3-1.9-.3s-1.5-.1-2.2-.2c-1.3-.1-2.6-.2-3.9-.2 0-.5-.1-.9-.2-1.3-.1-.7-.2-1.5-.5-2.2l-.3-.9c-.1-.3-.3-.7-.5-1-.2-.3-.5-.6-.9-.7-.1 0-.3-.1-.4 0-.8 0-1.4.7-1.4 1.5 0 .3.1.5.2.7l.3.5c.4 1 .6 2 .7 3.1.1.6.1 1.2.2 1.9-.2.3-.3.7-.3 1.1 0 .5.1.9.4 1.3v.7c0 .8.6 1.4 1.4 1.4.6 0 1.1-.4 1.3-1 2 0 4 .1 6 .3 2.2.3 4.4.5 6.6.6h13.5c1.1 0 2.3.1 3.5 0h1.7s1.4-.1 2-.1h.2c.6 0 1.1-.2 1.5-.6.2.7.3 1.4.5 2s.4 1.5.6 2.3.3 1.4.4 2.1c.1 1 .3 2 .5 3s.4 1.9.5 2.9l.4 3s.4 2.1.5 3.1c.4 2.2.7 4.5 1.1 6.8.2.6.8.9 1.4.7.3-.1.5-.2.6-.5.1-.3.2-.6.1-.9.1-3-.4-5.9-.8-8.9zm-71.6-77.5l-2 1.1-.4.2c-.8.3-1.6.7-2.3 1.1-1.5.8-2.9 1.8-4.3 2.7.4-1.5.9-2.9 1.4-4.3l.3-.9c2.5-.3 5-.3 7.5-.1h.1l-.3.2zm11 2.6l-.1-.2.3.1-.2.1zm10.6 3.7l-.8.3c.1-.3.1-.6.1-1v.1l1.2.4c-.2.1-.3.2-.5.2zm40.1-93.8c0 .5.2 1 .5 1.3.7.7 1.9.7 2.6 0 .3-.4.5-.8.5-1.3.2-1.8.3-3.6.4-5.4.1-1.6.2-3.2.2-4.8s.1-3.4.1-5 0-3.1-.1-4.7c0-1.6-.1-3.4-.2-5.1-.1-1.7-.2-3.2-.3-4.7-.1-1.6-.1-3.3-.3-4.9-.2-1.6-.5-3.5-.7-5.2-.1-.9-.3-1.7-.6-2.5l-.8-3-.6-2.7-.7-3.2c-.1-.5-.6-.7-1.1-.6-.4.1-.6.4-.6.8.2 1.8.4 3.6.7 5.4s.6 3.4.8 5 .3 3.1.4 4.7v4.8s-.1 3.3 0 4.9v5.1s-.1 3.1-.1 4.7v4.9c.1 3.3.2 6.5 0 9.8 0 .6 0 1.2-.1 1.7zm139.7 49.8h-.2c-.3 0-.6.2-.7.6-.2.5-.3 1.1-.5 1.7l-.3 1.5-.3 2-.2 1.2-.4 3c-.1 1.4-.3 2.8-.4 4.3 0 .4.3.8.8.8.4 0 .7-.3.8-.8l.2-2.7.2-2.1c.1-1 .3-2.1.4-3.2l.4-2.3c.2-1 .4-2 .7-3 .1-.5-.1-.9-.5-1zm3 6.5h-.2c-.3 0-.6.2-.7.5-.3 1.1-.5 2.2-.6 3.2l-.3 2.5c-.1 1.5-.1 3.1-.1 4.6 0 .4.3.8.8.8s.8-.3.8-.8v-2.9s.1-1.9.2-2.8c.2-1.4.4-2.8.7-4.2.1-.3-.2-.8-.6-.9zm-163.4 103.1h-.3c-.5 0-.9.3-1 .8l-.8 4c-.3 1.5-.7 2.9-1.3 4.3l-.1.2c-.1.2-.1.5-.1.7.1.5.7.8 1.2.7.2-.1.4-.2.6-.4.8-1.5 1.4-3.1 1.8-4.7.3-1.4.6-2.8.8-4.1.1-.3 0-.6-.1-.8-.2-.5-.5-.6-.7-.7zm88-65.2c.9.9 2.4 1 3.3.1.8-.8.9-2 .4-2.9-1-1.6-1.9-3.3-2.8-5-.4-.8-.9-1.5-1.4-2.3s-1-1.7-1.5-2.6c-.5-.9-.8-1.5-1.2-2.2-.4-.7-1-1.6-1.5-2.4l-1.4-2.3c-.4-.8-.9-1.9-1.4-2.8l-.6-1.5c-.2-.6-.6-1.1-1.1-1.4-.4-.2-.8-.3-1.2-.3-.2 0-.4 0-.6.1-.6.2-1.1.5-1.4 1.1-.3.5-.4 1.2-.2 1.8.9 2.3 1.9 4.5 3 6.6l1.5 2.7s.9 1.7 1.4 2.6c1 1.8 2.1 3.5 3 5.2l1.4 2.6c.7.9 1.5 2 2.3 2.9zm80.1-37.2c-.1-.2-.3-.4-.5-.4h-.2c-.4 0-.8.3-.9.7-.3 1.3-.6 2.7-.8 4l-.1.9-.1.9-.1 1.3v1.4c0 .6.5 1.1 1.1 1.1.6 0 1.1-.5 1.1-1.1 0-1.1.1-2.1.2-3.2l.1-.9.1-1.1.1-.5v-.8c.1-.5.2-1 .2-1.6-.1-.2-.1-.4-.2-.7zm-134.6-22.9c.2-.4.3-.8.3-1.3s.1-1 .2-1.5c.1-.7.2-1.4.4-2.1.2-.9.4-1.8.7-2.7.2-.7.4-1.4.7-2.1.3-.8.6-1.6.8-2.4l.7-2.3.8-2.4c.5-1.5.9-3.1 1.3-4.7.9-3.3 1.8-6.6 2.6-9.9l1.3-4.8c.4-1.6.8-3.2 1.1-4.9.3-1.6.7-3.3 1.1-5l1.2-4.6 1.5-4.8c.5-1.6.9-3.2 1.2-4.8.3-1.6.7-3.2 1.1-4.8l.8-4.6.9-4.8c.3-1.5.8-3.1 1.3-4.6.4-1.3.7-2.6.9-3.9.1-.3-.1-.7-.5-.8h-.1c-.3 0-.6.2-.6.5-.2.9-.5 1.8-.8 2.7l-.6 2.3s-.4 1.5-.6 2.2c-.2.7-.5 1.5-.8 2.3l-1.7 4.5c-.6 1.5-1 3-1.4 4.5-.2.7-.5 1.3-.7 1.9-.3.6-.7 1.4-1 2.1-.4.9-.8 1.8-1.1 2.7l-1.9 4.8c-.6 1.6-1.1 3.1-1.6 4.7s-.8 3.2-1.1 4.8c-.3 1.6-.6 3.2-1.1 4.8l-1.3 4.9s-.8 3.3-1.2 4.9-.9 3.3-1.4 5c-.4 1.7-.8 3.1-1.3 4.7-.2.9-.5 1.7-.8 2.6-.3.8-.5 1.5-.8 2.2-.2.8-.4 1.5-.7 2.2l-.4 1.2c-.2.4-.3.7-.4 1.1-.5 1.6-.8 3.3-1.2 5l-.3 1.8s-.1 1.3-.2 2c0 .7.3 1.3.7 1.8.5.4 1.1.7 1.8.7s1.3-.3 1.8-.7l.4-.4zm41.2 64.7c-1.2.7-2.3 1.3-3.4 2l-1.6 1.1-1.9 1.4-1.7 1.3-1.9 1.5c-.2.2-.4.6-.4.9 0 .3.1.7.4.9.2.2.6.4.9.4.3 0 .7-.1.9-.4 1-.8 2-1.6 3.1-2.4l1.8-1.3 1.6-1.1c1.1-.7 2.3-1.4 3.5-2 2.4-1.3 4.8-2.7 7.3-3.9.5-.3.7-.8.5-1.3-.1-.5-.6-.9-1.1-.9h-.3c-2.7 1.1-5.3 2.3-7.7 3.8zm8-3.8zm-16.3 3.2c-1.8 1.1-3.4 2.3-4.9 3.8-.5.5-.5 1.2 0 1.6.5.5 1.2.5 1.6 0 .7-.7 1.4-1.4 2.2-2 1.5-1.1 3.1-2 4.8-2.9l3.6-1.9c1.1-.6 2.2-1.2 3.3-1.7 1.1-.5 2.4-1.1 3.6-1.7l1.2-.6c.5-.3.7-.8.5-1.3-.1-.5-.6-.8-1.1-.9h-.3c-1.4.5-2.7 1.1-4 1.8-1.3.6-2.5 1.2-3.7 1.9-2.3 1.4-4.6 2.6-6.8 3.9zm-35-62.9zm126.3 23l-.1-.1c-.1-.4-.4-.8-.7-1-.8-.6-1.6-1.1-2.4-1.6-.8-.5-1.5-.9-2.2-1.4l-1.5-1.2-1.4-1.2c-.5-.4-1-1-1.5-1.5s-.9-1-1.4-1.6c-.5-.6-.8-.9-1.2-1.4-.6-.8-1.2-1.6-1.9-2.4-.6-.8-1-1.5-1.5-2.3l-.8-2.4c-.5-1.3-1.1-2.6-1.7-3.8-.6-1.3-1-2.4-1.6-3.5s-1.3-2.3-1.9-3.5l-1.8-3.4s-1.2-2.1-1.8-3.2l-3.6-6.9-3.7-6.8c-.6-1.1-1.2-2.2-1.7-3.3-.5-1.1-1.1-2.5-1.7-3.7l-1.6-3.3c-.6-1.1-1.2-2.2-1.8-3.4-1.3-2.3-2.4-4.7-3.5-7.1-.8-1.7-1.5-3.4-2.4-5.1l-1.2-2.3c-.4-.8-.9-1.8-1.3-2.7l-4.9-10-2.1-5.1-1.4-3.3-1.3-2.7c-.9-1.8-1.7-3.5-2.4-5.4v.2l-.3-.7-.5-1.2c-.5-1.1-.9-2.2-1.3-3.3-.4-1.1-.8-2.4-1.2-3.6-.4-1.2-.9-2.3-1.4-3.4s-.7-2.3-1.1-3.5l-2.3-7.2c-.4-1.2-.8-2.4-1.1-3.6-.3-1.2-.6-2.4-.9-3.7s-.5-2.8-.7-4.2v.1c-.1-.6-.2-1.2-.3-1.9v-.1c.2-.8-.1-1.6-.7-2.2-.1-.7-.3-1.3-.8-1.8-.4-.4-.9-.7-1.5-.8l-.4-.2c-1-.4-1.9-.9-2.8-1.3-1.1-.5-2.3-1-3.4-1.4-1.1-.5-2.2-1-3.3-1.6l-3.8-2.1c-2.9-1.4-6-2-9-3l-4.2-1.4c-1.6-.5-3.2-1-4.8-1.6-1.4-.5-2.8-1-4.2-1.4-1.4-.4-3-1-4.5-1.5-1.3-.5-2.6-.9-3.9-1.3-1.6-.4-3.2-.8-4.8-1.1-3-.6-6-1.3-8.9-2-1.4-.3-2.8-.7-4.2-1.1-1.4-.4-2.9-.9-4.4-1.2s-3.1-.6-4.7-1-3-.7-4.5-1c-3-.7-6.1-1.2-9.1-1.8s-6.4-1-9.6-1.3c-1.5-.2-3-.3-4.5-.4l-4.8-.4c-3.2-.3-6.5-.7-9.7-.9s-6.2-.3-9.3-.5c-3.1-.2-6.2-.3-9.3-.6-3.1-.3-6.4-.4-9.6-.6s-6.2-.2-9.3-.2h-.8c-2.9 0-5.8 0-8.7.1-3.1.1-6.1 0-9.2.2l-9.6.4c-3.1.2-6.2.5-9.3.8-3.1.3-6.1.7-9.1 1-3.3.3-6.5.8-9.7 1.3-6.2.9-12.4 2.2-18.5 3.9-2.9.8-5.8 1.7-8.7 2.7-2.9 1-6 1.9-9.1 3s-5.8 2-8.6 3.1-5.9 2.4-8.9 3.6l-4.8 2.1c-1.6.7-3.3 1.5-5 2.2-2.2.9-4.5 1.8-6.7 2.8-2.1 1-4.2 2.1-6.1 3.4-2.1 1.3-4.2 2.7-6.2 4.2l-3 2.3c-.8.7-1.6 1.3-2.3 2l-.9.9c-.3-.2-.6-.4-1-.5-.2-.1-.4-.1-.7-.1-.3 0-.7.1-1 .2-1 .3-1.7 1.2-1.8 2.3 0 .4.1.7.3 1.1-.1.5-.3 1-.5 1.5l-.8 2.9c-.6 1.7-1.1 3.5-1.8 5.2-1 2.1-2 4.1-3.1 6.1s-2.4 4.3-3.7 6.3c-1.3 2-2.5 4.2-3.9 6.1-1.4 2-3 4.1-4.4 6.2l-4.2 6-4.2 6.1c-1.4 1.9-2.7 3.9-3.9 6-1.2 2.2-2.4 4.5-3.7 6.7-.6 1.1-1.1 2.2-1.7 3.4-.5 1.1-1.1 2.3-1.7 3.5-1.1 2.3-2.2 4.5-3.4 6.8s-2.3 4.3-3.4 6.5-2.1 4.3-3.1 6.6c-1.1 2.5-2.1 4.9-3.1 7.5-.9 2.4-1.7 4.7-2.7 7.1-1 2.4-1.9 4.8-2.6 7.3-.3 1.2-.6 2.5-.8 3.7-.3 1.4-.5 2.8-.6 4.3 0 .9 0 1.7-.1 2.6v.4c.1 1.2 1.1 2.1 2.4 2.1 1.1-.1 2-1 2.1-2.1 0-1.3.1-2.6.2-3.9.2-1.3.5-2.6.8-3.9.3-1 .5-2 .9-2.9.7-1.9 1.5-3.8 2.2-5.6l4.4-11.1 3-6.6s2.1-4.4 3.2-6.5c2.4-4.5 4.6-8.9 6.8-13.5 1.1-2.2 2.3-4.4 3.5-6.6l1.8-3.4c.6-1.1 1.3-2.1 2-3.1l4.2-6 4.2-6 4.2-6s2.9-4.1 4.3-6.2c1.3-2.1 2.5-4 3.7-6.1.6-1 1.2-2.1 1.7-3.1.6-1 1.2-2.1 1.7-3.2.7-1.4 1.4-2.8 2-4.3.6-1.5 1-2.7 1.4-4.1.5-1.4.8-2.5 1.1-3.7.5-.1.9-.4 1.2-.9.2-.4.5-.8.8-1.3.8-.9 1.6-1.6 2.5-2.3l3.7-2.6c1.2-.8 2.7-1.8 4.1-2.6 1.4-.8 2.6-1.5 3.9-2.3.8-.5 1.6-.9 2.4-1.3.6-.3 1.3-.6 2-.9l7.2-3c2.7-1.2 5.4-2.4 8.2-3.6 2.7-1.2 5.6-2.3 8.4-3.4 2.8-1.1 5.7-2.1 8.5-3.1l8.9-2.9 4.2-1.4c1.6-.5 3.2-1 4.8-1.4 7.6-2.1 15.3-3.6 23.2-4.7l8.8-1s6.1-.6 9.1-.9c3.1-.3 6.3-.4 9.5-.6 3.2-.1 6.3-.3 9.4-.4 6.3-.1 12.7-.3 19-.1 3.1.1 6.2.3 9.4.5l4.7.3c1.6.1 2.9.3 4.4.4l9.4.5c3.1.1 6.3.3 9.4.6s6.2.5 9.3.8c3.1.2 6 .6 8.9.9 1.4.2 2.9.4 4.3.7l4.5.9 4.6.9 4.5 1 4.5.9c1.5.3 2.9.8 4.4 1.2 3 .8 5.9 1.6 8.9 2.2 3 .7 6.1 1.3 9.1 2.1 2.9.7 5.5 1.9 8.4 2.8 1.5.5 3 .9 4.4 1.5 1.4.5 3 1.1 4.6 1.5l4.2 1.3s3 .9 4.5 1.3c1.1.3 2.2.7 3.2 1.1 1.7.8 3.4 1.8 5 2.7 1.8.9 3.7 1.7 5.6 2.5l2.6 1.2-.3 1.3-.8 3.5-1 3.6s-.6 2.3-1 3.5-.7 2.4-1.1 3.6c-.4 1.2-.6 2.5-.9 3.7l-.9 3.6s-.8 2.5-1.2 3.8c-.7 2.4-1.5 4.8-2.1 7.2-.6 2.4-1.1 5-1.9 7.5-.4 1.2-.8 2.4-1.1 3.7s-.7 2.3-1 3.5c-.4 1.2-.9 2.4-1.2 3.7-.4 1.2-.6 2.6-1 3.9-.7 2.5-1.6 4.9-2.2 7.4-.6 2.5-1.3 4.8-2 7.2-.7 2.4-1.5 4.8-2.3 7.2-.8 2.4-1.8 4.9-2.6 7.4s-1.5 5-2.1 7.5c-.7 2.5-1.3 5.1-2.2 7.6l-2.5 7.6c-.8 2.5-1.6 4.8-2.4 7.2-.9 2.6-1.5 5.3-2.3 7.9s-1.7 4.9-2.3 7.5-1.6 5.1-2.3 7.7c-.7 2.6-1.3 5-2 7.5l-2 7.6c-.3 1.2-.7 2.4-1.1 3.6s-.8 2.7-1.2 4l-1.2 3.8-1.3 3.6s-.8 2.5-1.3 3.8-.9 2.3-1.4 3.5l-1.6 4.1-.2.4c-.3.6-.4 1.3-.2 1.9.4 1.3 1.7 2.1 3.1 1.8l.3-.1c-.5.4-.9.8-1.3 1.2-.7.6-.8 1.8-.2 2.5.6.7 1.8.8 2.5.2l.2-.2c.5-.5 1-1 1.5-1.4l.8-.6 1-.8 2.1-1.5s1.5-1.2 2.3-1.8c.8-.6 1.6-1.2 2.3-1.9.8-.6 1.5-1.3 2.2-1.9 1.5-1.3 3-2.5 4.6-3.8 1-.8 2.1-1.5 3.1-2.2l3-2.4c1.7-1.2 3.2-2.5 4.9-3.8l3.7-2.7c1.4-1.1 2.8-2.1 4.2-3.3 2.4-2 4.9-4 7.3-5.9 1.4-1 2.8-2 4.3-3l2.2-1.5c-.1.2 0 .4.1.6.7 1.5 1.4 2.9 2 4.4.3.6.6 1.2.9 1.9l.9 1.8c.3.6.5 1.1.7 1.6l.7 1.4c.2.4.5 1 .8 1.4.3.4.6.9.9 1.4l.7 1.3.9 1.5 1.6 2.7c.8 1.3 1.4 2.8 2.2 4 .4.6.9 1.3 1.3 2s.9 1.4 1.5 2l.8 1.1.3.4-1.4 1.4c-1.8 1.8-3.7 3.4-5.5 5.1l-2.6 2.2-2.7 2.4c-1.8 1.6-3.6 3.1-5.3 4.8-1.7 1.7-3.7 3.3-5.5 4.9s-3.7 3.2-5.5 4.8c-.3-.3-.7-.5-1.1-.6-1.2-.3-2.4.4-2.8 1.6l-.1.6c0 .4.1.8.3 1.1l.1.3-1.9 1.6c-1.9 1.6-3.8 3.2-5.6 4.9s-3.7 3.3-5.5 5l-5.4 4.9c-1.8 1.6-3.5 3.4-5.3 5.1l-.8.8c-1 1-1 2.6 0 3.5s2.6 1 3.5 0c1.8-1.8 3.7-3.7 5.6-5.5 1.7-1.6 3.5-3.1 5.1-4.7 1.7-1.6 3.6-3.3 5.4-5 1.8-1.7 3.7-3.4 5.6-5l1.2-1 .1.1.3.7c.2.6.4 1.2.6 1.9.1.5.3 1.1.6 1.6.3.6.8 1.1 1.3 1.4.6.3 1.2.3 1.8 0l.1-.1c.2.1.4.1.7.1.5 0 1-.2 1.3-.5.3-.2.6-.5 1-.8h.1l.3-.1c.3 0 .7-.1 1-.3.4-.2.7-.6.8-1 .5-1 1.1-2 1.7-2.9.3-.6.1-1.4-.5-1.7-.2-.1-.4-.2-.6-.2-.4 0-.9.2-1.1.6-.3.5-.6.9-.9 1.3l-.5.8-.3.5h-.6c0-.3-.1-.6-.3-.9.2-.4.4-.9.5-1.3l.6-1.6c.2-.5.3-.9.4-1.4l.8-3c.1-.4 0-.7-.3-1l1.2-1c1.9-1.6 3.7-3.2 5.5-4.9l2.6-2.5c.9-.8 1.7-1.5 2.5-2.2 1.8-1.6 3.6-3.2 5.5-4.8s3.7-3.2 5.5-4.9l5.1-5c1.7-1.6 3.6-3.2 5.4-4.8l4.7-4.2s3.1-2.6 4.7-3.9c3.5-2.7 7-5.3 10.6-7.9 1.9-1.4 3.8-2.9 5.7-4.5.9-.7 1.8-1.5 2.6-2.2s1.8-1.6 2.6-2.4c.8-.8.8-2.1 0-3-.3-.3-.6-.4-.9-.5-.2-.1-.4-.1-.6-.1-.2 0-.4 0-.6.1-.1-.1-.3-.2-.5-.3-1.8-.6-3.5-1.2-5.2-1.8-.7-.2-1.5-.4-2.2-.5l-2.3-.4-3-.3c-.8 0-1.6-.1-2.4-.2-1.6-.1-3.2-.1-4.8-.1h-4.9c-.8 0-1.5.1-2.3.2l-2.4.2c-.8.1-1.9.2-2.9.4l-2.5.6-4.8 1.2-1 .3c-.7.1-1.1.8-.9 1.4.1.7.8 1.1 1.4.9h.1c2.6-.7 5.2-1.3 7.8-1.7 1.6-.2 3.2-.2 4.8-.2 1.6 0 3.3 0 5 .1l4.7.2 4.8.3 2.5.2 2 .3c.8.1 1.5.2 2.3.4l2.4.7 1.3.3c-.6.5-1.2 1-1.9 1.4-1.6 1.1-3.1 2.3-4.6 3.4l.1-.1c-1.8 1.4-3.6 2.7-5.5 4-1.9 1.4-3.7 2.8-5.5 4.1-1.8 1.4-4 3-5.8 4.6l-5.5 4.9c-1.8 1.6-3.5 3-5.2 4.6-.7.6-1.4 1.3-2 2l-.4-.6c-.4-.7-1-1.2-1.5-1.8l-1.8-2.5c-.6-.9-1.1-1.8-1.6-2.8-.5-.9-1-1.8-1.6-2.8-.6-.9-1.1-1.8-1.6-2.8-.3-.5-.5-1-.8-1.4l-.9-1.4c-.6-.9-1.1-1.9-1.6-2.8l-.7-1.5s-.5-.9-.8-1.3c-.5-.9-1-1.9-1.5-2.9l-1.6-3.4c-.1-.2-.4-.4-.7-.4l1.3-.9c1.5-1.1 3-2.2 4.5-3.2 1.4-1 2.8-1.9 4.3-2.9 3.1-2.1 6.1-4.2 9-6.6 2.7-2.2 5.4-4.5 8-6.7 1.9-1.6 3.7-3.2 5.5-4.8 1.4-1.2 2.8-2.3 4.2-3.4l.6.6c.9.9 1.9 1.8 2.8 2.6.9.9 1.9 1.8 2.9 2.7 2 1.7 3.9 3.5 5.8 5.4l2.7 2.6c.9.9 1.8 1.8 2.8 2.6 1.4 1.2 2.8 2.4 4.3 3.5-1.1-.1-2.2-.2-3.4-.2l-3.9-.1c-1.2 0-2.4-.1-3.6-.3-1.4-.2-2.7-.5-4-.6h-3.9c-1.3 0-2.6-.1-4-.1l-1.9-.1c-.7 0-1.4-.1-2-.2l-2.7-.3-2-.1h-.6c-2 0-4 .1-5.9.2-.7 0-1.3.6-1.3 1.3 0 .7.6 1.3 1.3 1.3l4.4-.2 4-.1c1.3 0 2.7.2 4.1.3s2.6.1 3.9.2c1.3.1 2.6.1 4 .1h2c.6 0 1.2 0 1.7.1 1.3.2 2.6.4 3.9.5 1.3.1 2.5.3 3.7.4 1.2.1 2.8.2 4.1.3l2 .2c.7.1 1.5.1 2.2.1h1.5l.1.2c.3.6.9 1 1.5 1.1 1.3.4 2.7-.4 3.1-1.8.2-.6.1-1.4-.2-1.9-.6-.8-1.2-1.7-1.7-2.5l-.5-.7c.2.3.5.7.8 1 .5.6 1 1.1 1.5 1.6l1.4 1.4c.6.6 1.2 1.1 1.8 1.6l1.7 1.2c.6.5 1.1.9 1.7 1.3.2.1.4.2.7.4.8.4 1.7.2 2.2-.6.1-.2.2-.7.1-1.1zm-85 64.3c-.2.5-.3 1-.5 1.4l-.5 1.3-.4.9-.7-1.5-.5-1 1-.9c.7-.6 1.4-1.2 2.1-1.9-.2.5-.3 1.1-.5 1.7zm40.1-109.6c.3 1.7.6 3.4.8 5.2l.4 3.6.2 1.6-.3-.3c-.4-.5-.8-1-1.2-1.4.1-1 .1-2 .1-3l-.1-2.4v-4.1l.1.8zm-4.2-25.5c.6 1.1 1.1 2.3 1.7 3.5l.7 1.4c-.4.4-.8.8-1 1.3l-.3.8s-.2.6-.2 1c-.4-2.6-.7-5.2-.9-8zm-1.7 27.8l-.2-.3v-.3l-.1-1c0-.3-.1-.8-.2-1.1l-.1-.4v-.8c0-.8 0-1.7-.1-2.5.1 2.2.3 4.3.7 6.4zm-4.3-40.1l1 2 .9 1.7c-1.2.4-1.6 1.7-1.8 3-.1-1.4-.1-2.8-.1-4.2v-2.5zm-2.2 31.8v-3.8l.2 1.2.8 4.7-.3-.3-.7-.8v-1zm-4.1-43.6v-2.2l.9 1.8 1.2 2.9c-.3.3-.6.7-.7 1.1-.2 1.2-.4 2.4-.5 3.6l-.4 3.1-.6 5.8c-.1-2.7-.1-5.4-.1-8.1 0-2.7.1-5.4.2-8zm-1.2 38.9l-.1-.1c0-.3-.1-.6-.1-1 .1.3.2.7.2 1.1zm-4-43.3c0-2 .2-4 .3-5.9l.2-2.5 1.2 2.9c-.1.1-.3.3-.3.5-.2.3-.3.7-.4 1 0 .1 0 .2-.1.3-.1.4-.1.8-.2 1.1 0 .4-.1.9-.2 1.4-.1 1-.2 2-.2 3.1l-.3 4.2v-6.1zm-1.3 31.4l.8 6.4.2 1.1-.6-.5-1.7-1.8-.1-.1c.3-.3.4-.7.5-1.1 0-.2 0-.4-.1-.6l-.6-6.3-.2-2.9v-2.8c0-1.1.1-2.2.2-3.3.1-.8.1-1.6.2-2.3l.1 2c.1 2 .4 4.1.6 6.1l.7 6.1zm-4.6-41.6l.7-12.4c0-.6 0-1.2.1-1.8l1.6 5.2c.3 1 .7 2 1.1 3-.4.3-.6.6-.8 1.1-.2.6-.4 1.2-.4 1.8-.1.5-.2.9-.2 1.3l-.6 3.1c-.4 2.1-.6 4.2-.7 6.3-.2 2.1-.3 4.2-.4 6.4-.1 1.3-.1 2.6-.2 3.8 0-.7 0-1.4-.1-2.1 0-1.1 0-2.2-.1-3.4-.1-4.1-.1-8.2 0-12.3zm-1.1 34.5c.1 1.9.3 3.7.7 5.6v.1l.3 2.4-2-2.7-.5-.7c.1-.3.2-.6.2-.9.1-.7.1-1.5 0-2.2v-14.7l.4 2.8v.1l.9 10.2zm-5.4-43.3c.8-2.4 1.3-4.8 1.9-7.3s1.5-4.7 2.1-7.1l.3-1 .2.7c.1.6.3 1.1.5 1.7-.3 0-.6.2-.9.5-.2.2-.3.4-.4.6l-.3.6c-.1.2-.1.4-.2.7l-.3 1.3-.6 2.9c-.4 2.2-.7 4.4-.9 6.6l-.3 2.9-.1-.1c-.3-.5-.9-.9-1.5-1 .1-.7.3-1.3.5-2zm-.7 40.8c.1-.1.1-.3.1-.5v-.2c.1.9.3 1.8.4 2.6-.3-.4-.6-.8-.8-1.2.1-.2.2-.4.3-.7zm-28.2 55.2c.7-2.6 1.5-5.1 2.4-7.7l2.4-7.2 1.2-3.7c.4-1.2.9-2.4 1.2-3.6l2.1-7.6c.7-2.5 1.5-5.1 2.3-7.6l1.3-3.7 1.1-3.6c.8-2.4 1.5-4.7 2.2-7.1.4-1.2.7-2.5 1-3.7.3-1.2.6-2.4 1-3.6l.1-.3.3.6c.7 1.2 1.5 2.3 2.3 3.4.8 1.1 1.6 2.4 2.4 3.6.8 1.2 1.7 2.3 2.5 3.4.9 1.1 1.6 2 2.4 3.1l4.4 6c1.5 2 3.2 3.8 5.1 5.5 1 .9 2 1.8 2.9 2.8.9 1 1.8 1.9 2.6 2.8l.7.8c-.2 0-.4.1-.5.1-.5.3-1.1.5-1.6.9s-1 .6-1.4 1c-.9.6-1.7 1.3-2.6 2-.9.7-1.8 1.2-2.7 1.8-1 .6-1.9 1.3-2.8 2.1-.6.5-1.3 1.1-2 1.6-.8.6-1.6 1.2-2.5 1.8-.8.6-1.8 1.3-2.7 1.9-.9.6-1.8 1.2-2.7 1.9l-2.7 1.9-2 1.5c-.8.6-1.6 1.2-2.4 1.9-.8.7-1.3 1.1-2 1.6s-1.4 1.1-2 1.7-1.3 1-2 1.5-1.3 1-2 1.6l-1.9 1.6c-.6.5-1.2 1.1-1.9 1.6-.6.5-1.2.9-1.7 1.3l-1.8 1.4-2.1 1.6-.3.2c1.1-2.6 1.8-4.8 2.4-7.1zm64.4-2.4c-1.1.9-2.2 1.8-3.2 2.7s-2 1.7-3 2.6l-3 2.4c-1.3 1-2.6 2-4 3-1.5 1.1-3 2.2-4.4 3.4-2.8 2.1-5.7 4-8.6 6l-8.7 6.3-4.4 3c-1.4 1-3.1 2.3-4.6 3.5l-3.9 3.3c-1.3 1.2-2.6 2.4-3.9 3.5l-.4.3c-1.4 1-2.7 2.1-4.1 3-1.4 1-2.7 2-4 3l-2.3 1.6c-.8.5-1.4 1-2 1.5-1.5 1.1-3.2 2-4.6 3.2l-2.2 1.9c-.7.6-1.6 1.3-2.3 2s-1.4 1.3-2.1 2c-.8.6-1.6 1.3-2.4 2-1 .8-2.1 1.4-3.1 2.1l-1.6 1.2-.5.4.1-.2c.7-1.5 1.3-3 1.9-4.6.5-1.2 1-2.5 1.5-3.8.5-1.3.9-2.5 1.3-3.7.4-1.2.9-2.4 1.3-3.7.9-2.6 1.6-5.1 2.4-7.7.3-1.2.7-2.3 1.1-3.5.3-1.2.7-2.6 1.1-3.9l1.4-5.4.7-.6 2.4-1.9.1-.1-.1.1c.8-.6 1.7-1.3 2.6-1.9s1.9-1.3 2.8-2c1.9-1.3 3.6-2.8 5.4-4.2.9-.7 1.8-1.3 2.7-1.9.9-.6 2-1.4 2.9-2.1 1.9-1.4 3.7-2.7 5.7-3.9 1-.6 2-1.2 2.9-1.9s2-1.3 3-2c1.9-1.4 3.7-2.8 5.6-4.1.9-.7 1.9-1.3 2.9-1.9.6-.4.9-1.2.5-1.8-.2-.4-.7-.7-1.1-.7-.2 0-.5.1-.7.2-.5.2-.9.5-1.4.8l-1.1.8c-.7.5-1.4 1-2.1 1.6l-3.9 3c-.9.7-1.8 1.3-2.7 1.8s-1.9 1.2-2.8 1.8c-.9.6-2 1.3-3 2s-2 1.5-3 2.3l.2-.2-2.8 2.1-2.8 2.1c-.9.7-1.7 1.4-2.5 2.1-.8.7-1.7 1.4-2.6 2.1-.9.7-1.7 1.2-2.5 1.9-.8.6-2 1.5-2.9 2.3-.5.4-1 .8-1.5 1.3.6-2.3 1.2-4.7 1.9-6.9.4-1.3.9-2.6 1.2-4l.6-2.1.2-.2 2.5-1.8 2.7-1.8 2.7-1.8s1.8-1.3 2.6-1.9l1.7-1.3 1.8-1.3c1.2-.9 2.4-1.8 3.6-2.8l-.3.2 2.9-2.3 2.3-1.8 2-1.5c.9-.6 1.7-1.3 2.5-1.9.8-.6 1.6-1.2 2.5-1.8l2.5-1.8c1.8-1.2 3.5-2.5 5.3-3.8 1.8-1.3 3.4-2.2 5-3.4.8-.6 1.6-1.2 2.5-1.8.8-.6 1.9-1.4 2.8-2.2.1-.1.2-.3.3-.5v-.1c1 1.2 2.1 2.4 3.2 3.5.9 1 1.8 2 2.6 3l2.5 2.9 2.5 2.7c-.7.4-1.4.9-2 1.3s-1.3 1-2 1.5l-3.6 2.5-3.4 2.6s-2.1 1.5-3.1 2.2c-1.1.8-2.2 1.6-3.2 2.5-1 .9-2 1.7-3 2.5s-1.9 1.5-2.8 2.2c-.9.8-2 1.8-3 2.7l-3 2.4s-2 1.7-2.9 2.5l-2.7 2.7c-.6.7-1.2 1.4-1.8 2.2-.2.2-.3.5-.3.8 0 .3.1.6.3.8.2.2.5.3.8.3.3 0 .6-.1.8-.3l1.8-2.2c.6-.7 1.1-1.2 1.8-1.8 1.2-1.1 2.4-2.2 3.7-3.2 1.1-.8 2.2-1.7 3.3-2.6l3.2-2.6c1.2-.9 2.5-1.8 3.7-2.8s2.4-2 3.6-2.9l2.1-1.5 2.1-1.5c1.5-1.1 2.9-2.4 4.3-3.5.7-.6 1.4-1.1 2.1-1.6s1.3-1.1 2-1.6c.9-.7 1.9-1.4 2.8-2.2l1.2 1.3c1.6 1.8 3 3.7 4.7 5.5.8.8 1.6 1.6 2.5 2.4-1.3.5-1.8 1-2.3 1.4zm2.7-28.7l-.4.8v.1l-.3-3 .9 1.8-.2.3zm1.8 23.3l-.5-.5c.6-.3 1.1-.9 1.3-1.5.1-.3.1-.6.1-1 .1.8.2 1.6.4 2.4l.2 2-1.5-1.4zm5.2-8.6l-.3-2.2.6 1.1.3.6-.6.5zm1.3 14.8c.1-.1.1-.2.2-.2.2-.4.4-.9.5-1.3l.1.8.3 1.8-1.1-1.1zm-252.6 123c-1.4 0-2.8 1.4-3.8 3.6l.2-.9c.4-1.5-.2-2.6-1.5-2.6-.9.1-1.8.6-2.4 1.3v1c.4-.4.9-.7 1.5-.9.5 0 .5.6.4 1.5l-1.8 10.1h2l.6-3.6c.9-5.4 2.8-7.8 3.9-7.8.3 0 .3.3.3.8v.2c0 .6.5 1 1 1 1 0 1.5-1 1.5-1.5v-.5c0-1.1-.9-1.8-1.9-1.7zm9.3 0c-2.6 0-5.8 3.1-6.4 6.9-.7 3.8.9 6.9 4 6.9 1.9-.2 3.6-1.1 4.8-2.5l-.5-.8c-.9.9-2.1 1.6-3.4 1.7-2.1 0-3-1.5-3-3.7 4.6-1 6.8-3.3 7.2-5.3.1-.3.1-.6.1-.8-.1-1.5-1.4-2.5-2.8-2.4zm.8 3.2c-.3 1.6-1.9 3.5-5.2 4.2l.1-.6c.6-3.4 2.3-5.4 4-5.4.9 0 1.2.8 1.1 1.8zm-22.5 7.5l1.7-10.1h-2.1l-1 5.6c-.7 3.9-2.9 5.7-4.1 5.7-1.8 0-2.1-1.6-1.6-4l.9-5.2c.3-1.5-.3-2.6-1.6-2.6-.9.1-1.8.6-2.4 1.3v1c.4-.4.9-.7 1.5-.9.5 0 .5.6.4 1.5l-.9 5.1c-.6 3.2.2 5.6 2.7 5.6 1.9-.2 3.5-1.4 4.3-3v.3c-.2 1.5.3 2.6 1.6 2.6 1-.1 1.9-.6 2.5-1.3v-.9c-.4.4-.9.7-1.5.8-.4 0-.6-.6-.4-1.5zm36.8-9.1c-.1-1-1-1.7-1.9-1.6-1.4 0-2.8 1.4-3.8 3.6l.2-.9c.4-1.5-.2-2.6-1.5-2.6-.9.1-1.8.6-2.4 1.3v1c.4-.4.9-.7 1.5-.9.5 0 .5.6.4 1.5l-1.8 10.1h2l.6-3.6c.9-5.4 2.8-7.8 3.9-7.8.3 0 .3.3.3.8v.2c0 .6.5 1 1 1 1 0 1.5-1 1.5-1.5v-.6zm-60.6 9.1l.9-5.1c.6-3.2-.1-5.6-2.6-5.6-1.9.2-3.5 1.3-4.4 3v-.3c.3-1.5-.3-2.6-1.6-2.6-.9.1-1.8.6-2.4 1.3v1c.4-.4.9-.7 1.5-.9.5 0 .5.6.4 1.5l-1.8 10.1h2.2l1-5.6c.7-3.9 2.8-5.8 4.1-5.8 1.8 0 2.1 1.6 1.6 4l-.9 5.2c-.3 1.5.3 2.6 1.6 2.6.9-.1 1.8-.6 2.4-1.3v-.9c-.4.4-.9.7-1.5.8-.5.1-.6-.5-.5-1.4zm159.9-6.8c-.2-1.5-.3-2.9-.4-4.3 0-.3-.1-.7-.4-.9-.2-.2-.6-.4-.9-.4-.7 0-1.3.6-1.3 1.3l.3 3.1c.1 1.2.2 2.3.1 3.5-.1.7-.3 1.4-.6 2.1-.3.7-.7 1.4-1.2 2.1-.3.5-.1 1.2.4 1.5.3.2.6.2.9.1.3-.1.5-.3.7-.5l1-1.4c1.2-1.7 1.7-4 1.4-6.2zm-149.9-9.4h-2.1l-1 6.1h-2.5l-.2 1.3h2.4l-1.3 7.6c-.5 2.9.3 4.2 2 4.2 1.4-.2 2.6-1 3.4-2.1v-1c-1.1 1.3-1.9 1.7-2.4 1.7-.9 0-1.2-.9-.9-2.7l1.3-7.6h3l.2-1.3h-3l1.1-6.2zm-25.8 5.5c-2.6 0-5.8 3.1-6.4 6.9-.7 3.8.9 6.9 4 6.9 1.9-.2 3.6-1.1 4.8-2.5l-.4-.8c-.9.9-2.1 1.6-3.4 1.7-2.1 0-3-1.5-3-3.7 4.6-1 6.8-3.3 7.2-5.3.1-.3.1-.6.1-.8-.2-1.5-1.4-2.5-2.9-2.4zm.9 3.2c-.3 1.6-1.9 3.5-5.2 4.2l.1-.6c.6-3.4 2.3-5.4 4-5.4.9 0 1.2.8 1.1 1.8zm77.2 6.6c-1 0-1.8.8-2 1.8v.2c0 .9.7 1.6 1.6 1.6 1 0 1.8-.8 2-1.8v-.2c.1-.9-.7-1.6-1.6-1.6zm-88.3-9.8c-.5-.1-.9.3-.9.7-.2 1.2 1.7 1.5.9 6.2-.6 3.4-2.6 5.5-4.3 5.5-1.2 0-2.1-1.1-1.7-3.6.7-4.1 2-6.2 2.4-8.8h-.6c-1.1.7-1.3.2-2.6.2-.9.1-1.8.6-2.4 1.3v.9c.4-.4.9-.7 1.5-.9.9 0 1.7.3 2.4.8-.3 1.5-2.3 4.5-2.7 6.9-.5 2.4.2 4.7 3.4 4.7 2.5 0 5.1-3.1 5.8-6.9.8-5.2-.3-7-1.2-7zm177.5-45.9l4.9.6c2.1.3 4.2.7 6.2 1 1.1.2 2.3.4 3.4.5 1.1.1 2.3.2 3.4.2.6 0 1.1-.4 1.2-1 .1-.3 0-.7-.1-1-.2-.3-.4-.5-.8-.6l-3.3-.4c-1.5-.2-3-.5-4.5-.8l-5.1-.9c-1.3-.2-2.7-.3-4-.4-1.3-.1-2.7-.2-4-.2-1.3 0-2.7 0-4-.1l-4-.2c-2-.1-4.1-.4-6.1-.6l-3-.2c-1-.1-1.8-.2-2.7-.3l-3.7-.6s-2.5-.3-3.8-.4c-1.3-.1-2.5-.2-3.8-.2h-2.1l-2.5.1c-.5 0-1 .5-1 1s.5 1 1 1c1 0 2-.1 2.9-.1s2 .1 3 .1c1.7.1 3.5.2 5.2.4l6 .9 5.5.6h-.1c2.6.3 5.2.7 7.9.9 1.3.2 2.7.3 4 .3 1.4.2 2.7.2 4 .4zm.3 45zm0 0h-.3c-.7.2-1.1.9-.9 1.6.2.6.3 1.3.4 1.9.1 1 0 1.9-.1 2.9-.1.9-.4 1.8-.6 2.8l-.4 1.8-.6 3.1c-.2.6.1 1.2.7 1.5.6.2 1.2-.1 1.5-.7v-.2l1.2-4.2c.4-1.3.6-2.6.8-3.9.1-.9.2-1.8.1-2.7-.1-1-.3-2-.5-2.9-.2-.6-.7-1-1.3-1zm3.7-22c2.2.2 4.3.3 6.5.4l3.1.1c1 0 2.1.1 3.1.2l2.2.2.9.1c.4 0 .9 0 1.3.1.2 0 .5.1.7.2.6.2 1.1-.2 1.3-.7.2-.6-.2-1.1-.7-1.3l-1-.3-.8-.1-.9-.1-1.4-.2c-1.1-.1-2.2-.2-3.3-.2l-3.3-.1-3-.1c-2.1-.1-4.3-.3-6.5-.4-1.1-.1-2.2-.1-3.2-.3l-3.4-.4c-2.1-.3-4.2-.6-6.3-.6-1 0-2.1 0-3.1-.1s-2.2-.1-3.2-.1c-1.1-.1-2.3-.1-3.5-.2-1.2 0-2-.1-3.1-.2l-3.3-.4-3-.3s-2.2-.2-3.4-.2-2-.1-3-.2l-1.8-.1h-4.5l-2.2.1c-.4 0-.7.4-.6.8 0 .3.3.6.6.6 2.3-.1 4.5-.2 6.8-.1l3.3.3 3.3.3c1.1.1 2.2.2 3.2.4 1.1.1 2.1.2 3.1.4 1 .1 2.2.3 3.3.4 1.1.1 2.1.1 3.1.2l5 .3 2.6.2c.8 0 1.6.1 2.4.2l6.5.9c1 .1 2 .3 3.1.3h3.1zm-11.4 5.1c-.6 0-1.1.4-1.3 1l-.1-.9c-.1-.3-.2-.5-.5-.6-.2-.1-.3-.1-.5-.1h-.3c-.3.1-.5.2-.6.5-.1.2-.2.5-.1.8l.1.9v-.3l.3 2 .1.9c-.3-.5-.8-.8-1.4-1-.7-.2-1.4-.4-2.2-.4l-1.2-.1c-1.9-.3-3.8-.7-5.7-.9-1-.1-1.9-.2-2.9-.2l-3.1-.2c-2.1-.1-4.2-.1-6.2-.2l-2.6-.1h-.7c-1.3 0-2.7.1-4 .2-.4 0-.7.1-1.1.2l.1-1c.1-1.3.1-2.7 0-4 0-.7-.5-1.2-1.2-1.2s-1.2.5-1.2 1.2v2.9s-.1 2-.3 3c-.2 1.2-.3 2.4-.5 3.5-.1.3 0 .6.1.9.3.5 1 .7 1.6.4.3-.2.4-.4.5-.7l.2-.9c.4.5 1.1.7 1.7.7 1.8-.1 3.6-.2 5.4-.2 1.6 0 3.2.1 4.9.1s3.1.1 4.6.2l4.5.3 3.7.6 2.3.3c.7.1 1.3.1 2 .1.6.1 1.3.1 1.8-.2.4-.2.7-.6 1-1 0 1.1 0 2.2-.1 3.3-.1.4-.1.8-.2 1.1-.1.5.2 1 .6 1.1.3.1.6 0 .8-.2 0 .3 0 .6-.1.9-.1.3-.2.9-.3 1.3-.2.7.1 1.5.8 1.7.7.2 1.5-.1 1.7-.8v-.1c.2-.5.3-1.1.4-1.6.1-.6.2-1.1.2-1.7l.1-1.7v-1.4c.1-2.3.1-4.7 0-7 .2-.7-.3-1.3-1.1-1.4zm-48.2-16.6c.1-.6.2-1.2.4-1.7l.3-1.6c.3-1.1.6-2.2.8-3.3.1-.5.2-1 .4-1.6l.3-1.8.5-3.4c.2-1.1.3-2.4.4-3.6.2-1.4.4-2.9.5-4.3.1-1.4.2-2.6.3-3.9l.2-1.5c.1-.5.2-1.2.3-1.8l.2-3.6s.2-2.4.4-3.6c.1-1.2.2-2.2.4-3.3l.6-5.4c0-.3-.1-.6-.3-.8-.4-.4-1.1-.4-1.6 0-.2.2-.3.5-.3.8l-.9 7.1-.4 3.6s-.1 2.3-.1 3.5c0 .8-.1 1.6-.2 2.4l-.5 3.5c-.1 1.2-.1 2.2-.2 3.3l-.5 6.9c0 .2 0 .4-.1.7-.1 1-.3 2.1-.4 3.2l-.3 1.6c-.2.6-.3 1.2-.5 1.7-.3 1-.7 2.1-1 3.2s-.6 2.2-1 3.3l-.5 1.5c-.2.5-.3.9-.5 1.3-.3.9-.6 1.9-.8 2.8-.4 2-.8 4-1 6l-.6 3.3s-.3 2.2-.5 3.2l-.6 3.4c-.2 1.2-.3 2.5-.4 3.7 0 .7 0 1.4-.1 2.1 0 .6.5 1.2 1.2 1.2.6 0 1.2-.5 1.2-1.2 0-1.4.1-2.7.2-4l.6-3.1c.2-1 .5-2.2.6-3.3.2-1.1.4-2.3.6-3.5s.4-2.3.5-3.5c.3-2.2.8-4.4 1.5-6.5.3-.9.7-2 .9-3zm-8 16.1l-1.3-.2c-.7-.1-1.5-.3-2.2-.6-.7-.2-1.4-.4-2.2-.5-.8-.1-1.5-.3-2.2-.5l-1-.2c-.3-.1-.7-.2-1-.2-1.4-.4-2.9-.8-4.4-1l-4.5-.5h1.2c1.4 0 2.5-1.1 2.5-2.5 0-.4-.1-.9-.3-1.2-.3-.6-.9-1-1.5-1.1-.5-.1-1.1-.1-1.7-.1h-.8c-.7 0-1.4.1-2 .1h-3.7c-2.6 0-5.1-.2-7.6-.4l-7.4-.2-8-.3c-1.9-.1-3.8-.3-5.7-.5-1.9-.2-3.7-.5-5.5-.8-1.9-.2-3.9-.4-5.9-.4-2 0-4-.1-6.1-.2-1.7-.1-3.4-.2-5.1-.4l-3.3-.6c-1.3-.3-2.6-.7-4-.9-2.4-.5-4.9-.8-7.4-1.1-2.5-.3-5-.6-7.5-.8s-4.9-.3-7.3-.6l-3.4-.5c-1.4-.2-2.8-.3-4.2-.3l-8-.2h-3.9s-2.6-.1-3.9-.1h-4c-1.3 0-2.6-.2-3.9-.3-.9-.1-1.8-.1-2.7-.1h-.7c-1.3 0-2.6-.1-3.9-.2-1.3-.1-2.5-.1-3.7-.2l-1.9-.1-2.5-.1c-.4 0-.8 0-1.2.1-.7 0-1.3.3-1.8.7-1 1-1 2.6 0 3.5l.2.1c-.6 1-.4 2.2.4 3 .5.5 1.1.7 1.8.7 2.1.2 4.2.4 6.2.6 1.8.2 3.5.3 5.3.4 1.8.1 3.4.2 5.1.4.9.1 1.8.1 2.8.1.9 0 1.6 0 2.4.1l4.8.4 4.7.1s3.1.2 4.6.3c1.5.1 3.1.2 4.7.3 1.7.2 3.4.5 5.2.7l5.6.6c1.7.2 3.4.3 5.1.4l2.5.1 2.8.3 10.5 1.1c1.7.2 3.4.4 5.2.6 1.7.2 3.4.3 5.1.4 1.7.1 3.5.1 5.2.1.9 0 1.7 0 2.6.1l2.5.2c1.8.1 3.6.2 5.4.4s3.4.4 5.1.4c1.7 0 3.5 0 5.2.2l5.1.5s3.4.3 5.1.5l5 .5 2.6.3c.8.1 1.5.2 2.3.2 1.7.2 3.4.5 5.2.6 1.5.1 3.1.3 4.6.3h14.6c.4 0 .8-.4.8-.8 0-.3-.3-.7-.7-.7zm17.3-4.6c-1.3 0-2.3 1-2.3 2.2 0 1.2-.1 2.5-.2 3.7-.3 1.8-.8 3.6-1.2 5.3-.3 1.1-.6 2.3-1 3.4-.4 1.2.2 2.5 1.4 2.9 1.2.4 2.5-.2 2.9-1.4l.1-.3c.5-1.4.8-2.9 1.2-4.3.3-1.2.6-2.4.9-3.7.3-1.9.5-3.8.5-5.6-.1-1.1-1-2.1-2.3-2.2z"/></svg>
