<svg xmlns="http://www.w3.org/2000/svg" viewBox="0 0 1185.8 708.8" enable-background="new 0 0 1185.8 708.8" style="fill:rgba(253, 238, 216, 1.00)"><path d="M363.4 666.1l3.5-19.8h-4.1l-2 11c-1.4 7.7-5.6 11.3-8 11.3-3.6 0-4-3.1-3.2-7.9l1.8-10.2c.5-2.9-.6-5.1-3.2-5.1-1.3 0-3.3 1-4.8 2.5v1.8c.5-.6 2.1-1.7 2.9-1.7 1 0 1 1.3.7 3.1l-1.8 10c-1.1 6.3.3 11 5.3 11 3.2 0 6.3-2.5 8.5-6l-.1.6c-.4 3 .6 5.2 3.2 5.2 1.4 0 3.4-1.1 4.8-2.6v-1.7c-.5.5-2.1 1.6-2.9 1.6-.8-.1-.9-1.4-.6-3.1zm24.6-21c-2.8 0-5.5 2.6-7.4 7.2l.4-1.8c.6-3-.5-5.1-3.1-5.1-1.3 0-3.3 1-4.8 2.5v1.8c.5-.6 2.1-1.7 2.9-1.7 1 0 1 1.3.7 3.1l-3.5 19.8h3.9l1.3-7.1c1.8-10.5 5.4-15.4 7.6-15.4.7 0 .8.5.7 1.5-.2 1.3.7 2.4 2 2.4 2 0 2.9-2.1 3-3 .2-1.8-.5-4.2-3.7-4.2zm152.2 24c-1 0-1.2-1.3-.9-3l1.8-10.1c1.1-6.3-.2-11-5.2-11-3.2 0-6.4 2.4-8.6 6l4.6-25.7-8.8 1.8-.2 1.5c3.7 0 4.1 1.3 2.8 8.6l-5.9 33.4h4.1l1.9-11c1.3-7.7 5.6-11.3 8-11.3 3.5 0 4 3.1 3.2 7.9l-1.8 10.2c-.5 2.9.6 5.2 3.2 5.2 1.4 0 3.4-1.1 4.9-2.6l-.1-1.7c-.5.7-2.2 1.8-3 1.8zm-134.1-24c-5.2 0-11.3 5.7-12.7 13.5-1.3 7.4 1.8 13.5 7.9 13.5 3.2 0 6.9-2.1 9.4-4.9l-.8-1.5c-1.8 1.9-4.8 3.4-6.6 3.4-4 0-5.9-2.9-5.8-7.4 9.1-1.9 13.4-6.6 14.1-10.4.6-3.4-1.6-6.2-5.5-6.2zm1.6 6.4c-.5 2.9-3.7 6.8-10.2 8.3l.2-1.2c1.2-6.6 4.4-10.6 7.8-10.6 1.9 0 2.5 1.6 2.2 3.5zm34.1 9.2l4.1-23.2-12.1 2.4-.3 1.5c5.4-.1 7 .5 5.7 8l-2 11.3c-1.3 7.4-2.4 8.6-7.3 8.6l-.3 1.5h16.3l.3-1.5c-4.9 0-5.7-1.3-4.4-8.6zm79.8-25.7v-8.4h-30.5l-2.9 8.4h1.6c1.7-4 2.7-5.6 9.5-5.6h4.3l-5.5 31.2c-1.3 7.3-2.2 8.6-6.8 8.6l-.3 1.5h15.5l.3-1.5c-4.6 0-5.2-1.3-3.8-8.6l5.5-31.2h4.3c6.8 0 7.2 1.6 7.6 5.6h1.2zm-60.2 29.3c-1.9 0-3.7 1.6-3.9 3.5-.2 1.9 1.3 3.5 3.2 3.5 1.9 0 3.7-1.6 3.9-3.5.2-1.8-1.2-3.5-3.2-3.5zm3.1-18c-1.9 0-3.7 1.6-3.9 3.5-.2 1.9 1.3 3.5 3.2 3.5s3.7-1.6 3.9-3.5c.2-1.9-1.3-3.5-3.2-3.5zm-125-1.2c-1.2 0-3.4.8-4.8 2-1.2-1.3-2.7-2-4.5-2-4.6 0-9.1 4.5-10.1 10-.7 3.8.5 7 2.7 8.7-3.5 1-6.5 3.3-6.9 6-.7 4.2 3.1 6.1 8.8 6.8 5.7.7 9 2.1 8.3 5.8-.6 3.5-5.3 5.7-9.6 5.7-4 0-8.5-1.8-7.9-5.3.2-1.4 1.3-2.9 3.3-4.8l-1.2-.8c-3.6 1.7-5.3 3.9-5.7 5.9-.7 3.9 3.4 7.4 11 7.4 6.8 0 13-3.5 14-9.4.7-4.2-1.8-8.6-11-9.4-2.3-.2-6.2-.9-5.8-2.9.4-1.9 4-3.5 6.6-3.5 4.6 0 9-4.8 9.9-10 .5-2.6.1-5.1-1-6.8.7-.4 1.3-.6 1.6-.6 2.7 0 .4 2.9 3.3 2.9 1.2 0 2.1-1.2 2.2-2.2.3-1.7-.6-3.5-3.2-3.5zm-6.8 10c-.7 4.3-2.7 7.7-5.6 7.7-2.9 0-3.7-3.4-2.9-7.7.7-4.3 2.7-7.7 5.7-7.7 2.8 0 3.5 3.3 2.8 7.7zm-55.2-72.1l4.2-2 1.8-.8.8-.4c.5-.2 1-.5 1.4-.9.4-.3.6-.8.6-1.4 0-1.3-1.6-1.9-2.6-2.3-.6-.2-1.3-.5-2-.7s-1.3-.6-2-.8l-2-.8c-.6-.3-1.4-.6-2.1-.8-.7-.2-1.5-.5-2.3-.7-.8-.2-1.4-.4-2-.6-.7-.2-1.6-.5-2.3-.8l-2.2-.8s-1.4-.5-2.1-.7l-3.9-1.5c-1.3-.5-2.8-1.4-4.2-2s-3.1-1.3-4.6-2l.4.1c-1.5-.7-3-1.4-4.5-2-.7-.3-1.4-.5-2-.8s-1.4-.5-2-.8l-2.9-1.3c-1-.5-2.1-.8-3.2-1.2l-2.5-.9-1.9-.7-1.4-.5-.6-.2-.3-.2c-.3-.2-.7-.4-1-.5h-.8c-.3.1-.6.3-.8.6-.2.3-.2.8-.1 1.1v.1c0 .7.6 1.3 1.4 1.4h.1l1 .7.2.2.4.8s.3.5.5.8c.2.5.3 1 .3 1.5 0 .4 0 .8.1 1.2 0 .4.1 1 .1 1.5v1.5l.1 1.7c.1 1 .4 1.9.6 2.8l.5 1.5.3 1.3.1.8c0 .4.1.7 0 1.1h-1.5l-1.8-.1-3.4-.2h-12c-1.9 0-3.8 0-5.7.1-.4 0-.7.3-.7.7 0 .1 0 .2.1.3-.3.1-.6.4-.8.7-.2.4-.2.8-.2 1.2l.5 3.3.3 1.5s.2.9.3 1.4v.2c0 .2-.1.4-.1.5 0 .3.1.6.2.9.3.5.8.8 1.3.9.7.2 1.5.2 2.2.2h2.3l4.9-.1h4.6s3.2 0 4.8.2l3.2.3.7.1v.1l-.5 2.2c-.3 1.3-.6 2.6-1.1 3.8-.4.9-.9 1.7-1.4 2.5-.8.9-1.6 1.8-2.5 2.5-.1.7-.4 1.3-1 1.7-.2.4-.4.8-.4 1.3v.7l.1.2c.1.2.2.5.4.7.3.3.6.6 1 .7.5.1 1.1.1 1.6-.1l1.7-.6c1.2-.4 2.4-.8 3.5-1.2 1.2-.4 2.5-1.1 3.8-1.7 1-.5 2.1-1 3.1-1.4l2.7-1s2-.8 2.9-1.2c1.5-.6 2.9-1.1 4.4-1.6 1.5-.5 2.9-1.1 4.3-1.6s3-1.2 4.4-1.8c1.4-.7 2.8-1.2 4.1-1.8s2.8-1.3 4.2-2 2.8-1.4 4.2-2 3.4-1.5 4.7-2.1zm116.9-286.7l-.9.9c-.7.8-1.4 1.5-2.2 2.2l-1 .6-.6.2h-.4c-.8-.1-1.6-.2-2.4-.4-.6-.1-1.2-.1-1.8.2-1.1.6-1.4 2-.8 3.1.3.5.8.9 1.4 1 .7.1 1.5.2 2.2.4l1.5.2c.5 0 1 0 1.5-.2l.9-.3c.5-.2.9-.4 1.3-.7.7-.5 1.4-1 2-1.6 1-.9 1.8-1.9 2.7-2.8l.5-.3h.1c.4.1.8.2 1.1.4 1.5.7 2.8 1.5 4.4 2.1 1.6.6 3.2 1 4.8 1.4 1.7.4 3.4.6 5.2.8.8.1 1.6.1 2.4.1.9 0 1.8-.1 2.7-.2.5 0 1-.1 1.4-.4 1.3-.8 1.8-2.5 1-3.8-.4-.6-1-1.1-1.7-1.3-1-.2-2.1-.4-3.1-.3h-2.1c-1.5 0-3.1-.1-4.6-.3-1-.1-1.9-.3-2.9-.5-1.1-.3-2.2-.7-3.3-1.1l-2.3-1c-.7-.3-1.5-.4-2.2-.5h-.6c-.9 0-1.8.2-2.6.7-.4.2-.7.5-1 .8-.2.1-.4.3-.6.6zm-27.4-21.7c0 .3-.1.5-.1.7h-.1c-.4.2-.6.6-.6 1.1 0 .3.1.7.4.9.1.2.3.3.5.4h.7c.6.1 1.3.3 1.9.6.5.2 1 .3 1.6.4l3.4.9c.6.1 1.2.2 1.9.4.2 0 .5.1.7.2.5.2 1.1.3 1.6.4.4.1.9 0 1.3-.2.3-.2.6-.5.8-.8.2-.3.3-.5.4-.8l.2-.5.1-.5c.4-.6.6-1.2.6-1.9l.1-1v-.4c.1-.4.2-.8.2-1.2.2-1.2.5-2.4.8-3.5.3-1.1.7-2.2 1.1-3.4.3-1.1.8-2.4 1.1-3.6s.6-2.3.9-3.4l.4-1.7c.1-.3.1-.6.1-.9 0-.4 0-.7-.2-1.1-.1-.2-.2-.3-.4-.4v-.2c0-.3-.1-.6-.2-.8-.1-.2-.3-.4-.4-.5-.4-.4-.9-.6-1.5-.8-1.1-.4-2.2-.7-3.4-1l-1.6-.4c-.6-.2-1.1-.3-1.7-.4l-1.9-.3h-1.6l-.8.1c-.4 0-.8.1-1.2.3-.4.2-.8.6-1.1 1-.2.3-.4.7-.5 1.1-.1.3-.2.6-.2.8l-.2.9c-.1.6-.2 1.2-.4 1.8l-.3 1.8-.5 3.5c-.2 1.1-.6 2.3-.8 3.5-.1.8-.2 1.7-.4 2.5l-.4 2.5-.3 2.7c.1.3 0 .8 0 1.2zm7-37.5c.3.1.5.3.7.4.4.4.8.7 1.3 1 .4.2.8.5 1.2.6.4.2.8.4 1.3.5l2.1.9c.3.1.6.2.9.2.3.1.6.2 1 .2.7.1 1.3.2 1.9.4.7.2 1.5.4 2.2.5h1.1c.5 0 .9-.2 1.3-.4.5-.4.8-.9 1-1.5.3-.8.5-1.7.7-2.5l.3-2.1c.1-.7.2-1.4.4-2.1l.4-2s.3-1.5.5-2.3c.2-.7.4-1.3.7-2 .2-.6.5-1.3.7-2 .5-1.4 1-2.7 1.3-4.1.4-1.4.8-2.9 1-4.3.6-2.8.9-5.7 1.7-8.4.4-1.3.8-2.7 1-4s.5-2.9.8-4.3c.2-.9.5-1.7.8-2.6.3-.9.5-1.7.7-2.5.2-.5.2-1.1.2-1.6v-.4c0-.4-.1-.7-.3-1-.2-.3-.4-.6-.7-.8l-.3-.2c-.6-.4-1.3-.7-2-.9l-.7-.2c-.5-.1-1-.3-1.4-.4-.8-.4-1.5-.7-2.3-.9-.5-.1-.9-.2-1.4-.2-.8-.1-1.5-.3-2.3-.3l-.9-.1h-.5c-.2 0-.4 0-.5.1-.5.1-1 .4-1.3.8-.3.3-.6.7-.8 1.1-.3.4-.5.9-.7 1.4-.2.6-.4 1.2-.6 1.9l-.6 2.2c-.2.7-.5 1.4-.8 2.1-.3.7-.4 1.4-.6 2s-.3 1.5-.5 2.2l-.6 2.1c-.4 1.4-.8 2.7-1.1 4.1s-.7 2.8-1.1 4.3l-.5 2.1s-.4 1.4-.5 2.1c-.3 1.4-.5 2.8-.7 4.3l-.6 3.9-.3 1.8-.3 2s-.2 1.4-.4 2.1c-.1.7-.3 1.5-.6 2.3-.2.8-.4 1.4-.6 2.1-.5 0-.9.2-1.1.6-.4.6-.2 1.4.4 1.8zm1.5-85.2c.4 0 .7-.1.9-.4l3-2.5.5-.4 1-.6c.7-.3 1.4-.5 2.1-.9.5-.2 1-.5 1.6-.7l2.3-.9 2.3-.9s1.7-.7 2.6-1.1l2.1-1 1.1-.4h.2l.2-.1h-.1.1l-.1.5c-.3 1.3-.5 2.5-.9 3.8-.8 2.8-1.7 5.6-2.4 8.4-.2.6-.3 1.2-.4 1.8-.1.4-.2.9-.2 1.3s-.1.8-.1 1.2c-.1 1.3-.3 2.5-.5 3.8-.2 1.3-.3 2.8-.5 4.2 0 .5-.1.9-.1 1.3l-.4 2.5c-.1.8-.2 1.7-.3 2.6l-.1 1.2v.2l-.1 1.5c0 .6.5 1.1 1.1 1.1.3 0 .5-.1.7-.3h.1c.6.3 1.3.6 1.9.8.6.2 1.2.4 1.7.7l-.3-.1 3.9 1.5c.3.1.6.2.9.2.5 0 1.1-.2 1.5-.6.7-.8 1.1-1.7 1.3-2.8.2-.7.3-1.4.4-2 .2-1.3.4-2.6.7-3.9.3-1.3.7-2.7 1-4.1l.5-1.9.6-2.1c.4-1.3.8-2.7 1.2-4.1l.4-1.8c.1-.6.3-1.4.5-2.1s.4-1.3.6-2c.2-.7.4-1.3.5-2 .6-2.5 1-5 1.3-7.5.9 1.1 1.7 2.1 2.7 3.1 1 1 2.1 2.2 3.1 3.3.5.5.9 1.1 1.3 1.7.4.6.9 1.1 1.4 1.6 1 1.2 2 2.3 3 3.4.4.4.9.7 1.5.9h.6c.4.2.9.3 1.4.3.2 0 .5 0 .7-.1.3-.1.6-.3.9-.6.8-.9.6-2.2.5-3.3 0-1.4-.1-2.8-.2-4.3-.2-3.1-.3-6.2-.7-9.3-.2-1.6-.5-3.2-.8-4.7-.2-.8-.4-1.5-.5-2.2-.2-.8-.3-1.5-.5-2.2-.3-1.5-.6-3.1-1-4.6-.4-1.5-.6-3.1-.8-4.6-.2-1.5-.5-3.1-.7-4.7-.2-1.6-.5-3.2-.7-4.9l-.4-2.1-.3-2.1-.4-2.6c-.1-.7-.3-1.4-.5-2.1l-.3-1.4-.2-1.3-.4-4.3c-.2-1.7-.3-3.4-.5-5-.3-3.1-.2-6.2-.3-9.3 0-1.1 0-2.2-.1-3.3 0-.6 0-1.2-.1-1.8l-.1-1.3c0-.7-.3-1.5-.8-2-.3-.3-.7-.4-1.1-.5-.2 0-.5.1-.7.2-.2.1-.4.3-.6.5-.2.2-.3.4-.4.6l-.3.6-.6 1.1-1.2 2-2.4 4c-.4.6-.8 1.2-1.1 1.9s-.7 1.4-1 2.1l-2.1 4.5c-.7 1.4-1.4 3.1-2.1 4.7l-1.2 2.6s-.8 1.8-1.1 2.7c-.6 1.4-1.2 2.7-2 4l-2.4 4.2c-.3.6-.7 1.2-1.1 1.8-.4.6-1 1.3-1.4 2-.5.7-.9 1.4-1.3 2.1s-.8 1.3-1.1 2l-1.2 2.1c-.4.7-.9 1.3-1.3 1.9-.4.6-.9 1.3-1.2 2-.4.6-.7 1.3-1 1.9-.4.8-.9 1.6-1.3 2.3-.5.8-.8 1.3-1.3 1.9-.4.6-.8 1.3-1.1 2-.3.7-.7 1.4-1.1 2.1s-.6 1.1-1 1.7l-1.2 1.9c-.7 1.1-1.3 2.3-1.9 3.5-.6 1.2-1.2 2.5-1.8 3.8-.3.7-.5 1.4-.8 2.2-.2.7-.5 1.5-.8 2.2-.1.4 0 .9.2 1.2-.2.3-.3.6-.3.9-.1 1.1.5 1.7 1.2 1.7zm662.1 218.4c0 1.4 1.2 2.6 2.6 2.6h8.9c1.3 0 2.6 0 3.8.1l3.6.3s2.4.4 3.5.5h-.1c.3 0 .6.1.9.2 1.5.3 3-.6 3.3-2.1.3-1.1-.2-2.3-1.2-2.9-.4-.2-.8-.4-1.2-.5l-1.5-.3-1.1-.1-2.5-.2c-1.6-.1-3.2-.2-4.9-.2h-11.6c-1.3 0-2.5 1.2-2.5 2.6zm-178-327.1c.6.1 1.3.1 1.9-.3.6-.3 1-.9 1.1-1.5.5-2.8 1-5.6 1.3-8.4.2-2.5.4-5 .4-7.5v-1.3c1.1-.9 2.1-1.9 2.9-3.1 1.1-1.5 2-3.2 2.7-4.9l.9-2.6.5 1.4c.4 1.2.9 2.4 1.4 3.5.5 1.4 1.3 2.8 2.3 3.9.5.5 1.1.8 1.8.9.7.1 1.4-.1 2-.5 1-.8 1.7-1.9 2.2-3.1.3-.5.5-1.1.7-1.7 0 .6.1 1.2.4 1.8.1.3.4.6.7.8.4.3.9.4 1.4.2 1.1-.2 1.6-1.3 2.1-2.2.3-.6.6-1.1.8-1.7.5-1.1 1-2.2 1.5-3.2l.5-.9v.2c-.1 1.7-.2 3.4-.4 5.1-.2.9-.2 1.7 0 2.6.1.5.4.9.7 1.2.4.4.8.6 1.3.8h.1c-.9.6-1.7 1.3-2.5 2-1.5 1.5-2.9 3.1-4.2 4.9-1 1.4-1.8 2.9-2.5 4.5-.6 1.2-1 2.5-1.2 3.8-.2 1-.3 2.1-.4 3.1-.1 1 0 1.9.1 2.9l.2 1.2.3.9-1.1-.3c-1.1-.3-2.2-.8-3.3-1.2l-3.2-1.5c-.4-.2-.9-.3-1.4-.4-.2 0-.4 0-.7.1-1.4.4-2.3 1.9-1.9 3.3.2.6.6 1.2 1.1 1.5-1.8.3-3 2.1-2.7 3.9.1.7.4 1.3.9 1.7 1.8 1.7 3.9 3.3 6 4.5 3.1 1.5 6.6 2.3 10.1 2.4 1.8 0 3.3-1.5 3.3-3.3 0-.6-.2-1.1-.4-1.7-.4-.8-1.2-1.3-2-1.5-1.5-.3-3.1-.4-4.7-.6-.9-.2-1.8-.4-2.7-.7-.6-.3-1.1-.6-1.6-1l-2.3-1.9c1.5.6 3 1.2 4.5 1.7 1.3.4 2.7.7 4.1.9l2 .3c.9.2 1.9.2 2.8.1 1.2 0 2.3-.8 2.6-2 .3-1.1-.1-2.3-1.1-2.9.4-.1.8-.2 1.2-.4.8-.5 1.3-1.2 1.6-2.1.2-.4.3-.8.3-1.2l.2-.5c.6-1.5 1.3-2.9 2.1-4.3.9-1.4 1.8-2.8 2.8-4.2 1.2-1.4 2.6-2.8 4.1-4 1.5-1.1 2.9-2.2 4.4-3.4 1.2-1.1 2.5-2.2 3.6-3.4.4-.3.7-.7 1-1.1 1.1-1.9.5-4.3-1.4-5.4-.6-.3-1.2-.5-1.9-.5-.7-1-1.9-1.6-3.1-1.6-.4 0-.9.1-1.3.2-1.7.6-3.4 1.5-4.9 2.5l-.7.4-.2-.1c-.2-.2-.4-.3-.7-.4-1-.6-2.2-.8-3.4-.7h-.2v-3.9c.1-2.2.1-4.4-.2-6.5-.1-.5-.3-.9-.7-1.3-.5-.4-1.2-.6-1.8-.4-.6.2-1.2.7-1.5 1.3-.2.3-.4.6-.5.9-.5.8-.9 1.7-1.4 2.6s-.9 1.8-1.3 2.7l-.4.9.1-3.3c.1-1.4.2-2.7.2-4.1v-3.3c0-.7-.1-1.4-.4-2 .1-.5-.5-.8-1-.8s-1 .3-1.2.7c-.3.8-.5 1.6-.6 2.4l-.3 2-.7 4.3s-.4 2.8-.7 4.2c-.3 1.3-.6 2.6-1.1 3.8-.3.8-.7 1.5-1.2 2.2l-.2.2-.1-.1c-.4-.6-.8-1.3-1.1-2-.3-.5-.5-1-.8-1.6-.7-2-1.3-4-1.7-6.1-.2-1.1-.4-2.2-.6-3.2-.1-.6-.2-1.1-.4-1.7-.1-.3-.2-.7-.4-1-.2-.4-.5-.8-.8-1-.7-.4-1.7-.2-2.1.6-.2.6-.4 1.2-.4 1.8l-.2 1.4-.5 3c-.2.9-.5 2.1-.7 3.1l-.9 3c-.4 1-1 1.9-1.6 2.8-.3.4-.7.8-1.1 1.1 0-.5-.1-1-.1-1.6l-.2-6.8-.1-3c-.1-1.2-.3-2.5-.5-3.7-.2-1-1.2-1.8-2.3-1.7-1.1.1-1.9 1.2-1.7 2.3-.1 2.5.2 5.1.2 7.6v6.7c0 2.5.2 5 0 7.5s-.4 4.8-.7 7.2c-.3 1.9-.6 3.8-.9 5.6-.2.6-.1 1.3.2 1.9.4.7.9 1.1 1.6 1.3zm-545.4 624.3c-.5.5-2.1 1.6-2.9 1.6-1 0-1.1-1.3-.8-3l2.8-15.7c.5-2.9-.6-5.1-3.2-5.1-1.3 0-3.3 1-4.8 2.5v1.8c.5-.6 2.1-1.7 2.9-1.7 1 0 1 1.3.7 3.1l-2.7 15.6c-.5 2.9.6 5.2 3.2 5.2 1.3 0 3.3-1.1 4.8-2.6v-1.7zm-138.5-129.3c.4-.2.7-.4 1-.7.3-.4.5-.8.5-1.3v-4.6c-.1-1.9-.3-3.7-.8-5.6l-.7-2.7-.4-1.3-.5-1.2c-.2-.5-.4-1.1-.5-1.7-.2-.6-.3-1.2-.5-1.7s-.3-1.2-.4-1.9l-.2-.9c-.1-.4-.3-.7-.5-1-.3-.4-.8-.6-1.4-.5h-.4l-3.4.4c-1.2.2-2.4.3-3.7.4-1 .1-1.9.2-2.9.4-.8.1-1.6.3-2.3.6-.7.2-1.4.5-2.2.8-.2.1-.4.2-.5.4-.1.2-.2.4-.1.7.1.3.3.5.6.6 0 .3 0 .7.1 1l.2.8.5 1.6c.2.5.4 1.1.5 1.6l.3 1.8s.3 1.1.4 1.7.2 1.3.4 1.9c.2 1.1.6 2.2 1 3.4.2.8.5 1.6.8 2.4l1 2.4c.3.6.5 1.3.7 1.9.2.6.5 1.4.7 2.1l.4 1c.2.5.4 1.1.7 1.6.3.5.7.9 1.3 1.1.6.2 1.2 0 1.8-.3.4-.2.7-.5 1-.8 1.8-1.4 3.8-2.5 5.9-3.4.5-.4 1.1-.7 1.6-1zm138.6 93.7c-1.4 0-2.7 1.2-2.9 2.6-.1 1.4.9 2.6 2.3 2.6s2.7-1.2 2.9-2.6c.1-1.4-.9-2.6-2.3-2.6zm-6-86.1l-.4-.2-.4-.2c-.3-.1-.5-.2-.8-.2h-.1c-.5 0-1 .2-1.4.4-.4.3-.8.7-1.1 1.2-.4.6-.8 1.1-1.2 1.8-.7 1.2-1.4 2.5-2 3.8-.3.6-.7 1.2-1.1 1.7-.4.6-.8 1.2-1.2 1.7l-1.2 1.5s-.9 1.2-1.3 1.8l-.8.8-1.1 1.1c-.7.7-1.5 1.4-1.1 2.5.1.2.2.5.4.7l.4.6c.3.3.6.6.9.8.4.2.8.4 1.3.4.3 0 .5 0 .8-.1l.2-.1c.3.1.6.1.9 0 .3-.1.6-.2.9-.5l1-.8c.5-.4 1-.8 1.4-1.3.5-.5.9-.9 1.3-1.4l.5-.5 1.8-1.8 3-3 .4-.4c.4-.3.8-.7 1.1-1.1.4-.4.8-.8 1.1-1.3l.4-.5.1-.2c.3-.3.6-.7.8-1 .4-.5.7-1.1.8-1.7 0-.3-.1-.7-.2-1l-.3-.5-.7-.9-.6-.6c-.1-.1-.2-.3-.4-.4-.3-.3-.7-.5-1.2-.6h-.3l-.6-.5zm6.9-33c-.1.4-.2.7-.4 1.1l-.7 1.5s-.6 1.3-.9 2c-.5 1.2-1 2.3-1.3 3.5-.4 1.2-.6 2.3-.9 3.4-.3 1.2-.6 2.4-.9 3.7-.2.8-.4 1.7-.5 2.6l-.4 2.4c-.1.5-.2.9-.2 1.4 0 .6.3 1.2.7 1.6.3.3.7.5 1.1.6l1.2.5 1.1.3c.5.2 1 .5 1.6.7l.7.2c.2.1.5.1.8.1.2 0 .4 0 .5-.1.2-.1.5-.2.7-.4l.5-.5.3-.6.4-.9c.2-.6.5-1.1.8-1.7s.5-1.1.8-1.7c.3-.6.5-1.2.7-1.9.2-.6.3-1.2.4-1.8l.4-1.7c.2-1.2.6-2.3 1-3.4.5-1 1.1-1.9 1.7-2.9l.8-1.6.8-1.6c.5-1.2 1-2.3 1.3-3.6.3-1.2.5-2.3.9-3.5l.3-.7-.1.2.1-.3v-.1l.4-.2c.4-.1.7-.4.8-.8.1-.3 0-.6-.1-.9-.2-.3-.4-.5-.7-.5-.9-.4-1.9-.8-2.8-1.1-.8-.3-1.6-.5-2.4-.6l-1.5-.3-2.5-.5-1.6-.3c-.2 0-.5-.1-.8-.1h-.3c0-.1-.1-.2-.1-.2-.2-.2-.4-.3-.7-.3-.4 0-.8.3-.9.7-.5.5-.5 1.3 0 1.8l.2.1c.1.7.1 1.4.1 2.1.1 1.1 0 2.2-.1 3.4-.2.3-.2.6-.3.9zm-89.5 80.6l.3-.2-.3.2zm-23.9-26.4l-.3-.4-.5-.6c-.4-.5-.8-.9-1.3-1.4-.4-.4-.9-.8-1.4-1.2-.4-.4-.8-.8-1.3-1.1-.6-.4-1.1-.9-1.7-1.2-.5-.3-1.1-.6-1.6-1l-1.2-1.1c-.4-.4-.9-.7-1.3-1l-.8-.6-.9-.9c-.3-.3-.6-.6-.9-.8l-.9-.8c-.3-.3-.6-.6-.9-.8l-.9-.9-1.5-1.8c-.3-.4-.6-.9-1-1.3s-.6-.7-.9-1l-.3-.4c.1-.2.1-.3.1-.5 0-.3-.1-.5-.2-.7l.1-.1c.3-.4.3-1 0-1.3-.2-.2-.4-.3-.6-.3-.3 0-.5.1-.7.3-.5.5-1.1.9-1.7 1.4-.8.6-1.7 1.2-2.5 1.9-.8.6-1.8 1.4-2.7 2.1l-2.8 2.1c-.3.2-.6.4-.9.7-.7.7-.4 1.6 0 2.3l.7 1c.2.3.4.6.7.9.4.5.8 1 1.3 1.4.4.4.9.8 1.4 1.2.9.9 1.8 1.9 2.8 2.9.4.4.8.8 1.1 1.2.4.4.8.9 1.1 1.4.7.9 1.4 1.7 2 2.5.3.4.7.9 1.1 1.3l1.2 1.1s.8.8 1.2 1.1c.4.3.9.8 1.4 1.1.5.4.9.7 1.3 1.1s.9.8 1.4 1.2.9.9 1.3 1.4l1.3 1.3c.5.7 1.3 1.2 2 1.5 1.1.3 1.9-.8 2.6-1.4.4-.4.8-.8 1.1-1.2.4-.4.9-1.1 1.3-1.6.4-.6.7-1 1-1.5s.6-.9 1-1.3.6-.7 1-1.1c.3-.3.7-.7 1-1.1.2-.4.4-.8.4-1.3s-.1-.9-.3-1.3c-.5-.8-.7-1.1-.9-1.4zm359.3 78.1c-5.2 0-11.3 5.7-12.7 13.5-1.3 7.4 1.8 13.5 7.9 13.5 3.2 0 6.9-2.1 9.4-4.9l-.8-1.5c-1.8 1.9-4.8 3.4-6.6 3.4-4 0-5.9-2.9-5.8-7.4 9.1-1.9 13.4-6.6 14.1-10.4.6-3.4-1.6-6.2-5.5-6.2zm1.6 6.4c-.5 2.9-3.7 6.8-10.2 8.3l.2-1.2c1.2-6.6 4.4-10.6 7.8-10.6 1.9 0 2.5 1.6 2.2 3.5zm-256.8-15.1l1.2-9.7h-26.5l-.3 1.5c4.6 0 5.3 1.3 4 8.5l-4.3 23.9c-1.3 7.3-2.3 8.6-6.9 8.6l-.3 1.5h15.5l.3-1.5c-4.6 0-5.2-1.3-3.8-8.6l2.1-11.9h2.7c5.5 0 6.3.9 5.2 7.1h1.2l2.9-16.9h-1.2c-1.1 6.2-2.1 7.1-7.7 7.1h-2.7l2.9-16.7h9c5.2 0 5.5 1.6 5.5 5.5v1.5h1.2zm-130.8-430.7c.3.5.9.9 1.5 1 .4.3.7.7 1 1s.9.8 1.3 1.2c1 1 2 1.8 3.1 2.6.4.2.7.3 1.1.4.4.1.9.1 1.4 0 .5-.2 1-.4 1.5-.7l1.7-1.3 2.6-2.2c.9-.7 1.7-1.3 2.5-2l2.3-2.3 2.4-2.3c.2-.2.4-.4.5-.7.1-.3.2-.6.2-.9 0-.3-.1-.6-.2-.9l-.1-.3c-.3-1-.8-1.9-1.6-2.7-1-1.1-2.2-2.1-3.4-2.9-.7-.7-1.6-1.1-2.5-1.1h-.1c-.5 0-1.1.2-1.5.4-.5.1-.9.2-1.3.4-.4 0-.8.1-1.2.3-.7.4-1.3.8-1.8 1.4-.9.7-1.7 1.4-2.5 2.1-.6-.3-1.4-.2-1.8.3l-3.7 3.7-1.6 1.7c-.4.4-.6.8-.8 1.3l-.1.7c0 .3.1.6.2.8.2.5.5.8.9 1zm19.6-6.7l.2.4-.4.3-.1-.5v-.5l.3.3zm867 264l-5.1-.3c-.4-.7-1.2-1.3-2-1.5-1.2-.2-2.4-.5-3.6-.9-.9-.3-1.7-.6-2.5-.9-.8-.3-1.7-.9-2.6-1.4l-2.6-1.5c-.8-.5-1.8-1.2-2.6-1.9 1.6-.3 3.2-.8 4.8-1.2 1.8-.6 3.6-1.3 5.4-2.1l1.8-.8.8-.4c1.7-1 2.3-3.1 1.3-4.8-.3-.5-.7-1-1.3-1.3-.6-.3-1.2-.5-1.9-.5-.3 0-.6 0-.9.2l-7.5 3.1c-1.2.5-2.5.9-3.7 1.2-1.1.2-2.2.4-3.2.6l-1.1.1-.3-1-.2-1v-.9l1.3-.2c2.6-.5 5.1-1.1 7.6-2 2.8-1 5.4-2.2 8-3.6l3.5-2.1c1.3-.8 1.8-2.6 1-3.9-.5-.9-1.5-1.4-2.5-1.4-.5 0-1 .1-1.4.4-1.9 1.2-3.7 2.3-5.7 3.4-1.6.9-3.3 1.8-5.1 2.5-.9.4-1.8.7-2.7 1-1.1.3-2.2.6-3.4.9-2.1.5-4.2.9-6.3 1.2-.9.1-1.8.2-2.7.2-.5-.4-1-.6-1.6-.8-2.1-.8-4.5-.7-6.7-.8-1 0-2 0-3 .1-.7.1-1.5.1-2.2 0-.4-.1-.8-.2-1.2-.4l-3.5-2c-1.1-.5-2.3-.8-3.5-1l-1.8-.3c-2.4-.4-4.8-1-7.1-1.7-1.5-.4-3-.6-4.5-.6-1.7-.1-3.4.1-5.1.6-1.2.4-2.4.9-3.5 1.5-1.1.7-2.2 1.4-3.1 2.3l-.9.6c-1.5.1-3 0-4.5-.2s-2.9-.5-4.3-.9c-1.1-.5-2.3-1-3.4-1.6l-2.5-1.3c-1.7-.7-3.4-1.2-5.2-1.3-.5-.1-.9-.1-1.4-.1-1.8 0-3.5.4-5.2 1.1-1.4.6-2.9 1-4.4 1.3-1.2.1-2.4.1-3.6.1l-5 .1c-3.2 0-6.4-.5-9.7-.8s-6.5-.2-9.8-.2l-3.1.1-.4-.9-1.5-3.4c3.8-.1 7.7 0 11.5 0 3.1 0 6.2-.2 9.4-.1 1.5 0 3 .1 4.6.1 1.7-.1 3.4-.4 5.1-.9l1.9-.4c2.5-.3 5.1-.5 7.7-.4 1.4 0 2.8.1 4.2.2 1.1.1 2.3.2 3.5.3l3.9.6c1.6.3 3.1.5 4.7.5l4-.3c1 0 2-.3 2.8-.8.7-.5 1.3-1.2 1.7-1.9.5-.9.9-1.9 1.2-2.9l-.2.5.4-1c.3 1.1 1 2.1 1.9 2.8 2.2 1.5 4.4 0 6.6-.6h.1c1.2.5 2.4 1 3.6 1.4 1.4.4 2.8.6 4.2.7l6.7.5c1.1.2 2.2.4 3.2.6 1.5.3 3.1.5 4.7.7 1.2 0 2.5 0 3.7-.1l4.3-.3c1.2-.1 2.5-.2 3.7-.4 1.4-.1 2.7-.2 4.1-.2 2.7 0 5.4.1 8.2 0 1.5 0 2.7-1.2 2.6-2.7 0-1.2-.8-2.2-1.9-2.5-2.2-.4-4.4-.6-6.7-.6-2.2-.1-4.3-.1-6.5 0s-4.2.1-6.2.1h-3c-.8 0-1.6-.1-2.4-.2-1.2-.2-2.5-.5-3.7-.9-1.6-.5-3.2-.8-4.8-1l-3.5-.3c-1.2-.1-2.3-.2-3.4-.3-1.6-.3-3.1-.7-4.6-1.3l-1.2-.4c-.9-.2-1.9-.2-2.8 0-.5.1-1 .2-1.5.4l-.7.2-.8-1.5c-.6-1.1-1.6-1.9-2.8-2.2l-.8-.1c-.5 0-1 .1-1.5.4l-.8.6c-.3.3-.6.7-.8 1.1-.6 1.3-1.1 2.6-1.4 4l-1.1 3.1c-.1.2-.2.5-.4.7l-.1.1h-.3c-1.1.1-2.2.2-3.2.4-.8.1-1.6.4-2.5.6-1.3 0-2.6-.1-3.9-.3h-.2c-1.1-.2-2.3-.4-3.4-.5l-3.3-.3s-1.9-.4-2.8-.6l-3.3-.8c-1.1-.2-2.4-.4-3.6-.5l-2.7-.2c-1.3-.3-2.5-.6-3.8-1-.7-.2-1.4-.3-2.1-.4-1-.2-2.1-.3-3.1-.4-1.5-.2-3.1-.3-4.7-.4h-14.200000000000001c-2.7 0-5.4 0-8.2.1l-1.6-3.7c3-.2 6-.4 9-.4l9.9-.1c3.3 0 6.5.2 9.8.3 2.5.1 5 .1 7.5.3 2.5.2 5.2.4 7.7.7l7.7.9c.7.1 1.4.1 2.1.1 1 0 1.9-.3 2.7-.8.4-.3.8-.6 1.1-.9.4-.5.8-1 1-1.7.4-1.2.6-2.6.4-3.9l-.1-1c1.5-.5 3.1-.8 4.6-1 5-.6 9.9-1.1 14.9-1.2 1.3 0 2.5-.1 3.8-.2 1.2 0 2.5 0 3.7.2 1.3.1 2.7.2 4 .4 1.3.1 2.4.1 3.6.2.7.1 1.3.2 2 .4l.7.4.9.9.6.7c.9.9 1.9 1.6 3 2.1.5.2 1 .4 1.5.5.4.1.9.1 1.3.1h1.6l2.1-.1c3.2-.1 6.4-.2 9.6-.4 3-.1 6.1-.1 9.1.1l4.6.4c1.5.1 3.2.2 4.8.3 2.4.1 4.8.2 7.1.4l3.3.4c1.1.1 2.5.2 3.7.4 1 0 1.9-.7 2.2-1.7.3-1.2-.4-2.5-1.6-2.8-3.3-.8-6.6-1.3-9.9-1.5-1.7-.1-3.4-.2-5.1-.2-1.7-.1-3.2-.2-4.8-.3s-3-.3-4.5-.5l-4.8-.3c-3.1-.1-6.2.1-9.3.2-1.3.1-2.7.1-4 .1l-2 .1-2.4.1-.3-.1c-.2-.1-.4-.2-.5-.3-.4-.3-.7-.7-1.1-1.1-.5-.7-1.1-1.4-1.8-2-.5-.4-1.1-.8-1.7-1.1-.7-.3-1.4-.5-2.1-.6-1.6-.3-3.2-.4-4.8-.4-1.5 0-3-.1-4.4-.1l-3.2-.1h-1c-.7 0-1.5.1-2.2.2l-2.3.1c-1.5 0-3 .1-4.4.2-2.9.1-5.9.5-8.8.7-2 .1-4.1.4-6.1.8-.9.2-1.8.5-2.7.8-1.2.5-2.2 1.5-2.6 2.8-.2 1.2-.3 2.5-.2 3.7l-2.4-.4c-1.3-.2-2.6-.4-3.9-.5-1.6-.2-3.2-.5-4.9-.7-1.6-.2-3.2-.3-4.8-.4-1.6-.2-3-.3-4.5-.4l-4.8-.2c-3.2-.2-6.4-.5-9.6-.5-3.2 0-6.3 0-9.5.1s-6.1.4-9.1.6l-2.3.2-1.2-2.3c-.6-1.1-1-2.3-1.7-3.4l-1.8-3.3-.6-1.3.2.5-1.9-5.2c-.8-2.1-1.7-4.1-2.6-6.1-.4-.9-.8-1.9-1.3-2.8.5-.4.8-1 1-1.6.2-.9.3-1.8.4-2.7l.2-1.3.8-5.6c.2-1.4.4-2.8.5-4.2.1-1 .1-2 .2-3.1.2-4.3.4-8.7.9-13l1.5-10.5c.5-3.6.8-7.2 1.2-10.8.3-3.3.3-6.5.5-9.8.1-2.5.2-4.9.3-7.3l.9-4.3c.6-3.5 1.2-7 1.7-10.5l1.6-10.6c.5-3.5 1.2-7 1.7-10.6 1.1-7.4 1.7-14.9 1.8-22.4.1-3.7.2-7.4.3-11.2.2-3.6.2-7.1.5-10.7.2-3.4.4-6.8.7-10.2l.2-3h1.2c2.3-.1 4.6-.2 6.9-.2l14.5-.6c2.3-.1 4.6-.3 6.9-.5l10-.1c4.6 0 9.2.4 13.9.4h14.6c2.3 0 4.6 0 6.9-.1l7.4-.3s4.8-.2 7.1-.2 4.6.1 6.9.1c2.3 0 4.8 0 7.3-.2s4.7-.2 7-.4l4.3-.3c1.4-.1 2.7-.3 4.1-.5.9 0 1.9 0 2.8-.1.5 0 1.1 0 1.6-.1.5 0 1.1-.1 1.6-.2.2 0 .4-.1.6-.2l1.5-.1c1.4.1 2.6-1 2.7-2.4.1-1.2-.8-2.4-2-2.6-1-.3-2.1-.5-3.2-.5h-.4c-1.3.1-2.5.2-3.8.4-1.8.3-3.7.7-5.5.9l-.9.1c-1.2 0-2.5-.1-3.8-.2-2.2-.1-4.5-.3-6.8-.3h-7.1s-4.8.2-7.2.2-4.9-.1-7.4-.2-4.7-.2-7.1-.3c-2.4-.1-4.5-.2-6.8-.3-2.5 0-5 0-7.4.1h-6.7c-2.5 0-5.1.2-7.6.4-2.3.2-4.6.5-6.9.8l-9.5.1c-9.8.1-19.6.1-29.4.9v-.9c.1-1.7.1-3.4.2-5.2.1-1.7.2-3.5.2-5.2 0-1.9-.1-3.7-.4-5.6-.5-2.5-1.6-4.9-3.3-6.8l-.1-.1c-.5-.9-1.1-1.8-1.8-2.6-1.3-1.5-2.7-2.7-4.4-3.8-3.2-2.1-7-2.8-10.8-3.2-.9-.1-1.8-.2-2.7-.2-2.6 0-5.3.4-7.8 1-4.3 1-7.8 3.7-11.1 6.6l-1.4 1.3-.3.3.4-3.3c.8-5.8 1.9-11.6 2.9-17.4.5-3.2 1.1-6.4 1.4-9.7l.9-9.3c.2-2.9.6-5.9.9-8.8s.6-5.9.9-8.8l.2-1.8v-.1c.3-2.6.6-5.2 1-7.8.6-4.3 1.1-8.6 1.7-13l-.2 1.2c.6-4.2 1-8.5 1.5-12.7.3-2.4.8-4.8 1.1-7.1.4-2.8.6-5.6.9-8.3.3-2 .5-4 .7-6 1.7-1 1.7-1.9 1.7-2.9v-1.2l.1-1v-.1c.2-.7.1-1.5-.3-2.1h.3c.6 0 1.2-.2 1.6-.7.4-.4.7-1 .7-1.6 0-1.1-.8-2.1-2-2.3.1-.2.1-.5.1-.8l-.1-.8c1.6 0 2.8-1.3 2.8-2.9 0-.7-.3-1.4-.8-1.9s-1.3-.8-2-.8c-.8-.1-1.6-.1-2.5-.2-1.1-.2-2.2-.5-3.2-.8-.8-.4-1.6-.9-2.4-1.4-.8-.5-1.8-1.1-2.8-1.7l-2.5-1.5-2.1-1.5c-1.2-1-2.5-2-3.6-3l-1.9-1.7c-.9-.8-1.9-1.5-2.9-2.2-.4-.3-.9-.4-1.3-.4-.3 0-.5 0-.8.1-1.5.4-2.3 1.9-1.9 3.4.2.7.7 1.3 1.3 1.6l1 .8c1.7 1.3 3.3 2.8 5 4.2 1.9 1.6 3.9 3 6 4.3 1.1.6 2.1 1.2 3.2 1.9l.4.2-.7-.3c-1-.4-2-.9-2.9-1.4-1.1-.6-2.1-1.3-3.1-2-2-1.4-4-2.7-5.9-4.2-1.2-1-2.4-2-3.5-3.1-.4-.3-.8-.5-1.3-.5s-.9.2-1.2.5c-.7.7-.7 1.9 0 2.6 3.2 2.9 6.6 5.7 10 8.4-.2 0-.3 0-.5.1-.5.1-.9.5-1.2.9-.3.4-.3 1-.2 1.5.1.5.5.9.9 1.1 1.4 1.1 3 2.1 4.5 3 1.6.8 3.3 1.5 5.1 2 .7.2 1.3.3 2 .4-1.3 0-2.7 0-4-.2l-3-.2c-1.2-.2-2.4-.5-3.6-1l-3.4-1.1c-.3-.1-.6-.3-.8-.5-1.5-1.2-3-2.5-4.4-3.8l-1.1-1c-.4-.4-1-.8-1.6-1-.3-.1-.5-.2-.8-.1-.5 0-1 .1-1.5.4-.9.6-1.4 1.5-1.4 2.5-.1.7-.2 1.3-.2 2-.2 1.5-.6 2.9-.7 4.3-.1 1.3-.2 2.5-.4 3.8l-.9 5.5-1 6.6c-.6 4.3-1 8.6-1.5 12.9-.3 1.8-.6 3.6-1 5.4-.4 2-.7 4-1 6l-.9 6.4c-.2 1.8-.4 3.6-.6 5.3-.4 2.9-.8 5.7-1.3 8.6-.5 3.4-1.1 6.8-1.6 10.3v-.4c-.4 2.5-.8 5.1-1.3 7.5-.5 2.6-.9 5.6-1.2 8.5-.3 2.1-.6 4.1-.8 6.2-.4 3-.9 6-1.4 9-.3 1.5-.6 3-.9 4.6-.3 1.5-.8 3-1.1 4.6l-.8 4.5s-.5 3.1-.8 4.6c-.6 3.3-.8 6.6-1.2 9.9l-.6 6.6s-.7 4.5-1 6.8l-2.3-6.4c-1.5-4.1-3.1-8.1-5-12-1.9-3.8-4.3-7.3-7.1-10.5-1.3-1.5-2.7-3-4.2-4.3-.9-.8-1.8-1.5-2.8-2.2-1.4-1.1-2.9-1.9-4.6-2.4-1.3-.3-2.6-.5-3.9-.5-1.3 0-2.5.1-3.7.3-1.9.2-3.7.6-5.5 1.1-1.1.4-2.2.9-3.3 1.4l-1 .5c-1.2.6-2.2 1.3-3.2 2.2-.7.6-1.4 1.1-2 1.7s-1.4 1.3-2.1 2c-.7.7-1.3 1.2-1.8 1.9-.9 1-1.6 2-2.4 3-1.2 1.6-2.2 3.4-3 5.3-.9 2.1-1.7 4.4-2.2 6.6-.6 2-1 4-1.4 6.1-.3 2.2-.3 4.4.2 6.5l.7 2.3.9 3 .1.2h-1.2c-1.6 0-3.3-.1-4.9-.3l-2.7-.4c-.8-.1-1.7-.1-2.5 0-1.6.1-3.2.2-4.9.2-3.5 0-6.9 0-10.4.1-7 .2-14.1-.2-21.1-.6-3-.2-6-.3-9-.4l-5.2-.1c-1.2 0-2.3 0-3.5.1-6.1.4-12.2 1.2-18.3 2.1-1.6.2-3.2.4-4.8.5-1.9.1-3.8.2-5.6.2-3.6 0-7.1-.3-10.7-.6l-11.1-.6c-3.7-.2-7.4-.2-11.1-.2-2.2 0-4.3 0-6.5.2s-4.1.5-6.1.8c-.3 0-.6 0-.9.1-3.3.4-6.6.6-9.9.8-3.3.2-6.8.4-10.2.5-3.7.2-7.3.5-10.9.8h-.5v-.2l-.6-2.4c-.2-.8-.5-1.6-.8-2.4-.7-2.1-1.6-4.1-2.8-6-1.9-3-4.1-6-6.4-8.8-1-1.4-1.9-2.9-2.8-4.3-.8-1.1-1.6-2.2-2.5-3.2-.9-.9-1.9-1.8-3-2.6-1.4-1.1-2.9-2-4.5-2.9l-4.8-2.9s-3-1.9-4.5-2.7c-1.9-.9-3.9-1.6-6-2.1-1.9-.5-3.8-.8-5.7-1.2-1.7-.4-3.4-.9-5-1.4-.7-.3-1.4-.6-2.1-.8-.7-.2-1.7-.5-2.5-.8l-5.1-1.5c-1.5-.4-3.1-.6-4.7-.6l-3.1.1c-2.2.1-4.3.4-6.4.9-1.9.5-3.9 1-5.8 1.6s-3.8 1.4-5.6 2.2c-1.9.7-4 1.7-5.9 2.5-1.9.9-3.7 1.6-5.5 2.6-1.7.9-3.4 1.9-5.1 2.9-1.5 1.1-3 2.2-4.5 3.4-1.1.8-2.1 1.6-3.1 2.5l-2.2 2c-1.4 1.3-2.7 2.6-4 4-2.8 3.2-5.4 6.6-7.8 10.2-2.2 3.3-4.1 6.7-6.1 10.1-.9 1.5-1.7 3.1-2.5 4.7-.7-.1-1.4-.2-2.1-.1-.5 0-1 .1-1.5.2-1 .1-2.1.2-3.1.1l-3.5-.1c-1.2-.1-2.3 0-3.5 0-2.1.2-4.2.2-6.3.2-2.2-.1-4.4-.3-6.7-.6-3-.5-6-.7-9-.8h-.2c-1.5 0-3 .1-4.5.2s-3.2.1-4.9.1c-1.6 0-3 .1-4.5.3-1.5.2-3.1.4-4.7.5l-4.7.2-5 .2h-.6c-1.8 0-3.3 1.5-3.3 3.3 0 1.8 1.5 3.3 3.3 3.3l6.6-.3c2.2-.1 4.4-.4 6.6-.7l3.8-.5c1.6-.2 3.2-.3 4.8-.3h9.4c3 .1 6 .5 9 .8 3.1.3 6.1.3 9.2.1 2.5-.1 5-.1 7.5.1 1.6.1 3.3.2 4.9.1-.9 2-1.8 3.9-2.6 5.9-.8 1.8-1.4 3.7-2.1 5.6-1.4 3.5-2.6 7.1-3.6 10.8-1 3.8-2 7.7-3.1 11.5l-1.5 5.5c-.5 1.8-.9 3.9-1.5 5.8-1.1 3.9-2.3 7.7-3.6 11.5s-2.4 7.6-3.4 11.5c-1 3.9-1.7 7.6-2.7 11.4-1 3.8-2 7.7-3.1 11.5-.6 2-1.2 4-1.9 6-.6 1.8-1.1 3.7-1.6 5.6-1 3.8-2.1 7.6-3.2 11.5-1.1 3.9-2 7.8-3.2 11.8-1.2 3.9-2.2 7.6-3.2 11.4l-1.6 5.5c-.5 1.9-.9 3.9-1.3 5.8-.8 4-1.3 8.1-1.8 12.2l-.6 6.3c-2-3.7-4-7.3-6.1-10.9l-3.2-5.5c-1.2-2-2.4-4-3.7-5.9l-1.2-1.9c-.8-1.8-1.7-3.5-2.5-5.2-.8-1.8-1.6-3.4-2.5-5s-1.9-3.4-2.9-5c-2-3.3-3.9-6.5-5.8-9.8-1-1.6-1.8-3.3-2.8-5-.9-1.7-1.9-3.2-2.9-4.8-2-3.4-3.6-6.9-5.3-10.5-1.7-3.5-3.3-6.9-4.8-10.3l.3-.2c.2-.2.3-.5.3-.8v-.6l.9-7c.2-1.2.4-2.4.7-3.6l1-4c.3-1.3.5-2.4.8-3.6.1-.6.2-1.2.4-1.9.1-.6.3-1.4.5-2.1s.4-1.5.5-2.2c.1-.8.3-1.7.5-2.6.2-.8.3-1.5.4-2.2.2-.7.2-1.4 0-2.1-.2-.4-.5-.6-.9-.8-.3-.1-.5-.1-.8-.1h-.2c-.1-.1-.2-.1-.4-.2-.3-.1-.6-.1-.9 0-.2 0-.4 0-.6.1l-.9.2c-.9.1-1.7.1-2.6 0l-2.7-.3-1.5-.3-.8-.2-.6-.2-1.1-.2c-.3-.1-.5-.1-.8-.1-.5 0-.9.3-1.2.7-.2.4-.4.8-.4 1.2l-.3 1.7-.3 1.8c-.1.8-.2 1.6-.2 2.4 0 .6-.1 1.2-.1 1.9s-.1 1.3-.1 1.9c0 .3 0 .6-.1 1l-1.8-3.3-3-5.1c-1.9-3.3-3.6-6.7-5.4-10-1.8-3.4-3.4-6.8-5.2-10.1-1.8-3.3-3.6-6.8-5.3-10.2-1.6-3.2-3.1-6.4-4.8-9.6-.9-1.6-1.8-3.3-2.6-5-.8-1.7-1.6-3.4-2.5-5l-2.4-4.2c.9-.2 1.7-.3 2.6-.4 2.7-.2 5.4-.2 8 0l4 .3s2.8.1 4.2.1l7.9-.1 4.2.2c.7 0 1.4.1 2.2.1 1.1 0 2.2-.2 3.3-.3 1.9-.5 3-2.5 2.4-4.3-.2-.6-.5-1.1-.9-1.5-.7-.7-1.6-1-2.5-1-1.8.2-3.7.2-5.5.3-1.8.1-3.5 0-5.2-.1-3.3-.2-6.6-.1-9.9-.5-1.7-.2-3.4-.5-5.2-.5h-2.4s-1.8 0-2.7.1c-2 .1-4 .4-6 .8-.8.2-1.5.3-2.2.5l-.3.1-2.4-3.6c-1-1.6-2-3.1-3.1-4.7-2.1-3.2-4.2-6.5-6.2-9.8-2-3.3-4.2-6.3-6.2-9.5-1-1.6-2-3.3-3.1-4.9-1.2-1.8-2.4-3.6-3.8-5.3-1.8-2.3-3.7-4.6-5.7-6.8-1.9-2.2-4-4.3-6.1-6.2-1.8-1.6-3.7-3.1-5.7-4.5-1-1-2.1-2.1-3.2-3.1-1.7-1.6-3.6-3.1-5.5-4.6-2-1.5-4.1-2.8-6.3-4h.2c-1.2-1.1-2.3-2.2-3.4-3.3-.9-.9-2.4-1.1-3.5-.4l-.2-.1c-.7-.4-1.4-.5-2.2-.6-.4 0-.7 0-1.1.1-2.2.6-3.5 2.9-2.9 5.1.3 1 1 1.9 1.9 2.5 1.2.8 2.3 1.8 3.5 2.5 1.2.8 2.3 1.3 3.4 1.9 2 1.1 3.9 2.3 5.8 3.6l3.7 3s2.3 2.3 3.5 3.4c1.2 1.1 2.5 2.4 3.7 3.7 1 1.1 2 2.2 2.9 3.4 2.4 3.2 4.6 6.6 6.9 9.9 1.2 1.7 2.4 3.4 3.5 5.2s2.4 3.8 3.5 5.7c2.2 3.6 4.3 7.2 6.4 10.9 2.2 3.6 4.2 7.2 6.1 10.9l3.1 6s2.1 3.9 3.1 5.8c1 2 1.8 3.9 2.8 5.8.9 1.9 2 3.8 3 5.8 1 1.9 2.2 4.1 3.2 6.2s2.2 3.9 3.2 5.9c2.1 3.9 4 8 5.9 12s4.3 7.7 6.5 11.4c1 1.7 2.1 3.4 3.2 5.2.8 1.3 1.5 2.6 2.3 4l2.8 5.2c2.1 4 3.9 8.2 5.9 12.2 1.9 3.8 3.9 7.5 6 11.1s3.9 7.1 5.9 10.7l2.7 5.3c.9 2 1.9 3.9 2.9 5.9 1.9 3.7 3.5 7.5 5.6 11.1 2.1 3.6 4.1 7.2 6.3 10.7 1.1 1.8 2.2 3.7 3.2 5.5 1 1.9 2 3.5 3.1 5.1 2.3 3.5 4.4 7.1 6.3 10.9.9 1.8 1.8 3.7 2.8 5.5 1 1.8 2.3 3.8 3.5 5.7 2.3 3.6 4.5 7.2 6.6 10.9 2.1 3.7 4.3 7.1 6.3 10.8 2 3.6 4.4 7.4 6.8 11 2.5 3.9 5.1 7.8 7.5 11.7 2.3 3.6 4.9 7 7.4 10.5 2.7 3.8 5.3 7.6 8.3 11.2 2.8 3.4 5.6 6.6 8.5 9.9l.6.7c2.7 3.5 5.4 7 8.4 10.2 1.6 1.7 3.2 3.5 4.8 5.3 1.5 1.8 3 3.5 4.5 5.1 3 3.2 6.2 6.2 9.4 9.2 1.7 1.7 3.4 3.3 5.3 4.8s3.7 3 5.6 4.4c1.9 1.5 3.9 2.9 5.9 4.3 1.8 1.2 3.7 2.3 5.7 3.3 2.2 1.1 4.4 2.1 6.7 2.9 1 .4 1.9.7 2.9 1 2.7.9 5.4 1.5 8.2 1.9.8.2 1.7.2 2.6-.1 1 .3 2.1.4 3.2.4h.5c1 .2 2.1.3 3.2.4 1.7.1 3.3.1 5-.1 2.1-.3 4.2-.8 6.2-1.4 1.9-.6 3.8-1.4 5.6-2.3 1.6-.8 3.1-1.7 4.6-2.4.8-.4 1.5-.7 2.3-1.2s1.6-1 2.4-1.6c1.7-1.1 3.4-2.3 5-3.6 1.3-1.1 2.7-2.2 3.9-3.5s2.5-2.5 3.7-3.8 2.4-2.5 3.5-3.9c1.1-1.3 2.3-2.9 3.5-4.3 1.2-1.4 2.3-3.2 3.5-4.8 1.1-1.5 2.1-3.1 3-4.7.4-.8.8-1.6 1.1-2.5.4-1 .9-2.1 1.2-3.1.6-1.6 1.1-3.2 1.5-4.9.4-2 .8-3.9 1-5.9l.5-4 1.4-.1c3.7-.4 7.4-.5 11.1-.6l2.7-.1.1 2.1.3 4.2s.1 2.7.1 4.1c0 1.4-.1 2.7-.2 4s-.2 2.7-.3 4.1-.2 2.7-.4 4.1c-.5 2.3-1.1 4.5-1.9 6.8l-.6 2.4-.6 1.2c-1.1 2.1-2.4 4.1-3.7 6-1.3 2-2.8 3.8-4.3 5.7-1.3 1.7-2.4 3.5-3.7 5.1-1.5 1.8-3 3.6-4.6 5.3l-5.3 5.8c-.9.9-1.8 1.9-2.8 2.8s-1.7 1.9-2.6 2.7c-1.9 1.8-3.8 3.4-5.8 5-1.8 1.3-3.7 2.6-5.6 3.8-1.9 1.2-3.9 2.3-6 3.3-1.9.8-3.9 1.5-5.9 2.1-2.1.6-4.2 1.1-6.3 1.6-3.8.9-7.7 2.1-11.6 2.7-1.8.2-3.7.3-5.5.3-1.3-.1-2.7-.2-4-.4-1.8-.3-3.6-.6-5.4-1l-3-.7s-2-.4-3-.7c-.1-.1-.2-.2-.3-.2-.5-.3-1.1-.5-1.6-.5l-1.5-.7c-1.5-.8-3-1.5-4.4-2.4-2.8-1.7-5.5-3.6-8.1-5.6-3.5-2.7-7.1-5.4-10.7-8.1-3-2.3-6-4.6-8.9-7.1l-4.4-3.8c-1.5-1.2-3.2-2.8-4.7-4.3l-8.2-7.9-4.4-4.3c-1.5-1.4-2.9-2.7-4.2-4.2s-2.4-3-3.7-4.4c-1-1.2-2.1-2.5-3.1-3.8-2.8-3.7-5.6-7.4-8.7-10.9-3-3.5-6.2-6.7-9.1-10.3-1.2-1.5-2.3-3-3.4-4.6l-3.8-5.4c-1.3-1.8-2.7-3.8-4.1-5.7-1.3-1.9-2.8-3.7-4.2-5.5l-3.1-4.3c-1.2-1.6-2.3-3.2-3.5-4.9-1.2-1.7-2.2-3.4-3.3-5.2s-2.1-3.3-3.2-4.9c-2.2-3.3-4.5-6.5-6.6-9.9-2.1-3.3-4-6.5-5.9-9.9-1-1.7-2-3.4-2.8-5.2-.9-1.8-1.8-3.4-2.8-5-1-1.6-2.3-3.5-3.4-5.2-1.1-1.8-1.9-3.5-2.9-5.2l-5.8-10.6c-2-3.5-4-6.9-6-10.3-2-3.2-3.7-6.6-5.8-9.8l-3-4.5c-1.1-1.7-2-3.5-3-5.3-1.7-3.3-3.3-6.6-4.8-10s-3.1-6.6-4.6-9.9c-1.6-3.8-3.1-7.6-4.9-11.4-1.8-3.7-3.7-7.1-5.5-10.7-1.8-3.6-3.6-7.1-5.5-10.6-.9-1.7-1.8-3.4-2.7-5s-1.9-3.4-2.8-5.2c-.9-1.8-1.8-3.6-2.8-5.3-1-1.7-1.9-3.4-2.8-5.1l-5.6-10.6c-1.8-3.5-3.5-7-5.3-10.4-1-1.8-1.9-3.5-2.8-5.3-.8-1.8-1.5-3.4-2.3-5.1-.2-.5-.5-1-.7-1.6-1.5-3.7-2.9-7.4-4.5-11l-2.4-5.1c-.9-1.7-1.8-3.2-2.7-4.7-1.9-3.1-3.4-6.5-5.1-9.8-1.7-3.3-3.4-6.4-5.3-9.5-1.5-2.3-2.9-4.7-4.6-6.9-2-2.6-4.1-5.1-6.4-7.5-.9-1-1.9-1.9-3-2.7l-.7-.6c1.1-1.3 2-2.7 2.6-4.2.4-.8.7-1.5 1-2.2s.6-1.3.9-1.9c.3-.7.5-1.1.7-1.7.3-.8.3-1.7.1-2.6-.5-1.7-2.2-2.7-3.9-2.2l-.8.3c-.7.4-1.3 1.1-1.5 1.9-.1.5-.2 1.1-.2 1.7v.7c-.1.8-.3 1.7-.5 2.5-.1.5-.2 1-.3 1.4-.2 1-.5 1.9-.8 2.8-.2.4-.4.8-.6 1.1-.3-.2-.5-.4-.8-.5l.3-1.2c.3-1.9.4-3.8.2-5.6-.1-.7-.1-1.4-.3-2.1-.1-.7-.5-1.2-1-1.6-.6-.3-1.3-.3-1.9 0-.6.4-1 1-1.1 1.7-.1-1.2-.4-2.4-1-3.5-.2-.4-.6-.7-1-.9-.4-.1-.8-.1-1.1.1-.3.2-.5.6-.7.9 0-.4 0-.8-.1-1.2 0-.9-.4-1.8-1-2.5-.7-.7-1.6-1-2.5-1h-.5c-.2-1.8-.6-3.5-1-5.2-.3-1.2-.6-2.4-1-3.5-.4-1.3-1-2.6-1.5-3.9-.5-.9-1-1.7-1.7-2.4-.5-.7-1.1-1.3-1.7-1.9-.6-.6-1.3-1-2.1-1.2-.4-.6-1-1-1.7-1.1-1.7-.4-3.4-.6-5.1-.7h-1.3l-3.2.1c-3.3 0-6.6.2-9.9.7-1.6.3-3.1.7-4.7 1.1-1.6.4-3.2.9-4.7 1.4-1.5.5-3.2 1.3-4.9 2-1.6.7-3.2 1.5-4.7 2.3-1.5.9-1.9 2.7-1.1 4.2.4.7 1 1.2 1.8 1.4.5.2 1.1.2 1.7 0 0 .1.1.2.1.2.4.6 1 1.1 1.7 1.3l2.2.9 1.2.5.1.1c-.2.2-.4.4-.7.6-1.8 1.2-3.6 2.3-5.5 3.3l-2.5 1.5c-.4.2-.8.5-1.2.8-.9.7-2.1 1.6-2.1 2.8 0 .6.1 1.2.5 1.6.3.5.9.8 1.4 1 .9.2 1.8.4 2.7.5l3.3.3 5.7.2-1.7 1.4c-1.2 1.1-2.3 2.6-1.7 4.3.3 1.1 1.2 1.9 2.3 2.2l1 .2-1 2.5c-.1.5-.2 1-.2 1.5-.3 1.3.1 2.6 1 3.6.8.7 1.8 1.1 2.9 1.1 1.2-.1 2.3-.5 3.2-1.2l3.7-2.1.1-.1.1.1c.6.9 1.5 1.6 2.5 1.9.7.2 1.5.2 2.2 0 .7-.2 1.3-.6 1.9-1.1.1-.1.3-.2.4-.2.9.7 2 1.2 3.1 1.2 1.6 0 3-.6 4.1-1.8.2.1.5.1.7.1l1.7.2 1.6.1c1.5 0 2.9-.8 3.7-2.2.1.1.2.2.3.4.8.7 1.8 1.1 2.8 1.2 1.1 0 2.2-.5 3-1.3.4-.5.8-1 1-1.6.1.1.2.3.4.4.2.2.3.3.5.4.4.5.8.9 1.3 1.2 1.3.9 2.8 1.7 4.2 2.5l2.4 1.1c.6.3 1.1.7 1.6 1 1.8 1.3 3.4 2.8 4.9 4.4 1.6 1.7 3.1 3.4 4.5 5.2 2.1 2.8 4 5.8 5.9 8.7l3 4.8c1 1.6 1.9 3 2.8 4.6.9 1.6 1.8 3.3 2.7 5l.7 1.5c-.9-.4-1.8-.8-2.7-1-.8-.1-1.6-.2-2.4-.2-.9 0-1.7 0-2.6-.1-1.7-.1-3.5-.1-5.2-.1-3.6 0-7.2-.1-10.8-.3-3.9-.2-7.7-.6-11.6-1.1-2-.2-4-.4-6-.5h-6.3c-3.3 0-6.7 0-10 .1-3.5.1-7 .4-10.5.7-3.5.4-6.8.8-10.1 1-3.1.2-6.2.1-9.3-.2l-2.2-.4c.2-.2.4-.5.4-.8.1-.6.1-1.3 0-1.9 0-.4-.1-.7-.2-1-.1-.6-.1-1.2-.2-1.9-.1-.4-.1-.8-.2-1.1-.2-.5-.4-.9-.8-1.3-.9-.7-1.9-1.2-3-1.4l-3.1-.7c-1.3-.3-2.6-.5-3.9-.6l-3.5-.4c-1.3-.2-2.5-.3-3.8-.4-.5 0-1.1.1-1.6.2-.7.2-1.4.4-2.1.8-.6.4-1.1.9-1.5 1.5-.3.6-.5 1.3-.6 2-.1.6-.1 1.2 0 1.8.1 1 .2 1.9.4 2.8-3.8.2-7.6.7-11.3.7-4.2.1-8.3-.1-12.4-.5l-6.2-.7-6.3-.3c-4.3-.1-8.6-.1-12.9 0-4.3.1-8.3.3-12.5.2-4.2-.1-8.3-.1-12.4-.2-3-.1-5.9-.2-8.9-.4-1.6-.1-3.2-.2-4.9-.3h-.6c-1.7 0-3.5.2-5.2.5-2 .4-4 1-5.9 1.8-.9.3-1.7.9-2.2 1.7-1 1.7-.5 3.9 1.2 5h.1c.8.5 1.9.6 2.8.4.9-.3 1.8-.6 2.6-.9 1.1-.3 2.1-.6 3.2-.7 1.8-.2 3.7-.2 5.5 0l2.9.3c2.1.3 4.2.5 6.3.6 4.1.3 8.2.3 12.3.4l6 .3s4 .1 6 0c4.4 0 8.7-.1 13.1 0 3.4.1 6.9.2 10.3.6 3.4.4 6.7.9 10.1 1.1 3.4.2 6.9.2 10.3 0 3.6-.3 7.2-.7 10.7-1 1.7-.2 3.5-.2 5.2-.3 1.7 0 3.3.1 4.9.3 1.7.2 3.5.5 5.2.8 1.9.3 3.8.8 5.8 1.1 2.4.4 4.8.7 7.2.8 2.1.1 4.1 0 6.2-.1s4.1-.4 6.1-.7c2-.3 4.1-.4 6.1-.6 4.2-.3 8.4-.3 12.6-.3 4 0 8.1 0 12.1.1s7.8.7 11.7 1.1c3.9.4 7.8.6 11.6.9l5 .2h5.2c.9 0 1.9 0 2.8.1l1 .3c1.8.5 3.7-.3 4.7-1.9.2-.4.4-.9.5-1.3 1.5 2.9 2.9 5.9 4.2 8.9l.9 2c.7 1.7 1.3 3.4 1.9 5.1.8 2.1 1.7 4.1 2.6 6.1 1.6 3.5 3.8 6.8 5.6 10.2 3.7 7 7.5 13.9 11.1 21 1.8 3.5 3.4 7 5.1 10.5 1.7 3.5 3.6 7.2 5.5 10.7 1.9 3.5 3.5 6.9 5.3 10.2 2 3.7 3.9 7.4 5.7 11.3l1 2.3c.8 2 1.6 3.9 2.5 5.9.8 1.8 1.6 3.5 2.5 5.2 1.7 3.7 3.5 7.3 5.4 10.9.9 1.8 1.8 3.6 2.8 5.3l.2.3-.1.3-.2.9-.2.5-.8 2.2c-.5 1.5-1 3.1-1.4 4.6-.8 2.8-1.7 5.7-2.4 8.5l-1.8 9c-.3 1.5-.5 3.1-.7 4.7l-.5 4.2v.2l-.8 3.2c-.2.8.2 1.6 1 1.8.5.1 1.1 0 1.5-.4.3.1.6.2.8.3 1.2.4 2.5.6 3.8 1 .6.2 1.1.4 1.7.5.7.2 1.5.3 2.2.4 1 .1 2.1.1 3.2.2 1.5.3 3 .6 4.6.7h.8c.3 0 .7-.1 1-.3.2-.1.5-.3.7-.5.2-.2.4-.4.5-.7.1-.2.2-.4.3-.7l.2-.7c.2-.7.3-1.4.4-2.1.1-.7.2-1.5.4-2.2.1-.7.3-1.5.5-2.2.3-1.4.6-2.9.8-4.3l.3-1.2c1.5 2.9 3 5.9 4.7 8.7l2.9 5.1c1 1.7 2.1 3.4 3.3 5.1 1.1 1.7 2.2 3.4 3.1 5.2 1 1.8 1.8 3.4 2.8 5 2.1 3.2 4 6.6 6 9.9.7 1.2 1.4 2.4 2.2 3.5h-.2l-.9.3c-.4-.2-.9-.2-1.4-.2-1.7-.1-3.3-.1-5 0l-4.8.2c-3.4.1-6.7.4-10.1.6-3.4.2-6.8.3-10.2.3l-3 .1c.3-1.4.5-2.8.9-4.2l.2-.8.6-1.7c.4-1.2.8-2.4 1.1-3.7.3-1 .6-1.9.8-2.8h1.4c2.2-.1 4.4-.3 6.6-.7.7-.2 1.4-.6 1.9-1.1 1.7-1.7 1.7-4.4 0-6.1-.5-.5-1.2-.9-1.9-1.1-.8-.2-1.5-.3-2.3-.3h-.4l-1 .1-3 .2h-5c-3.6 0-7.2 0-10.8.1-1.9 0-3.8.1-5.8.2l-5.7.2s-3.7.2-5.5.4c-2.1.2-4.1.5-6.1 1.1-1.1.3-2.1.8-3 1.4-1.5-.1-3 0-4.5 0h-5.6c-1.8 0-3.6.1-5.4 0-1.8-.1-3.6-.1-5.3-.1-3.8 0-7.5-.1-11.3-.4-1.8-.1-3.7-.3-5.5-.5-1.8-.2-3.9-.3-5.9-.4-3.7-.1-7.4-.1-11.1-.1-3.7 0-7.6.1-11.4.2-4.1.1-8.2.1-12.2.2l-10.9.2c-6.7 0-13.3 0-19.9-.5-3.5-.2-6.9-.4-10.3-.4-3.2 0-6.4-.1-9.5-.4-.4-.1-.8-.2-1.1-.3-.2-.1-.4-.3-.7-.4l-.5-.5c-1.1-1-2.5-1.7-3.9-2-1.3-.2-2.7-.3-4-.4l-5.8-.3c-1.6-.1-3.2-.1-4.9-.1-2 0-4 0-6 .1-4 .1-7.9.3-11.8.5-3.9.2-7.7.4-11.6.7-3.3.3-6.7.3-10 .4-3.5.1-7 .2-10.5.2-3.7 0-7.5.1-11.2.2-4 .2-7.9.5-11.9 1-.7 0-1.5.3-2 .8-1.1 1.1-1.1 2.9 0 4 .5.5 1.2.8 2 .8 4.2-.4 8.5-.8 12.8-1 4-.1 7.9 0 11.9.1s7.7.2 11.5.2c3.8.1 7.4.2 11.1.1 6.7-.1 13.4 0 20.1 0 3.1 0 6.2 0 9.4.1 1.7.1 3.4.2 5.1.2l4.5.2c1.2 1.1 2.7 2.1 4.3 2.7 1.5.4 3 .7 4.5.7 2 .2 4.1.2 6.1.3 4 .1 7.9.1 11.9.4l11.1.7s7.3.2 11 .2c7.7 0 15.5 0 23.2-.1l11.5-.1c3.8 0 7.5 0 11.2.2l11 .8c3.5.2 7 .2 10.5.2s7-.2 10.5-.3l5.3-.2c.8 0 1.6 0 2.4-.1h.2c1 .8 2.4 1.1 3.6.7 1-.3 1.9-1 2.4-1.9l.1-.1.1-.1.1-.1c.9-.3 1.8-.6 2.7-.7 3.5-.3 7-.4 10.5-.3h2.3l-.4 1.3c-.6 2-1.3 3.9-1.9 6-.1.3-.1.5 0 .8l-.3.9-1.4 4.8c-2.3 0-4.6-.2-6.9-.4-1.6-.2-3.2-.3-4.9-.4-1.8 0-3.6-.1-5.5-.2-3.4-.2-6.8-.6-10.2-.9-2.5-.2-4.9-.2-7.3-.2-2.5.1-5 0-7.6-.2-1.5-.2-3-.6-4.5-1.1l-1.8-.9c-1.2-.6-2.4-1.1-3.6-1.3-1.9-.4-3.9-.7-5.9-.9-1.8-.2-3.6-.4-5.4-.5-1.6-.1-3.2-.1-4.9-.1-3.4-.1-6.8.1-10.3.4-1.8.2-3.7.5-5.5.6-1.8.2-3.7.2-5.5.2-3.4.1-6.8.2-10.2.2-3.7 0-7.4.1-11 0-3.6-.1-7.2-.5-10.8-.8-3.6-.4-7.1-.6-10.7-.7s-7.1-.1-10.7-.1c-1.8 0-3.6 0-5.3.1-1.5.1-3.1.2-4.6.2l-.1.5-.1-.1-1.5-1.4c-1.7-1.9-4-3-6.5-3.2h-.7c-1.7 0-3.5.2-5.2.3-3.5.2-7 .5-10.5.6-3.5.1-7.2.2-10.7.4-3.6.2-7.3.5-11 .6s-7 .1-10.6.1-7.4-.3-11-.3l-10.8-.2c-3.6 0-7.1.1-10.7.2-6.8.2-13.5.6-20.3 1.1l-4.8.3c-1.9.2-3.8.5-5.7.8-1.6.2-3.3.5-4.9.8-2 .3-4 .8-6 1.2-1.7.4-2.8 2.1-2.5 3.8s2.1 2.8 3.8 2.5l.3-.1c1.8-.4 3.6-.8 5.4-1.1l4.9-.9 8.5-1.6c3.6-.3 7.2-.4 10.8-.3 3.5 0 6.9 0 10.4.1h6.7c.1 1.2 1 2.1 2.2 2.1 5.7.3 11.5.6 17.2.8l7.5.2s5 .4 7.5.7c2.5.3 5.1.9 7.7 1.4 1.2.2 2.5.5 3.8.7l1.8.3.9.1c.1.4.3.7.5 1.1.6 1 1.4 1.9 2.4 2.5 1.5.8 3.1 1.2 4.8 1.2 1.7.1 3.5 0 5.2 0 3.5 0 7-.2 10.5-.3s6.9.2 10.3.5l1.5.1c-.6.6-1.1 1.2-1.8 1.7-.4.3-.9.6-1.3.8l-1.2.3c-1.5.1-2.9 0-4.4 0h-5.4c-3.7.1-7.4.2-11.1.1-3.9-.1-7.8-.4-11.7-.4l-5.4.1c-1.5 0-3.1-.1-4.6-.3-2.3-.3-4.7-.8-7-1.2-2.3-.4-4.9-.9-7.4-1.3-1.5-.2-2.9-.4-4.4-.5l-4-.2c-2.3-.1-4.7-.2-7-.5-.4-.1-.8-.2-1.1-.3-.3-.1-.5-.3-.8-.5-.6-.4-1.3-.7-2-1-1.9-.5-3.8.4-4.8 2-.2.4-.4.8-.5 1.2-.1.3-.1.7-.1 1v.1c-1.3 0-2.7 0-4-.1-1.3-.1-2.8-.1-4.2-.1l-9.3.3-9.3.1c-3.5.1-7 .2-10.5.5-1 0-1.9.4-2.6 1-1.4 1.4-1.4 3.7 0 5.2.7.7 1.6 1.1 2.6 1.1 5.4-.5 10.8-.5 16.2-.7 4.7-.3 9.5-.2 14.2.2 2.1.3 4.2.7 6.4.9.6.1 1.3.1 1.9.1.7 0 1.5-.2 2.2-.5.7-.2 1.3-.6 1.8-1.1.4-.3.8-.7 1-1.2l.1-.1c1 .3 2.1.5 3.2.6 1.8.2 3.7.3 5.5.4 1.8.1 3.7.2 5.6.2 1.8.1 3.8.4 5.7.5l2.8.3-.2.2c-1 1.2-2.2 2.3-3.3 3.3-.9.6-1.9 1.2-2.9 1.6-1.4.6-2.8 1-4.2 1.3-1.9.2-3.8.2-5.7.2-1.9 0-3.7-.3-5.6-.5-3.8-.4-7.6-.7-11.4-.8-3.8 0-7.5.2-11.2.7-2.2.3-4.4.5-6.5.9-1.8.3-3.5.7-5.3 1.1l-3.2.6c-2 .2-4 .5-6 .5-1.5 0-3 .1-4.5 0-.7-.1-1.4-.1-2.1-.1-2.1 0-3.8 1.7-3.8 3.8 0 1.7 1.2 3.3 2.8 3.7 1.6.3 3.3.4 4.9.5 1.7.2 3.4.6 5 1.1 1 .5 1.9 1.1 2.7 1.7 1.5 1.3 2.8 2.7 4.1 4.2.6.7 1.5 1 2.5.9.6.4 1.2.6 1.9.5 2.5-.3 5.1-.4 7.6-.6 2.2-.1 4.4-.3 6.5-.5s4.2-.4 6.2-.4l3.4.1c1.1 0 2.1 0 3.2.1 1.4.3 2.8.7 4.2 1.1 1.4.4 2.5.7 3.8 1.1 1.2.5 2.6 1 4 1.3.9.2 1.9.4 2.8.4.8.1 1.6.2 2.4.2 3 .3 6 .2 8.9-.5 1.7-.4 3.3-1 4.8-1.8l4.1-2.3c.9-.3 1.8-.5 2.7-.7 2.7-.2 5.4-.2 8-.2 2.2 0 4.5 0 6.8.1 2.1 0 4.1.1 6.2.2h2.3c0 .6.1 1.3.2 1.9.1.6.2 1.5.4 2.2l1 4.2.3 2.9c.1.6.1 1.2.2 1.9l.2 1.4.3 2.4.2 3c0 .5.1 1 .2 1.5 0 .5.2.9.3 1.3.4.7 1.1 1.1 1.9 1.1.8 0 1.5 0 2.3-.1l1.8-.1h1.5c.6 0 1.2.1 1.7.2l3.8.5 1.9.2c.4.1.9 0 1.3-.2s.7-.5.9-.8c.4-.8.6-1.7.7-2.6.2-1.3.2-2.6.2-4s.2-2.7.2-4.1l.2-7.2c.1-1.2.2-2.4.2-3.6v-1.1l7.7.4c4.1.2 8.2.1 12.2.5 4.3.4 8.5.9 12.8 1 4.3.1 8.7.2 13.1-.1 4.4-.3 8.6-.8 12.9-1h5.1c1.7 0 3.6-.1 5.4.1.8.2 1.6.4 2.3.6l2.7 1.5c.7.4 1.4.7 2.2 1 .9.4 1.9.6 2.9.7 1 0 2-.1 3-.3.8-.2 1.5-.5 2.2-.9l.8-.3 1.7-.8c.6-.3 1.3-.7 2-1 .8-.2 1.6-.4 2.5-.5 3.9-.4 7.9-.4 11.9-.6 4.2-.1 8.4.1 12.6.1 4.2 0 8.4-.1 12.7-.1 4.2 0 8.2-.2 12.3-.3l3-.1v.1c.1.9 0 1.8 0 2.7l-.2.5c-.2.3-.3.7-.4 1.1-.2.6-.4 1.2-.5 1.8-.3 1.3-.6 2.7-.8 4-.1.3 0 .7.1 1l-.1.6c-.1.7-.2 1.4-.2 2.1v1c0 .2 0 .3.1.5s.2.4.4.6c.2.2.5.3.8.3-.1.1-.1.2-.2.4-.1.3 0 .7.1 1 .2.3.4.5.8.6.2.1.4.1.6.1h.4l.8.1 1.7.2 3.2.4h1.6c.4 0 .7 0 1.1-.1.4-.1.8-.1 1.2-.3.5-.2.9-.4 1.2-.7.3-.3.5-.6.6-1l.2-.7c.1-.3.1-.7.1-1l.2-1.4c.2-1.2.5-2.3.7-3.4.1-.6.2-1.2.3-1.9l.3-1.9c.2-1.3.4-2.6.5-3.9v-1.6c0-.2-.1-.4-.2-.6l-.1-.2c2.4.1 4.7.1 7 .1l6.2-.1c2 0 4-.2 6.1-.3 4.1-.2 8.2-.2 12.4 0 1.1.1 2.2.2 3.2.3 2.2.3 4.4.8 6.7 1.1 2.2.2 4.3.2 6.5 0 2.3-.1 4.6-.4 6.9-.6 2.6-.2 5.1-.2 7.7-.2 1.4 0 2.7-.7 3.5-1.8l-.6 2.6c-.8 3.6-1.7 7.2-2.7 10.8l-1.6 5.1c-.6 1.9-1 3.7-1.4 5.6l-1.1 5.1c-.4 1.7-.9 3.7-1.4 5.5l-2.8 11.2-1.5 5.5-1.5 5.3s-.8 3.6-1.3 5.4-.9 3.5-1.4 5.3c-.9 3.6-2 7.1-3 10.6-.4 1.6-.8 3.2-1.3 4.7-.4 1.6-.9 2.9-1.3 4.4-.9 3-1.6 6.1-2.3 9.1l-1.8 9c-.1.5-.2 1-.3 1.6.3 1.2.6 2.5 1 3.7.7 1.9 1.5 3.5 2 5.1 1.4-.7 2.6-1.7 3.8-2.7.7-3.6 1.7-7.1 2.5-10.6.9-3.6 1.8-7.4 2.7-11.1l1.6-5.5c.5-1.8 1-3.6 1.4-5.4.9-3.6 2-7.1 2.8-10.7.5-1.9.9-3.9 1.3-5.8.4-1.7.7-3.4 1.1-5 .5-1.9 1-3.8 1.4-5.7s.8-3.8 1.2-5.8c.4-1.9.8-3.8 1.1-5.8s.7-3.7 1.1-5.5c.8-3.6 1.6-7.1 2.5-10.7.8-3.6 1.9-7.1 2.8-10.7.9-3.6 1.7-7.1 2.3-10.8.3-1.8.6-3.5 1-5.3s.8-3.5 1.1-5.2c.1-.3.1-.6.2-1l1.1 1.6c1.2 1.7 2.4 3.3 3.5 5.1 1.1 1.7 2.1 3.3 3.3 5 1.3 1.8 2.7 3.7 4.1 5.5 1.3 1.5 2.6 3 4 4.5 2.7 3 5.3 6 7.9 9.1l.6.8c1 1.3 2 2.7 3 4.1-.6.7-1.1 1.5-1.4 2.4-.2.7-.5 1.4-.8 2.1-.6 1.4-1 2.9-1.5 4.3-1 3.2-1.9 6.4-3 9.6-2.1 6.3-4.4 12.6-6 19.1l-4.8 20c-.5 2-.9 3.9-1.3 5.9.1.6.1 1.2 0 1.9.7.8 1.2 1.8 1.3 3.1.1 2.2-.1 5.8.6 8.9 1.5 1.8 3.7 2.7 6.6 1.9 4-1.2 5-7.7 6.1-11.1.3-.9.8-1.6 1.5-2.2 1.1-4.4 2.2-8.7 3.4-13.1 1.8-6.8 4-13.5 5.9-20.2l3-11.2 1.2-4.4.4-1.2c.2-.6.4-1.3.6-2l.7.7c1.4 1.4 2.8 2.8 4.3 4.2s2.7 2.5 4 3.7 3 2.8 4.4 4.1c.8.7 1.5 1.4 2.4 2.2 1 .9 2.1 1.7 3.1 2.5 1.3 1 2.7 2.1 4 3.2 1.8 1.4 3.6 2.8 5.4 4.1 1.3 1 2.6 2.1 4 3.1 1.7 1.3 3.5 2.5 5.2 3.7 2.9 2 5.8 4 8.8 5.9l4.3 2.8 2.4 1.4s1.7.8 2.6 1.2l4.1 1.8c.7.6 1.4 1.1 2.2 1.5.6.3 1.2.5 1.8.7.9.3 1.8.5 2.6.7 1.7.5 3.4.9 5.1 1.2.8.1 1.6.2 2.5.3 0 .6.4 1.2 1 1.3 1.9.3 3.7.5 5.6.6 1.4.1 2.8 0 4.2 0 1.4 0 2.8-.1 4.2-.2s2.7 0 4.1-.2 2.6-.4 4-.6l2.3-.3s1.7-.3 2.5-.5c1.5-.3 2.9-.8 4.3-1.2s2.9-.8 4.4-1.2c.8-.2 1.6-.6 2.4-.9l2.4-1.1c2.7-1.3 5.3-2.8 7.7-4.6 1.3-.9 2.5-1.8 3.7-2.7s2.4-1.7 3.6-2.5c2.8-2 5.6-4.1 8.2-6.4 1.1-.9 2.1-2 3.1-3s2.3-2.2 3.5-3.3 2.3-2.2 3.4-3.4 2-2.3 2.9-3.5c2.2-2.6 4.1-5.5 5.8-8.5 1.5-2.7 2.6-5.5 3.9-8.2.8-1.6 1.6-3.3 2.3-5 .6-1.5 1.1-3 1.6-4.5 1-2.8 1.9-5.6 2.6-8.4.7-2.8 1.5-5.8 2.1-8.7.3-1.4.5-2.8.8-4.1s.6-3 .8-4.5c.3-1.8.5-3.6.6-5.4l.1-2.2c1.5-.1 3-.2 4.5-.2 4.1-.1 8.2-.1 12.3.1 3.8.2 7.6.3 11.4.3 8.1 0 16.2-.5 24.3-.9s16.2-.5 24.2-.5h12c3.9 0 7.8.2 11.7.3 7.9.2 15.8.2 23.8.6l10.8.6c3.6.2 7 .7 10.6.8s6.9.1 10.4 0c3.8-.1 7.5-.5 11.2-.7.8 0 1.6-.3 2.2-.9.2 1.7.5 3.5.9 5.2.4 1.7.9 3.4 1.5 5.1.6 2 1.4 3.9 2.4 5.7.4.6.8 1.3 1.3 1.8.8 1.1 1.7 2 2.7 2.9 1.6 1.4 3.4 2.5 5.2 3.5 3.3 1.6 6.9 2.5 10.6 2.9 3.5.4 7.1-.2 10.3-1.8l-.6 7.6-.6 9.3c-.2 2.9-.3 5.8-.5 8.6-.5 5.9-1 11.9-1.8 17.7.9.9 1.4 2.1 1.3 3.3l-.2 2.4c.9.1 1.7.4 2.3.9 2.1-2.1 3.7-5.1 4.3-8.3.1-.7.4-1.3.7-1.8v-.3c.5-3.3.9-6.5 1.2-9.8.3-2.9.6-5.9.7-8.8.2-3 .4-5.9.5-8.9s.3-6.1.4-9.2.3-6 .3-9l.1-5.1c.3-1.2.6-2.4.8-3.7.2-1.4.5-2.9.8-4.3.3-1.8.5-3.7.7-5.5l-.1 1.1c.9-6.5 1.4-13 1.9-19.5l.9-9.3c.2-2.9.5-5.9.9-8.8l.8-5.8c.2-1.8.4-3.5.6-5.2.6-3.7 1.1-7.4 1.7-11l1-6.1c.3-2.1.5-4.3.8-6.5.3-2.9.5-5.7.6-8.6l.6 1.7c.7 1.9 1.5 3.8 2.3 5.7l8.4 18.9c.7 1.7 1.4 3.4 2.2 5.1s1.7 3.4 2.4 5.1c.9 2.2 1.8 4.3 2.8 6.5-.7.4-1.3 1.1-1.7 1.8-.3.5-.5 1.1-.7 1.7-.3.8-.5 1.7-.7 2.5l-1.3 5c-.5 1.6-.9 3.3-1.3 5-.6 2.3-1 4.6-1.3 6.9-.4 3.6-.6 7.1-.6 10.7-.1 3.5-.2 7.1-.7 10.6-.4 3.5-1.1 7.2-1.8 10.8-.7 3.9-1.5 7.8-2 11.7-.6 4.2-.9 8.4-1.2 12.7-.3 3.9-.5 7.8-.9 11.7l-1 6.8c-.2 1-.3 2.1-.4 3.2.8.8 1.2 1.9 1.2 3.4-.1 3.7 0 8.5 3.5 10.7 2.9 1.8 7.6 1.5 10-.9 3.1-3.1 4.3-7.8 5.3-12.5.1-1 .2-2 .3-3.1.2-2.3.5-4.7.8-7 .5-4.4 1-8.8 1.4-13.1l.8-10.8c.3-3.6.5-7 .8-10.5.2-3.5.3-7.2.5-10.9s.3-7.2.8-10.7l1.3-9 .2-1 1.6 2.9c.5 1 1 1.9 1.6 2.8v.2c0 1.1.5 2.2 1.2 3l3.2 3.6.2.3 4 5.4.8 1 .8 1.1 1.5 1.8c1 1.1 2 2.1 3.1 3 .7.6 1.3 1.1 2.1 1.7 1.3.8 2.7 1.5 4.2 2 .9.3 1.8.7 2.8 1 1.9.5 3.9.8 5.9.9.5 0 .9-.1 1.4-.3h.2c4.4.1 8.7-.7 12.8-2.5.7-.3 1.3-.6 1.9-1 1-.6 1.9-1.4 2.8-2.1.7-.5 1.3-1 1.9-1.5 1.1-1.1 2-2.3 2.8-3.7 1.1-2 1.6-4.2 1.4-6.5-.1-1.3-.3-2.5-.7-3.7-.2-.6-.3-1.2-.4-1.7.4.2.8.2 1.2.2.9-.1 1.8-.2 2.8-.2 1.1 0 2.2 0 3.3.2 2.1.3 4.2.6 6.4.9 1.8.3 3.6.4 5.5.4 3.7-.1 7.3-.5 10.9-.8 3.8-.4 7.7-.5 11.5-1.3 1.8-.3 3.5-.8 5.3-1.2 1.8-.4 3.4-.8 5.2-1.1h1.2c.6.1 1.2.3 1.7.5l.3.2c.9 1.6 2 3 3.3 4.3 1.5 1.2 3.3 2 5.3 2.4.8.2 1.7.3 2.5.4 1 .1 2 0 3-.2.6-.1 1.2-.3 1.7-.5l2-.8 2-.9 3.2-1.6c.8-.3 1.6-.5 2.5-.7 3.8-.4 7.6 0 11.4.1 3.8.1 7.5.1 11.2 0l11.9-.3c4-.1 7.9.2 11.8.3h4.7c2.2.1 4-1.7 4.1-3.9 0-1.1-.4-2.2-1.2-3-1.4-.7-2.4-1-3.5-1zm-825.4-278.4l-.6 3.6-.2.9c-.4-.4-1-.7-1.6-.8-1.2-.2-2.3-.5-3.4-.9l-.6-.2c-.6-.2-1.3-.4-2-.4-.4-.1-.7-.1-1.1 0l-.3-1.1c-.6-1.9-1.5-4.2-3.4-5.1l-1.1-.5c-.8-.2-1.6-.2-2.4 0-1.1.3-2 1-2.6 2-1 1.7-1.5 3.6-1.6 5.6-.1.1-.2.1-.4.2l-1.2.9c-.8.6-1.6 1.1-2.4 1.6.2-1.4-.2-2.9-1.2-4-.1-.1-.3-.2-.4-.4l1-.8c.8-.5 1.4-1.3 1.7-2.2l.1-.4c.1-.5.1-1 0-1.5-.1-.7-.5-1.3-1-1.8-.5-.4-1-.7-1.6-.9-.4-.1-.8-.2-1.2-.2-.6-.1-1.3-.2-1.9-.2-1.8-.1-3.7 0-5.5.2l-2.4.1.9-.4c1.7-.7 3.4-1.5 5.1-2.4 1.9-1 3.5-2.4 4.6-4.2l.2-.4c.2-.4.4-.9.4-1.4.1-.7-.1-1.4-.4-2-.6-.9-1.4-1.6-2.4-2-1-.5-1.9-.9-2.9-1.3l2-.7c1.2-.4 2.4-.7 3.6-1 2.3-.6 4.5-1.2 6.9-1.6 1.9-.2 3.7-.4 5.6-.5 2.1-.2 4.2-.2 6.4-.2l1.6.3c.1 1 .6 2 1.3 2.7l1.5 1.6.6 1c1 2.8 1.8 5.7 2.2 8.6.2 1.6.3 3.2.4 4.8.1 2 0 3.7-.3 5.4zm-52.2 46.6c.3-.3.6-.7.7-1.1.1-.4.1-.9 0-1.3h.1l.5.1c0 .4 0 .7.1 1.1 0 .4.1.6.1.9 0 .2.1.5.2.7l-1.7-.4zm108.7 226.4c-.1.6-.2 1.1-.5 1.6-.3.4-.6.7-1.1.9-.4.2-.8.3-1.2.4l-.6.1h-.1c-.5.3-1.1.4-1.6.6-1 .2-2 .3-3 .3h-4.3s-2.7-.1-4-.2c-.5 0-1-.1-1.4-.1-.5-.1-1-.4-1.2-.9l-.2-.4-2.9-.2c-1-.1-2.1-.2-3.1-.2-2.1-.1-4.2-.2-6.2-.4-2.1-.1-4.4-.2-6-.3h-2.9c-.8 0-1.6-.1-2.3-.2l-1.3-.3-.3-.2-.7-.7-.3-.5h.4c1.2-.1 2.5-.1 3.8-.2h.2c2.1-.1 4.4-.1 7.2-.1 1.6 0 3.1-1 3.8-2.5l2.9.1 3 .1h2.4c1.3 0 2.6 0 3.8-.1.2-.4.6-.6 1-.6l1.9-.1c.6 0 1.1-.1 1.7 0h4.5v.1h.2c.4 0 .8 0 1.2.1s.9 0 1.4-.1h.2c.7-.1 1.4-.3 2.2-.3h.5c.3 0 .6 0 .9.1.2.1.5.1.7.3.2.1.4.2.6.4.3.4.6.8.8 1.3.1.6.1 1.4-.1 2.2zm33.1-3.5c-.1.2-.2.5-.3.8l-.1.7v.5l-.3 1.5c-.1.6-.2 1.2-.3 1.9v.8l-.2 1.3h-3.3c-1.2 0-2.4 0-3.6-.1-1.2-.1-2.6-.2-3.9-.3l-2.2-.3c-.9-.1-1.8-.4-2.5-.8-.4-.3-.7-.6-.9-1.1-.1-.2-.2-.4-.2-.5-.1-.1-.3-.3-.3-.4-.1-.2-.2-.4-.3-.7-.1-.2-.1-.5-.1-.7 0-.4.2-.9.4-1.3.2-.3.5-.5.8-.7l.1-.1.1-.1c.3-.3.7-.6 1.2-.7l.4-.1.6-.1-.1-.2h.5l1.5.1 3.3.3c1-.1 2-.2 3.1-.2l2.5-.1h1.6c.8 0 1.5.1 2.3.3h.2v.3zm31 4.1c-.4.6-.9 1.2-1.5 1.5l-.2.3-.3.4c-.2.2-.4.4-.6.5l-.7.3c-.7.2-1.4.3-2.2.3h-1c-.7-.1-1.5-.1-2.2-.3-1.2-.2-2.4-.5-3.5-.9-.4-.1-.8-.3-1.1-.5l-1-.5.2-1.5.1-.7.2-.9.5-2 .1-.4.2-.1c.9-.3 1.9-.4 2.8-.4.6 0 1.2 0 1.9.1s1.2.1 1.9.2c1.3.1 2.6.3 3.8.8.4.1.8.3 1.2.5l.7.3c.3.2.5.4.7.7v.1l.1.2c.2.2.3.4.3.7 0 .2.1.4.1.7-.3 0-.3.3-.5.6zm512.7-251.7c.7-1.3 1.5-2.5 2.4-3.6l1.5-1.9.2-.2.6.1h.1c1.4 0 2.7-1 3.9-1.8.8-.5 1.7-1 2.6-1.4 1-.4 2-.8 3.1-1.1.7-.1 1.4-.1 2.1 0 .6.1 1.1.3 1.7.5.9.4 1.7.9 2.5 1.5.6.5 1.2 1.1 1.8 1.7l.6 1c1.1 2.9 1.8 5.9 2.2 8.9.3 2.4.4 4.8.4 7.2 0 2.7-.2 5.3-.5 7.9v-.3c-.3 2.4-.7 4.9-.9 7.4s-.5 5-.7 7.5c-.4 5-.8 10-1.5 15v.8c0 .1 0 .3-.1.4-.9 6.4-1.6 12.9-2.1 19.4-.2 3.3-.5 6.7-.8 10l-.6 6.1c-.2 1-.3 2-.5 3.1l-.5 3.3c-.4 2.3-.9 4.6-1.4 6.9-.7 3.4-1.1 6.8-1.7 10.2-.6 3.4-1.1 6.5-1.6 9.8s-1.2 6.8-1.7 10.1l-.8 4.9s-.7 3.4-1 5.1c-.3 2-.6 4-.8 6.1l-1.7-3.8c-1.4-3-2.8-5.9-4.1-8.9l-.1-.2v.1l-.1-.2-.5-1.2c-.9-2.2-1.9-4.4-2.9-6.5-.9-1.9-1.8-3.9-2.6-5.9-1.6-3.7-3.1-7.4-4.6-11.1l-3.3-8.4c.4-.1.7-.3 1-.5.4-.4.6-.9.6-1.4-.2-1.8-.5-3.6-.6-5.5-.1-1.5-.1-3-.1-4.5-.1-3 0-6 .3-9 .4-3 .7-6.1 1-9.1s.5-6 .8-9c.1-1.6.3-3.3.5-4.9s.3-3.1.4-4.7l.1-1.2.4-3.4s.2-2.2.2-3.2l.3-2.4v-.1l1-7.6.9-7.2c.5-3.2.9-6.5 1.3-9.8.4-3 .6-6 .9-9.1 0-.2 0-.5.1-.7v-.1c.8-1.8 1.5-3.5 2.3-5.1zm-37.4 22.5l1.3-7.5c.4-2.7.9-5.4 1.4-8 .3-1.5.5-3.1.7-4.6l.5-4.4.9-8.2c.3-1.8.6-3.5.8-5.3.3-1.8.5-3.8.8-5.7s.8-3.9 1.2-5.8.6-4.1.9-6.1c.4-2.7.7-5.3 1-8 .4-2.9.8-5.8 1.3-8.7.5-3.1 1.3-6.2 1.9-9.4 1.2-6.4 2.4-12.8 3.1-19.2.2-1.9.4-3.8.5-5.8.1-1.9.3-3.7.6-5.6v-.3l.9-5.9s.8-4.2 1.1-6.3c.4-2.3.6-4.6.8-6.8l.7-5.9.9-6s.7-4.2 1-6.3c.2-1.2.4-2.3.5-3.5.1-.9.1-1.8.1-2.7l.3.3c1 1 2.1 1.9 3.4 2.6 1.1.5 2.2.9 3.4 1.2 2.3.5 4.7.8 7.1 1 1.1.1 2.2.3 3.4.4.6.1 1.2.1 1.9.1.8 0 1.6-.1 2.4-.2-.2.6-.4 1.2-.6 1.7l-.6 2.4c-.4 1.6-.9 3.3-1.2 5l-.8 5.6-1 6.5-.9 7.6-1 6.9c-.4 2.6-.7 5.2-1 7.8-.3 2.3-.7 4.5-.9 6.8l-.7 6.1.2-1.2c-.7 5.5-1.2 11-1.8 16.5l-.7 7.4c-.2 2.5-.5 5-.8 7.4-.8 5.7-2 11.3-2.9 17-.5 3.3-1 6.6-1.5 10-.4 3-.8 6.1-1.1 9.1-.6 5.5-1 11-1.5 16.5l-.3 1.3-.9 4.7c-.6 3.8-1.2 7.5-1.7 11.3-.4 3.4-.7 6.8-.9 10.2-.2 3.4-.5 7-.8 10.5-.1 1.7-.3 3.3-.5 5l-.6 5.2c-.3 2.8-.6 5.6-1 8.4l-.8 5.6v-.1l-.3 2.2-.9-2.3c-1.4-3.9-2.9-7.7-4.2-11.6-1.3-3.9-2.8-7.8-4.1-11.6-.6-1.8-1.3-3.6-2-5.5l-2-6c-1.3-3.9-2.7-7.7-3.9-11.6l-1-3.3c-.2-.3-.1-.6-.1-.9zm-375.5 150c-.6 3-1.2 5.9-1.7 8.9-.5 3.4-1 6.8-1.4 10.2-.5 3.1-1 6.2-1.5 9.2-.5 3.3-.9 6.5-1.3 9.8-.5 3-1 6-1.4 9s-.8 6.3-1.1 9.4l-1.7 10.3-1 6.9-1.6-2.5c-2.5-3.9-5-7.7-7.4-11.7-2.4-4-4.5-8-6.7-12.1-2.1-3.9-4.5-7.6-6.7-11.5l-1.6-2.8c.2-2.5.4-4.9.7-7.4l1-5.3c.4-2 1-3.8 1.5-5.8s.8-3.6 1.2-5.5 1-3.9 1.5-5.9c1-3.8 2.2-7.5 3.2-11.2 1.1-3.7 2.2-7.5 3.2-11.3.5-1.9 1-3.8 1.5-5.6.5-1.9 1.1-4 1.7-6l3.2-11.7 3.5-11.6c1-3.7 2-7.4 2.9-11.1.9-3.9 1.8-7.8 2.9-11.7.5-1.9 1-3.8 1.6-5.7s1.3-3.7 1.9-5.6l1.8-5.6s1.1-3.8 1.5-5.8l3.1-11.4c1.2-4.4 2.2-8.8 3.6-13.1.7-2.1 1.5-4.2 2.4-6.4l2.2-5.9c2.1-5.1 4.5-10 7.3-14.8l4.5-7.6c1.5-2.3 3-4.5 4.7-6.7 1.4-1.8 2.9-3.6 4.5-5.2.8-.9 1.8-1.7 2.7-2.5.9-.8 2-1.9 3.1-2.8s2.3-1.8 3.5-2.6c.8-.6 1.6-1.2 2.5-1.7l2.2-1.2c1.7-.9 3.4-1.8 5.2-2.6l4.6-2c2.4-1 4.8-2 7.3-2.8 2.4-.8 4.8-1.4 7.3-1.9.9-.1 1.9-.2 2.8-.2 1.2-.1 2.4-.1 3.6 0 .9.2 1.8.5 2.7.8.9.2 1.6.4 2.5.7 1.5.5 3 .9 4.5 1.5l1.8.7c.6.2 1.3.4 2 .6l3.9 1c1.5.3 3.1.6 4.6 1 1 .3 2 .6 3 1 1.2.6 2.3 1.3 3.4 2 1.2.7 2.3 1.4 3.5 2.2s2.4 1.5 3.6 2.1c1 .6 2 1.2 2.9 1.9.8.6 1.5 1.3 2.2 2.1.9 1.3 1.8 2.6 2.6 3.9 1 1.5 2 2.8 3.2 4.2 1 1.3 2 2.7 2.9 4.1.9 1.4 1.8 2.8 2.6 4.3.5 1.4 1 2.8 1.5 4.3h-1.1c-3.5 0-6.9-.3-10.4-.4-3.7-.1-7.3-.2-11-.5-1.7-.1-3.5-.3-5.2-.5-1.7-.2-3.5-.3-5.2-.4l-3.6-.1c-.5-.9-1.1-1.6-1.9-2.3-.8-.8-1.7-1.4-2.7-1.9-.3-.2-.6-.5-1-.7-1.7-1.1-3.6-2-5.6-2.6-.8-.3-1.5-.6-2.2-.9-.8-.3-1.7-.5-2.5-.6-1.1-.2-2.2-.3-3.3-.3h-.1c-.8 0-1.7.1-2.5.3-.3.1-.6.2-1 .3-1.2 0-2.3.1-3.5.3-1 .2-1.9.5-2.9.8-2 .7-3.9 1.6-5.7 2.8-2.4 1.7-4.5 3.7-6.3 6-.7.5-1.3 1.1-2 1.7-1.6 1.6-3.1 3.3-4.3 5.2-1.2 1.7-2.2 3.6-3.2 5.4-1 1.8-2.1 3.5-3 5.3-2 4-3.9 8-5.6 12.2-1.6 3.9-3.1 7.9-4.6 11.9-1.5 4-2.9 8.1-4.2 12.2-1.3 4.1-2.8 8.1-4 12.2-1.2 4.1-2.1 8.1-3.1 12.2-.9 4.1-2 8.4-3 12.6-1 4.2-2.3 8.2-3.3 12.2-1.1 4.1-2.1 8-3.2 12-1.2 4.2-2.2 8.5-3.3 12.8s-2.1 8.3-3 12.5c-1 4.3-1.8 8.6-2.7 13zm70.6 56.2c0 .6.1 1.2.2 1.8-.4-.2-.9-.3-1.4-.3-.8.1-1.7.2-2.5.2-.8.1-1.8.1-2.7.1h-5.3s-3.3-.1-4.9-.1l-5.4.2-5.3.3c-1.8.1-3.8.1-5.8.1h-10.7c-1.8-.1-3.5-.2-5.3-.2-2 0-4 .1-5.9.2-1.8.1-3.5.2-5.3.4-1.9.1-3.9.3-5.8.7h-.2l.2-1.2.7-5.1.7-.1c3.5-.4 7-.9 10.5-1.2 1.9-.2 3.7-.2 5.6-.3l5-.3c7.2-.6 14.5-.9 21.7-1 2.7 0 5.4 0 8.1-.2s5.7-.2 8.5-.3c1.8 0 3.5-.1 5.2-.2-.1.4-.2.9-.2 1.3.1 1.7.1 3.4.3 5.2zm49.1 47.1c-.1.7-.2 1.3-.4 1.9-.2.9-.5 1.8-.9 2.6-.6 1.7-1.1 3.4-1.8 5.1-.6 1.4-1.2 2.7-1.9 4.1-.8 1.7-1.8 3.3-2.8 4.8-1 1.5-2 3-3 4.6s-1.9 3-3 4.4c-1.6 2-3.4 4-5.3 5.8-1.8 1.2-3.6 2.3-5.4 3.4-2.2 1.2-4.5 2.3-6.8 3.3-1.5.7-3.1 1.2-4.7 1.7-1 .3-1.9.5-2.9.7l-1.4.3c-2.5-.2-5-.4-7.4-.7-3.5-.6-7-1.6-10.2-3-2.1-.9-4.1-1.8-6.2-2.8-2.4-1.2-4.6-2.5-6.9-3.8-2.1-1.2-4.1-2.6-6-3.9l-6-4.2c-3.1-2.5-6-5.3-9-8-3.3-2.8-6.4-5.8-9.5-8.8-3.1-3-6.3-6.4-9.5-9.6-1.7-1.7-3.3-3.5-4.9-5.3 3.5-.5 7.1-1 10.6-1.1 4-.1 7.9 0 11.9.1 7.9.2 15.8.5 23.6.6l11.6.3c1.9 0 3.7.1 5.6.2 1.9.1 4 .3 6 .4 2 .1 4.2.2 6.3.5 1.9.2 3.8.5 5.8.6 4 .3 8 .5 12.1.7 4.1.2 7.9.3 11.8.1l10.6-.3.1.6c.1 1.5.1 3.1-.1 4.7zm164.3-33.1c0 .2-.1.4-.1.5l-.1.1-.6.3c-1.3.5-2.7.8-4.1 1-2.7.3-5.3.4-8 .5s-5.2.4-7.8.7c-2.6.3-5.4.6-8 .8s-5.4.4-8.1.4l-5.3.1c-1.7 0-3.4.2-5.1.1-.2 0-.5-.1-.7-.2-.1-.3-.3-.6-.4-1-.1-.3-.2-.6-.3-1-.4-1.2-1.2-2.2-2.2-2.8-.4-.2-.8-.4-1.3-.6l-.6-.2-1-.3c-.9-.2-1.8-.3-2.8-.4-1.2-.1-2.5-.1-3.8-.1-1.3 0-2.7 0-4 .1l-8 .3s-5.2.2-7.7.2l-7.9.1c-1.2 0-2.5.1-3.8.1-1.2 0-2.3.1-3.4 0-.2-.7-.3-1.4-.6-2-.2-.8-.7-1.4-1.4-1.9h.3c3.1-.3 6.3-.6 9.4-.7 2.7 0 5.5 0 8.2-.1s5.4-.2 8.1-.2h7.9c2.7 0 5.4-.1 8.2 0l7.9.1c5.3.3 10.7.3 16 .2 1.2 0 2.5-.1 3.8 0 .6.6 1.3 1.1 2 1.5.8.4 1.6.7 2.5.8h1.9c1.5-.1 3.1-.2 4.6-.4 2.8-.4 5.7-.6 8.6-.4 1.2.2 2.3.4 3.4.5 1.3.1 2.6.4 3.8.6l.3 1c.3.9.3 1.6.2 2.3zm55.2-47.4c-.7 4-1.2 7.9-1.6 11.9-.3 3.4-.6 6.7-1 10.1l-.8 5.1s-.5 3.6-.9 5.5v.1c-.3-.6-.7-1.1-1.3-1.4-1.4-.7-2.8-1-4.4-1.1-.9-.1-1.8-.2-2.8-.2l-6 .2h-3c-.9 0-1.7 0-2.5.1-.9.1-1.9.4-2.7.8-1.1.7-1.8 1.8-2.1 3-.1.6-.2 1.1-.2 1.7-.8-.2-1.6-.3-2.5-.4-1.6-.2-3.1-.3-4.7-.3l-4.4.1-3 .1c-.4-1.2-1-2.3-1.9-3.2-.7-.6-1.6-1.1-2.5-1.3l-2-.3-4.9-.5c-3.1-.3-6.2-.3-9.2-.3h-9.9s-6.6.3-9.9.3c-3.5 0-7-.2-10.5-.4l-4.8-.4c-1.6-.1-3.4-.2-5.1-.2-3.4 0-6.8-.2-10.3-.1-3.1.1-6.1.5-9.2.7l-9.8.8c-3.3.2-6.8.3-10.2.5l-9.2.5c-3.3.3-6.6.5-9.8.6-3.3.1-6.8.3-10.2.3-3.4 0-6.5-.1-9.8-.2-3.3-.1-6.7-.3-10.1-.2-1.8 0-3.5.1-5.3.3-1.8.1-3.5.4-5.2.6-2.3.3-4.6.4-7 .6l-6.4.4s-4.4.3-6.6.4c-1.1 0-2.2.1-3.3.2l-1.2.1-.2-1.4c-.2-1.2-.4-2.3-.5-3.5-.1-.4-.2-.7-.5-1 2.5-.2 5.1-.4 7.7-.5 3.5-.2 7.1-.1 10.7-.2 3.6 0 7.2-.2 10.8-.4 7.2-.4 14.3-.8 21.5-1 1.7-.1 3.3-.1 5-.1h5.4l10.7.6c3.6.2 7.2.1 10.8-.1 1.8-.1 3.6-.2 5.5-.4s3.4-.2 5.2-.2l10.6-.2h5.1s3.6 0 5.4-.2l10.5-1.2 4.8-.5 5.4-.7c3.4-.4 6.8-.6 10.3-.7 1.8-.1 3.6-.2 5.4-.4 1.8-.1 3.5-.2 5.2-.2 3.4-.1 6.8-.1 10.3.1l5.6.2h5.2c2.9-.1 5.8-.6 8.7-.4l.5.1.1.1.5.5c.4.6.7 1.2 1 1.9.7 1.7 1.3 3.6 3.1 4.4 1.3.6 2.8.7 4.2.2.5-.1.9-.3 1.4-.5l2.8-.9c.9-.2 1.8-.4 2.7-.5 2.9-.4 5.9-.5 8.9-.4 3.3.1 6.6.3 9.8.2 1.7 0 3.1-1.1 3.6-2.7.3-1 .1-2-.4-2.9-.5-.8-1.3-1.5-2.2-1.7-1.3-.2-2.6-.4-3.9-.7-1.1-.3-2.2-.5-3.2-.6-1.4-.2-2.9-.4-4.4-.4-1.2 0-2.5 0-3.7.1-2.7.1-5.4.5-8 1.1-1.4.4-2.8.9-4.1 1.6-.6.3-1.2.6-1.8 1-.3-.3-.5-.6-.8-1-.5-.6-1-1.2-1.6-1.7-1.8-1.7-4.4-2.2-6.8-2.5-3.6-.4-7.3-.5-10.9-.3-1.7 0-3.4 0-5.1-.1s-3.2-.2-4.8-.2h-.5c-3.6.1-7.2.2-10.7.5l-5.1.4c-1.7.1-3.5.1-5.3.2-3.5.1-6.9.5-10.4.8s-6.8.5-10.2.9l-5.6.6s-3.6.2-5.4.2c-3.4 0-6.9 0-10.3.1-3.4.1-7 .4-10.6.7-1.8.2-3.6.3-5.5.4h-5.5c-3.5 0-7-.6-10.4-.9-7.1-.6-14.3-.8-21.4-.5-3.5.1-7 .2-10.6.3s-7.2.3-10.8.4c-7.2.1-14.3.1-21.5.5l-10.5.5c-3.5.2-7 .9-10.3 2-1 .3-1.9.6-2.9.8h-.4c-.2-.1-.4-.2-.6-.4-.7-.6-1.4-1.1-2.1-1.6-1-.6-2.2-1-3.4-1.1-.7-.1-1.3-.1-2-.1-1.7 0-3.4.2-5 .3-3.4.3-6.8.5-10.2.6-3.4.1-7 .2-10.5.3-3.7 0-7.4 0-11.1.2-3.5.2-6.9.3-10.4.6l-9.9.9-4.9.4c-1.7.1-3.4.4-5.1.6l-7.1.9.4-2.6c.6-4.4 1.3-8.7 2.2-13l.5-2.6 10.1-.9 10.8-.9c3.4-.3 6.9-.7 10.3-.8 3.5-.1 7.1-.1 10.7-.3 4.3-.2 8.5-.7 12.8-1.1 2-.2 3.9-.3 5.9-.4l2.9-.1c.9 0 1.8-.1 2.7 0 .3.1.5.3.8.5.6.6 1.4 1 2.1 1.4.8.4 1.7.7 2.6 1 1.1.3 2.2.6 3.3.8 1.4.3 2.8.4 4.2.5 1.2 0 2.3-.1 3.5-.2 2.2-.2 4.3-.3 6.5-.3h3.4s2.1.1 3.2.3c2.2.3 4.4.7 6.6.9 2 .2 4.1.5 6.2.7 1.9.2 3.7.6 5.5 1.1 1.4.5 2.8.8 4.3.9 1.7.1 3.4-.4 4.9-1.3.5-.3.9-.5 1.3-.8l1.2-.3c1.4-.1 2.8 0 4.3.1 2.1.1 4.1-.2 6.1-.7 1.5-.4 2.9-1 4.3-1.5 1.3-.4 2.6-.7 3.9-.9 1.4-.2 2.9-.2 4.3-.3 1.7 0 3.4 0 5.1.1l9.8.1c6.9.1 13.7.1 20.6.3 2 0 4 .1 6.1 0 1.5 0 2.9-.4 4.2-1.2 1.5-.9 2.6-2.3 3-4h.1l.3.5c.5.9 1.1 1.7 1.9 2.5 1.1 1 2.4 1.6 3.8 2 .9.2 1.7.3 2.6.4 1.6.2 3.2.2 4.9.4l10.1.9c3.3.3 6.6.4 9.9.5 3.3.1 6.8.2 10.3.3 3.3.1 6.5.1 9.8.3s6.5.3 9.7.6c1.7.1 3.3.4 5 .6s3.1.3 4.7.5l2.1.3c1 .1 2.1 0 3.1-.2s2-.5 2.9-1c.6-.3 1.1-.7 1.6-1.1l.2-.1h1.2000000000000002c1.3.2 2.6.4 3.8.5l4.2-.1h2l1.7-.1c1.2 0 2.5.1 3.7.2l2.9.5 2.2.3c.7.1 1.3 0 2-.2.9-.3 1.8-.9 2.5-1.7.5-.6 1-1.2 1.5-1.9v.1c.4.6 1 1.2 1.7 1.6l1 .5 1.5.3 3.4.2 4.5.9c1.6.3 3.1.7 4.6 1.2l-.1-.1c.6.3 1.3.4 1.9.2.8-.2 1.4-.7 1.8-1.4.7-1.3.3-3-1-3.8-.8-.5-1.7-.9-2.6-1.2-.6-.3-1.2-.5-1.9-.6-.8-.2-1.7-.3-2.6-.3h-2.4c-1.5-.2-3-.4-4.4-.9l-.1-.1-.1-.2c-.1-1.1-.3-2.2-.5-3.3-.2-1.1-.7-2-1.5-2.9-1.3-1.3-3.4-1.3-4.8 0-1.2 1.2-1.3 2.9-1.7 4.4-.2.9-.5 1.7-.8 2.6-.3.7-.6 1.3-1 1.9l-.2.2c-.5 0-1 0-1.5-.1-1.2-.2-2.3-.3-3.5-.4-1.2-.1-2.5-.2-3.7-.4l-3.1-.7c-.6-.1-1.2-.3-1.7-.6-.7-.3-1.4-.5-2.2-.6-1.6-.3-3.3-.3-4.9 0l-3 .9c-.5-.1-1-.2-1.6-.2h-.7c-.7-.4-1.5-.7-2.3-.9l-2.4-.5c-1.9-.3-3.8-.5-5.8-.7l-5.1-.6s-3.2-.3-4.8-.3c-3.5-.2-6.9-.4-10.4-.5-3.3 0-6.6-.2-9.8-.2-2.6 0-5.2-.2-7.7-.3s-5-.2-7.5-.4-5.1-.5-7.7-.7l-4-.3c-1-.1-2-.1-2.9-.2l-.6-.1-.7-1.2c-.4-.6-.9-1.2-1.4-1.7-.6-.6-1.3-1-2-1.4l-3-1.4-2.4-1c-.6-.3-1.3-.4-2-.5h-.2l-1.5.2c-.8.3-1.6.7-2.2 1.3-.7.7-1.2 1.6-1.4 2.7-.2.7-.2 1.4-.2 2.1v.5h-3.4l-5.1-.1c-3.3-.1-6.6-.1-10-.1s-6.9-.1-10.3-.1l-10.2-.1c-3.2 0-6.5.3-9.6.9-1.3.3-2.6.7-3.8 1.2-1.4.5-2.7.9-4.2 1.2-1.8.1-3.5 0-5.3-.1-1.6 0-3.1.2-4.6.6-1 .3-1.9.7-2.8 1.3l-.8.5-3.7-1-4.5-.8-9.3-1.1c-2.1-.3-4.2-.7-6.4-.9-2-.2-4.1-.2-6.1-.1l-5.8.3c-1 .1-2 .2-3 .2l-2.4-.1c-1.3-.2-2.6-.6-3.9-1l-.6-.3c-.7-.6-1.4-1.1-2.2-1.5-1.8-.9-3.8-1.3-5.8-1.1-1.6 0-3.2.1-4.7.2-3.4.2-6.8.7-10.3 1.1-3.6.5-7.2.8-10.8 1-3.6.2-7.1.4-10.6.7-3 .3-6 .8-9 1.2-5.9.7-11.8 1.3-17.8 1.8.2-1 .5-2 .8-3 .5-2.1 1.1-4.1 1.5-6.2.5-2.1.8-3.9 1.3-5.8 1-4.3 2-8.6 2.8-12.9l2.1-12.2 1.2-6.6c.4-2.2.7-4.2 1-6.3.7-4.3 1.6-8.5 2.6-12.7 1-4 2.1-8.1 3.2-12.1 2.2-8 4.4-16 6.8-24 2.9-9.3 6.3-18.4 10.1-27.4l3-7.1c2.2-5 4.7-9.9 7.4-14.6 1.3-2.3 2.8-4.4 4.2-6.6 1.4-2.2 2.9-4.3 4.5-6.4l2.7-3.3c.6.2 1.2.2 1.8 0 1.7-.7 3.5-1.3 5.4-1.8.8-.2 1.7-.4 2.5-.5 1.1-.2 2.1-.4 3.2-.5 1.8-.2 3.6-.3 5.3-.2 1.8.1 3.7.2 5.5.4 1.8.2 3.9.5 5.9.7l5.3.5c1.8.2 3.5.5 5.2.6s3.7.2 5.6.2c3.5 0 7.1-.2 10.6-.3 7.2-.2 14.3-.9 21.5-1.4 3.1-.2 6.1-.4 9.2-.5l9-.3c3.3-.1 6.5-.4 9.7-.8.4 0 .8-.1 1.2-.2l1.3-.2 1.8-.2c1.7-.2 3.5-.3 5.2-.4 1.5-.1 3-.1 4.5-.1h1c3.7 0 7.5.1 11.2.2 3.7.2 7.5.2 11.2.5 3.5.3 7 .5 10.6.6 1.8.1 3.5 0 5.3-.1l5.8-.3c3.6-.2 7.2-.4 10.9-.6 3.6-.2 7.2-.3 10.8-.2s7.2.1 10.9.3c3.4.2 6.8.3 10.2.3 1.7 0 3.4-.1 5.2-.1s3.3 0 4.9-.1c3.4-.1 6.7-.2 10.1-.2 1.5 0 3-.1 4.5-.2l2.6-.2c.7-.1 1.3-.1 2 0 1 .2 2 .3 3 .4 1.2.1 2.3.1 3.5 0l3.2-.1 1.3-.1c.5 1.3 1 2.6 1.5 4 1.4 3.9 3.4 7.5 5.1 11.2l5 11c1.7 3.7 3.3 7 4.8 10.6 1 2.4 1.9 4.8 3 7.1 1 2.2 2 4.4 2.9 6.6 1.6 3.8 3.1 7.7 4.4 11.6 1.4 4.4 3.4 8.6 5.2 12.8 1.5 3.6 3.1 7.2 4.7 10.8 1.5 3.4 3 6.8 4.6 10.2-.9 3.3-1.8 6.5-2.6 9.8l-2.8 11.1c-.4 1.8-.9 3.5-1.4 5.3s-1.2 3.7-1.7 5.5c-.5 1.9-.7 3.6-1 5.4-.3 2.1-.6 4.2-.8 6.4s-.2 4.3-.4 6.3c-.2 1.8-.4 3.6-.7 5.4-.5 3.6-1.2 7.2-1.8 10.7-.3 1.8-.7 3.5-1.1 5.3s-1.9 3.2-2.2 5zm34.2-33.8l-.5 4.4-1.3 7-1.6 7.5s-1 5.3-1.3 8l-1.2 8.6.1-.4c-1 7.1-1.8 14.1-2.7 21.2-.5 3.6-1 7.1-1.4 10.7-.3 3.4-.7 6.8-1.1 10.2-.2 1.8-.4 3.5-.5 5.3s-.2 3.4-.2 5.1c-.1 3.3-.4 6.6-.7 9.8-.2 1.1-.4 2.2-.7 3.2-.3 1.1-.7 2.3-1.1 3.4-.9 2.3-2.5 4.4-4.4 6-.5.3-1 .6-1.6.9-.8.3-1.5.6-2.3.8h-2.6c-1-.2-2.1-.5-3.1-.9-.5-.3-1.1-.6-1.6-1-.4-.3-.8-.7-1.2-1.1l-.6-1c-.3-.8-.5-1.7-.7-2.6 0-.3-.1-.6-.1-.8v-1.5c0-1 .1-2.1.2-3.2 0-.5-.1-1-.5-1.4-.1-2.2 0-4.3 0-6.5.1-2.6.3-5.3.5-7.9s.3-5 .6-7.5l1.6-9.6 1.7-11.4c.4-3.2.6-6.5 1-9.8l1.2-10.3c.3-2.1.7-4.2 1-6.4.4-2.5.6-5 .9-7.5l1-6.4 1-7.2 1.5-12.7.6-3.9c.3-1.6.7-3.3 1.1-4.9.7-3.1 1.3-6.3 1.9-9.4.7-3.9 1.5-7.7 2.4-11.5l1.3 2.5c1.8 3.5 3.4 7 5 10.6 1.3 3 2.6 6 4.1 8.9s2.7 5.7 4.1 8.6l.7 1.5c-.3.8-.4 1.7-.5 2.6zm75.9 96.4c-.3 1.4-.7 2.8-1.2 4.2-.3.7-.6 1.5-1 2.2-.4.8-.9 1.5-1.5 2.2l-.6.6c-.6.4-1.2.9-1.9 1.2-.7.3-1.5.5-2.2.7-1.7 0-3.3-.1-5-.2l-.7-.7-8-8.2c-.9-1.5-1.8-3.1-2.7-4.7-1.1-2.1-2.3-4.2-3.4-6.4-1.3-3.3-2.5-6.6-3.8-10-.8-2.2-1.6-4.3-2.6-6.4-.8-1.8-1.7-3.6-2.6-5.4-.9-1.8-1.6-3.6-2.4-5.4-.8-1.8-1.8-3.5-2.6-5.2l-2.4-5.4-2-4.4c-2.9-7.2-5.9-14.3-8.7-21.6-1.4-3.7-2.9-7.3-4.4-10.9-.8-2-1.8-4-2.7-6-.8-1.8-1.5-3.6-2.3-5.3-1.1-2.5-2.4-4.9-3.6-7.4s-2.3-5.1-3.5-7.6-2.3-5-3.5-7.5l-3.3-7.2.4 1c-1.7-4-3.3-7.9-5.2-11.8-1.6-3.4-3.2-6.8-4.7-10.2l-3.3-8-3.5-8.1.1.3c-1.3-3.1-2.7-6.2-4-9.2-.9-2.4-1.7-4.8-2.5-7.2-.8-2.4-2-5-3-7.5-2-5-4.3-9.8-6.4-14.8-1.2-3-2.5-5.9-3.9-8.8-1.2-2.5-2.5-5-3.6-7.5l-3.7-8.4s-2.6-5.3-3.9-8c-.5-1.3-1-2.6-1.5-3.8l-1.6-4.5c-.5-1.5-1-3.1-1.5-4.7-.4-1.2-.8-2.5-1.1-3.8 0-1.1 0-2.2.1-3.2.2-1.3.6-2.7 1-4l.6-.3c1.2-.8 1.7-2.2 2.2-3.5.5-.9 1-1.9 1.6-2.7.8-1.1 1.7-2.1 2.7-3.1l1.8-1.3.6-.4c.4-.1.8-.2 1.2-.2l2.3-.2c.8-.1 1.7-.1 2.5 0 1.7.3 3.4.8 5 1.4l1.1.6c1.1.9 2.1 1.9 3 3 1 1.1 2 2.3 3 3.5 1.3 1.7 2.3 3.6 3.2 5.5l.7 1.9c.3.9.7 1.8 1 2.8.5 1.6.9 3.3 1.4 5 1.4 4.2 3 8.2 4.9 12.1l.8 2c.4 1.1.9 2.2 1.3 3.2.6 1.3 1.1 2.7 1.6 4l1.5 4.5c1 3 2.4 5.9 3.7 8.8l3.3 8.4c.7 1.9 1.4 3.8 2.3 5.7l1.8 4c1 2.6 2 5.3 2.9 8 .5 1.4.9 2.8 1.3 4.2.4 1.4 1.1 3 1.7 4.5 1 2.8 2.1 5.5 3.2 8.3 1.1 2.7 2.4 5.6 3.7 8.5.6 1.6 1.2 3.3 1.8 5s1.2 3.4 1.9 5v-.1c1.5 3.5 2.7 7 4.2 10.4.9 2.1 1.7 4.2 2.7 6.3l2.5 5c.8 1.9 1.5 3.8 2.5 5.6s1.9 3.5 2.7 5.2c1.8 3.6 3.5 7.3 5.1 11 1 2.4 2 4.7 3 7l2.6 6.4s1.8 4.2 2.8 6.2l5.7 12.8c.9 2.1 1.7 4.3 2.5 6.5 1 2.6 2.1 5.2 3.3 7.8 2.2 4.9 4.5 9.7 6.6 14.6l2 4.7c.5 1.2 1 2.4 1.5 3.5l1.3 2.6c.9 1.8 1.9 3.5 2.7 5.3.8 1.6 1.5 3.2 2.2 4.8.9 2.1 1.6 4.3 2.3 6.5l.3.9c.1.4.1.8.2 1.1.3 2.5.4 5.1.4 7.7.1 2.5-.1 4.8-.3 7zm-654.4-196.5c2.5-.3 5-.5 7.6-.7 2.1-.1 4.1 0 6.2.3 1.7.3 3.4.4 5.1.5 1.8 0 3.2-1.4 3.2-3.2 0-.9-.3-1.7-.9-2.3-.6-.6-1.4-.9-2.3-1-1.5-.1-3.1-.2-4.6-.4-1.5-.1-2.8-.3-4.2-.3h-.1c-3.3.1-6.6.3-9.9.8-.8 0-1.6.3-2.2.9-1.2 1.2-1.2 3.2 0 4.4.5.7 1.3 1 2.1 1zm-30.1 39.8c.2.6.6 1.1 1.1 1.4.6.3 1.2.4 1.8.2 1.5-.3 3-.5 4.6-.7 3.1-.2 6.3-.4 9.4-.4 3.3 0 6.6 0 10 .2l4.5.3 4.5.3c3 .2 6 .6 9.1.8 1.7.2 3.4.2 5.2.3 1.2.1 2.4 0 3.6-.3l.5-.2c.5-.1.9-.4 1.3-.6l.9-.7c.8.7 1.6 1.4 2.5 2 1 .7 2.1 1.2 3.3 1.6 1.3.4 2.6.5 4 .4l2.6-.1 4.7-.3c2-.1 4-.3 5.9-.7 1.7-.5 2.8-2.3 2.3-4-.1-.5-.4-1-.8-1.4-.6-.6-1.4-1-2.3-1-2.3-.1-4.7 0-7 .3-1.1.1-2.3.2-3.5.3-1 .1-2 .1-3 0-.4-.1-.8-.2-1.1-.3-.8-.4-1.5-.8-2.3-1.3l-1.2-1.2c-.4-.5-.9-.9-1.5-1.2-.7-.5-1.6-.8-2.5-.8h-.3c-.4 0-.8 0-1.2.1l-1.3.6-1.1.8-.3.2-.8.7h-8.3c-3.1 0-6.1-.2-9.2-.3s-6.2-.2-9.3-.1-6.1.4-9.1.6c-4.7.2-9.4.8-14 1.6-1.3.3-2.1 1.6-1.7 2.9zm527.3 5.1c-4.9-.1-9.8-.2-14.7-.2-2.3 0-4.6-.1-7-.1-2.3 0-4.5-.1-6.7-.3-.6-.1-1.3-.3-1.9-.5l-2.1-1.2-2.2-1.3c-.8-.5-1.7-.8-2.6-1-.5-.1-1-.1-1.5-.1-.6 0-1.2.1-1.8.2-.8.2-1.6.4-2.3.7-1.3.4-2.6.9-3.9 1.4-.6.3-1.3.5-1.9.6l-1.8.3c-2.7.2-5.4.4-8 .5-1.2 0-2.2 1-2.2 2.2 0 1.2 1 2.2 2.2 2.2l5-.2c1.5-.1 3.1-.1 4.6-.3.9-.1 1.8-.2 2.7-.4l2.3-.6c1.4-.4 2.9-.7 4.4-1h1.1l.5.1c1.4.7 2.7 1.5 4 2.3.7.4 1.4.7 2.2 1 .8.3 1.7.4 2.6.5l2.3.2c2 .1 4 .1 6 .1h1.8c2.7 0 5.4 0 8.1.1 2.7.1 5.4.1 8.2.2h2.7c1.5 0 2.7-1.2 2.7-2.7-.1-1.5-1.3-2.7-2.8-2.7zm-100.9 44.1c-1.6-.4-3.3-.5-5-.5h-1.4l-5.2-.1-11-.3-10.2-.3c-2-.1-4.1-.1-6.1-.1-1.6 0-3.1 0-4.7.2-1.1.1-2.3.2-3.4.5-1.5.3-2.9 1.2-3.8 2.5-.8-.4-1.6-.8-2.4-1-.9-.2-1.9-.4-2.8-.5-1.6-.2-3.3-.2-5-.1-3.6.1-7.1.4-10.7.7-3.6.4-7.2.6-10.9.8l-10.7.4c-2.1.1-4.3.2-6.4.4-1.5 0-2.6 1.2-2.7 2.7 0 1.5 1.2 2.7 2.7 2.7 7.3-.5 14.6-.6 22-.6 3.6 0 7.1-.2 10.7-.3 3.4-.1 6.8 0 10.1.3.7.1 1.4.3 2.1.5l1 .6c.4.3.7.7 1 1 .5.5 1 1 1.6 1.3.9.5 2.1.6 3.1.3 1.8-.5 2.8-2.2 3.3-3.9l.2-.6h.2c3.5-.3 7.1-.3 10.7 0 3.4.2 6.8.3 10.2.4 3.6.1 7.2.3 10.9.4l5.4.2c1.7.1 3.4.2 5.2.1h.9c1.8 0 3.3-1.2 3.8-2.9.7-2-.6-4.2-2.7-4.8zm91.4 2.2c-1.1-.3-2.3-.3-3.4 0l-1 .2c-2.4.2-4.9.2-7.4.1l-7.5-.4c-1.7-.1-3.3-.2-5-.2h-2.3c-2.6 0-5.1 0-7.6.1-8.1.1-16.2.3-24.2.6-1-.1-1.9.7-2 1.7s.7 1.9 1.7 2h.3c10.8-.4 21.5-.5 32.3-.2l6.5.3 6 .6c2 .2 4.2.3 6.4.4l2.7.2h2.9l.2.1c1.5.4 3.1-.5 3.5-2 .2-.7.1-1.5-.3-2.2-.4-.6-1-1.1-1.8-1.3zm-46.4 20.8c-.5-.2-.9-.4-1.4-.4-.3 0-.5 0-.8.1-2.6.5-5.2.8-7.8 1.1l-9.8 1.4c-.7.2-1.3.6-1.6 1.2-.7 1.3-.3 3 1 3.7l.7.3c.5.1 1 .1 1.4 0l1.3-.2.4-.1h-.2.2l12-1.6 3.9-.5c.7-.2 1.3-.6 1.7-1.3.8-1.2.4-2.9-1-3.7zm-19.8-105c1 .2 2.1.4 3.1.5 1 .1 1.9.1 2.9.1 1.1 0 2.2 0 3.2-.2 2.2-.2 4.4-.6 6.5-.9 5-.6 10-.9 15.1-1.1l15.8-.9 6.1-.4c.7 0 1.3-.3 1.8-.8 1-1 1-2.6 0-3.6-.5-.5-1.1-.8-1.8-.8-2.7 0-5.4-.1-8.1.1-2.7.2-5.2.5-7.9.8-2.6.3-5 .5-7.5.6-2.7.2-5.5.4-8.2.7-2.1.2-4.1.4-6.2.8l-5.4.9c-2.7.4-5.4.4-8.1.2-1.1-.2-2.3-.5-3.4-.9-.8-.4-1.5-.8-2.3-1.3l-1.7-.9c-1.2-.6-2.3-1.3-3.4-2l-1.2-.8c-.7-.5-1.5-.8-2.4-1.1l-2.2-.6c-1.4-.3-2.8-.5-4.2-.6-.6-.1-1.1-.1-1.7-.1h-2.4l-3.9.1c-2.6 0-5.2 0-7.7.1-2.3 0-4.6.1-6.9.2h-7.1c-5.1.1-10.1.4-15.2 1-.7 0-1.3.3-1.8.8-1 1-1 2.6 0 3.6.5.5 1.1.8 1.8.8 3.2-.3 6.3-.6 9.5-.8 1.3-.1 2.6-.1 3.9-.1h4.2c5.2.1 10.3 0 15.5-.1 2.5 0 5-.1 7.6-.2 1.3-.1 2.7-.2 4-.2 1.2 0 2.3.1 3.5.2 1 .1 1.9.3 2.9.6.7.4 1.4.8 2 1.2.4.3.9.5 1.4.8.9.5 1.9.9 2.9 1.4.4.2.8.4 1.2.7l1.1.6c.8.4 1.7.8 2.6 1.1.8.1 1.5.3 2.1.5zm295.5 7.4c1.7.1 3.4.1 5.1 0 .5 0 1-.1 1.5-.4 1.4-.8 1.8-2.6 1-4-.4-.7-1-1.2-1.8-1.3-.8-.1-1.6-.2-2.5-.2h-.2l-1.9.1-4.3.2-8 .2s-5.2.2-7.9.2h-8.6l-10.2-.1c-3.8 0-7.5.1-11.3.3-1.1 0-2 .9-2 2s.9 2 2 2c3.2-.2 6.3-.2 9.5-.2 2.6 0 5.2.1 7.8.3 5.4.3 10.8.6 16.2.7 3.4 0 6.7 0 10 .2 2-.1 3.8-.1 5.6 0zm-6.6 34.8c5.8.1 11.5.2 17.3.4 1.2 0 2.4.1 3.6 0 1.6 0 2.8-1.3 2.8-2.9 0-.7-.3-1.5-.8-2s-1.3-.8-2-.8c-1.5-.1-2.9-.1-4.4 0-1.4 0-2.8.1-4.3.1h-8.3c-5.8 0-11.5 0-17.2-.2-1.5 0-3-.1-4.5-.2h-.1c-1.3 0-2.4 1.1-2.4 2.5s1.1 2.4 2.5 2.4v.1c5.9.1 11.8.5 17.8.6zm-774.3 40.8c-3.5-.1-7-.2-10.5-.2-3.3 0-6.5.1-9.8.2-3.3.1-6.4.2-9.6.5-3.8.4-7.6.7-11.4 1.2-2.9.3-5.7.7-8.6.9-.7 0-1.3.3-1.8.7-1 1-1 2.6 0 3.5.5.5 1.1.7 1.7.7 7-.7 14-1.6 21.1-2 7.1-.4 13.9-.3 20.8-.1 3.5.1 6.9.4 10.4.6 3.1.2 6.3.3 9.5.4 3.4 0 6.8.1 10.1-.1 3.4-.1 6.8-.3 10.2-.6 6.7-.5 13.3-.5 20-.5 2.6 0 5.2.2 7.9.3-1.2 1.2-1.2 3.2 0 4.4.6.6 1.4.9 2.2.9 3.3-.2 6.6-.5 10-.8 3-.2 5.9-.4 8.9-.5 5.7-.3 11.4-.9 17.1-1.5 2.1-.2 4.2-.4 6.2-.5l6.8-.4 3-.3 1.7-.1.9-.1 1.2-.2c.6-.1 1.1-.4 1.6-.8.3-.2.5-.5.6-.8 3.2-.4 6.5-.8 9.7-.9h3.9c2.2 0 4.3 0 6.5-.2.6 0 1.1-.2 1.6-.6.9-.9.9-2.3 0-3.1-.4-.4-.9-.6-1.5-.6h-.1l-6 .4-5.7-.2s-3.9 0-5.9.1c-.8 0-1.5.1-2.3.2v-.1c-.2-.7-.5-1.4-.8-2-.3-.7-.9-1.3-1.5-1.8-.3-.2-.7-.3-1.2-.3-.4 0-.9.1-1.2.3-.7.4-1.2 1.2-1.2 2 0 .9.2 1.7.5 2.6l.1.2c-.1.1-.3.2-.4.4l-1.8.1-4.3.2c-2.8.1-5.7.4-8.5.7-2.8.3-5.5.4-8.2.5l-8.9.5-4.7.2-.2-.6-.3-.9c-.3-1.3-1.2-2.4-2.3-3.1-1.2-.5-2.6-.7-3.9-.5h-2.3c-3.2 0-6.4 0-9.6-.2l-4.5-.2c-1.7-.1-3.4-.1-5.1-.1-3.3 0-6.7.1-10 .2-6.6.3-13.1 1.3-19.6 1.8-6.9.4-13.7.5-20.5.2zm905.8 32.5c-.4-.7-1.1-1.2-1.9-1.4-1.7-.4-3.5-.6-5.3-.5-1.5 0-3-.1-4.5-.2l-9.1-.3c-6.6-.2-13.2-.2-19.7-.1-6.4 0-12.8-.1-19.2-.3-3.1-.1-6.3-.1-9.4-.1l-9.4-.1h-1.7l-7.2.1c-3.1.1-6.3.1-9.4.1l-19.2.2s-12.7.2-19 .3c-3.2.1-6.4.2-9.6.4-3 .2-6.1.4-9.1.5-5.8.1-11.6.1-17.5.1-6 0-12 .1-18.1.4-1.3 0-2.3 1-2.3 2.3s1 2.3 2.3 2.3c3.5-.2 6.9-.3 10.4-.3h23.9l4.9-.1c3-.1 6.1-.3 9.1-.5 3.2-.1 6.5-.2 9.7-.2h19c6.3 0 12.6.1 19 .2 3 0 6 .1 9.1.2s6.3.3 9.4.5l19.1.8s12.6.4 18.9.5c5.7 0 11.4 0 17.1.1l8.6.1h6.1c1 0 2-.1 3-.3 1.3-.4 2.3-1.6 2.3-3 .1-.7-.1-1.2-.3-1.7zm-971.5 1.8c-6.7-.3-13.4-.6-20.1-.8-7-.2-13.9.1-20.9.7-.6 0-1.3.3-1.7.7-1 1-1 2.5 0 3.5.5.5 1.1.7 1.7.7 7.4-.7 14.9-.9 22.3-1h10.6s7 .2 10.5.4c5.5.3 10.9.4 16.4.6 2.8.1 5.5.3 8.2.5 2.8.2 5.5.3 8.2.6l2.6.3 1.8.3c.7.1 1.4.3 2.2.3 1.1.1 2.2 0 3.3-.2.9-.2 1.7-.5 2.5-.9.8-.5 1.6-1 2.3-1.7.6-.6 1.2-1.2 1.6-1.9h2.4c2.3.3 4.6.7 7 1 2.1.3 4.3.5 6.5.8 3.6.5 7.2 1.1 10.8 1.5 3.4.4 6.8.5 10.2.6 6.8.3 13.6.6 20.4.7 5.3.1 10.6.1 15.9.4 2.5.1 5.1.2 7.6.4 2.3.1 4.5.2 6.8.4l.4 1.5c.1.7.4 1.5.7 2.1.3.5.6.9 1 1.3.6.5 1.3.9 2 1.2.6.1 1.3.2 1.9.2.6 0 1.2-.1 1.8-.2l1.4-.2 2.1-.3c3-.4 6.1-.8 9.1-1 3.3-.2 6.7-.3 10-.3s6.6-.1 10 .1 6.7.4 10.1.6c2.9.1 5.8.2 8.6.1 2.5 0 4.5-2 4.5-4.5s-2-4.5-4.5-4.5c-1.7 0-3.4.1-5.1 0s-3.2-.1-4.9-.2c-3.3-.2-6.6-.4-9.9-.5h-10.1c-3.4 0-6.8.2-10.1.5-2.5.2-5 .6-7.5 1l-3.3.6h-.1c-.1-.6-.2-1.2-.5-1.8-.3-.9-.8-1.7-1.4-2.5-.7-.8-1.7-1.4-2.7-1.7-1.5-.4-2.9-.6-4.5-.5l-2.6-.1-10.4-.6c-6.8-.3-13.6-.4-20.4-.5-5.3-.1-10.5-.4-15.8-.6-2.6-.1-5.2-.2-7.8-.4-2.6-.2-5-.5-7.4-.8-2.7-.4-5.4-.8-8.2-1.1l-6.9-.8c-2-.4-4-.6-6.1-.7h-.6c-.9.1-1.8.2-2.7.4-1.4.2-2.6.9-3.6 1.9-.8 1.1-1.5 2.2-2.1 3.3-.2.3-.5.5-.8.8l-.8.5-.9.3c-1.7.1-3.5.1-5.2 0-1.7-.1-3.4-.1-5.1-.1l-10.5-.1c-2.6 0-5.2 0-7.8.1-4-.3-8.2-.2-12.4-.4zm191.7-14.8c-1.1-.6-2.3-.9-3.5-.8-.6 0-1.1 0-1.6.1-1.9.2-3.8.6-5.7.9-.9.2-1.7.9-2.2 1.7-1 1.8-.4 4.1 1.3 5.1.9.5 1.9.6 2.9.4 3-.5 6.2-.9 8.8-2.5 1.4-.8 1.8-2.6 1-3.9-.3-.4-.6-.7-1-1zm-32.9-.1c-4.8.2-9.6.4-14.4.2-3.9-.1-7.8-.2-11.6-.6h-.1c-1 .1-1.8.9-1.8 1.9 0 .5.2 1 .6 1.3.4.3.8.5 1.3.6 5.1.5 10.2.7 15.3.9 4.8.2 9.6.4 14.4.5 1.7.1 3.3.1 5 .1h5.3c1.3 0 2.3-1 2.3-2.3 0-1-.7-1.9-1.7-2.2-2.4-.6-4.9-.9-7.4-.7l-7.2.3zm534.6 267.8c-4.4 0-10.7 5.4-12.4 14.1-1.4 7.4 1.5 12.9 7.6 12.9 3.1 0 6.4-1.8 9.1-4.9l-.7-1.5c-2.1 2.3-4.7 3.4-6.5 3.4-4.6 0-6.3-4.1-5.2-9.9 1.5-7.9 5.1-11.8 7.6-11.8 2.9 0 .7 4.9 3.8 4.9 1.5 0 2.2-1.3 2.4-2.4.3-1.8-.8-4.8-5.7-4.8zm-111.6 0c-5.2 0-11.3 5.7-12.7 13.5-1.3 7.4 1.8 13.5 7.9 13.5 3.2 0 6.9-2.1 9.3-4.9l-.8-1.5c-1.8 1.9-4.8 3.4-6.6 3.4-4 0-5.9-2.9-5.8-7.4 9.1-1.9 13.4-6.6 14.1-10.4.7-3.4-1.5-6.2-5.4-6.2zm1.6 6.4c-.5 2.9-3.7 6.8-10.2 8.3l.2-1.2c1.2-6.6 4.4-10.6 7.8-10.6 1.9 0 2.5 1.6 2.2 3.5zm75.1-19.6c-1.4 0-2.7 1.2-2.9 2.6-.1 1.4.9 2.6 2.3 2.6s2.7-1.2 2.9-2.6c.1-1.4-.9-2.6-2.3-2.6zm-3.8 34.2l2.8-15.7c.5-2.9-.6-5.1-3.2-5.1-1.3 0-3.3 1-4.8 2.5v1.8c.5-.6 2.1-1.7 2.9-1.7 1 0 1 1.3.7 3.1l-2.7 15.6c-.5 2.9.6 5.2 3.2 5.2 1.3 0 3.3-1.1 4.8-2.6v-1.7c-.5.5-2.1 1.6-2.9 1.6-1 0-1.1-1.3-.8-3zm-20.9-37.9c4.6 0 5.2 1.3 3.9 8.5l-1.7 9.3h-18.6l1.7-9.3c1.3-7.3 2.2-8.5 6.8-8.5l.3-1.5h-15.5l-.3 1.5c4.6 0 5.3 1.3 4 8.5l-4.3 23.9c-1.3 7.3-2.3 8.6-6.9 8.6l-.3 1.5h15.5l.3-1.5c-4.6 0-5.2-1.3-3.8-8.6l2.1-11.9h18.6l-2.1 11.9c-1.3 7.3-2.3 8.6-6.8 8.6l-.3 1.5h15.5l.3-1.5c-4.6 0-5.2-1.3-3.9-8.6l4.3-23.9c1.3-7.3 2.2-8.5 6.8-8.5l.3-1.5h-15.7l-.2 1.5zm-72.2 16.9c-.7 0-1.7.3-1.8 1.4-.4 2.4 3.4 2.9 1.8 12.1-1.2 6.6-5.1 10.8-8.4 10.8-2.3 0-4.2-2.2-3.3-7.1 1.4-8 3.8-12.2 4.7-17.2h-1.3c-2.1 1.4-2.6.3-5.2.3-1.3 0-3.3 1-4.8 2.5v1.8c.5-.6 2.1-1.7 2.9-1.7 2.1 0 3 .7 4.7 1.5-.5 2.9-4.4 8.6-5.3 13.5-.9 4.7.3 9.2 6.8 9.2 5 0 10.1-6.1 11.4-13.5 1.8-10.2-.4-13.6-2.2-13.6zm-48.2-19.7l-8.8 1.8-.2 1.5c3.7 0 4.1 1.3 2.8 8.6l-5.2 29.2c-.5 2.9.6 5.2 3.2 5.2 1.4 0 3.4-1.1 4.8-2.6v-1.7c-.5.5-2.1 1.6-2.9 1.6-1 0-1.1-1.3-.8-3l7.1-40.6zm16.6 19.7c-6.1 0-12.3 6-13.6 13.5-1.3 7.4 2.7 13.5 8.8 13.5s12.1-6.2 13.5-13.5c1.3-7.5-2.6-13.5-8.7-13.5zm4 13.4c-1 6.2-4.1 11.3-8.4 11.3-4.4 0-5.5-5.1-4.4-11.3 1.1-6.2 4-11.2 8.4-11.2 4.3 0 5.4 5 4.4 11.2zm202.5 5.8c-1.9 0-3.7 1.6-3.9 3.5-.2 1.9 1.3 3.5 3.2 3.5s3.7-1.6 3.9-3.5c.2-1.8-1.3-3.5-3.2-3.5zm-306.4-357c2.6 0 5.3.2 7.9.4l8.5.5 8 .3 8.1.5 7.5.2c2.7 0 5.5.1 8.2.2 2.7.1 5.2.4 7.8.7h.3c.6.2 1.3.1 1.9-.2 1.2-.7 1.6-2.2.9-3.4-.3-.5-.9-.9-1.5-1.1-.7-.3-1.5-.5-2.3-.5h-7c-2.7 0-5.5 0-8.2-.1l-7.5-.3c-2.8-.2-5.5-.4-8.2-.7-5.4-.5-10.9-.8-16.3-1.2-2.6-.2-5.2-.4-7.9-.5h-8c-4.3 0-8.6.1-12.8.4l-3 .3c-1 .1-2.2.3-3.3.5-1.5.2-2.9.7-4.2 1.4-1 .6-1.9 1.4-2.6 2.3-.9 1.2-1.7 2.5-2.3 3.9-.6 1.3-1.1 2.7-1.6 4-.2.7-.1 1.4.3 2.1.7 1.3 2.4 1.7 3.6 1 .6-.4 1-.9 1.2-1.6l1.1-2.7c.5-1.1 1-2.1 1.7-3.1.3-.4.6-.7 1-1l.6-.4c1.1-.4 2.3-.6 3.4-.8 2.9-.3 5.8-.5 8.6-.6 2.7-.1 5.4-.1 8.1-.1 2.8-.2 5.3-.5 8-.4zm339.5-51.2c0-.2 0-.3.1-.4l-.1.4zm-359 100.6c-.7-.7-1.5-1-2.5-1-1.2-.1-2.5.1-3.7.1h-3.6c-.6 0-1.2 0-1.8-.1l-1.1-.1h-.2c-.3 0-.7 0-1 .1-.6.1-1.1.3-1.6.6-.3.2-.7.5-1 .8-.4.4-.6.8-.9 1.2l-.6-.4c-.6-.3-1.1-.5-1.7-.6-.9-.2-1.9-.3-2.9-.3l-2.1-.1c-3.1-.1-6.1.1-9.2.2-3.1.1-6 .1-9 .4-1.9.2-3.7.5-5.5.8l-5.5 1.1c-1.4.4-2.3 1.9-1.9 3.4.4 1.4 1.9 2.3 3.4 1.9 1.6-.3 3.3-.7 5-1 1-.2 2-.3 2.9-.5 1.9-.2 3.7-.3 5.6-.3h6.6l5.8-.1h5.9l.4.1.2.1.4.4c.4.6.7 1.2.9 1.8.3.7.8 1.3 1.5 1.8 1 .5 2.2.5 3.2 0 1.7-1 2-2.8 2.4-4.6 1.4.3 2.9.4 4.4.5h3.5c.8 0 1.7-.1 2.5-.2 1.9-.5 3-2.4 2.4-4.3-.4-.7-.7-1.2-1.2-1.7zm312.2 312.4c-1 0-1.2-1.3-.9-3l1.8-10.1c1.1-6.3-.2-11-5.2-11-3.2 0-6.4 2.4-8.6 6l4.6-25.7-8.8 1.8-.2 1.5c3.7 0 4.1 1.3 2.8 8.6l-5.9 33.4h4.1l1.9-11c1.3-7.7 5.6-11.3 8-11.3 3.5 0 4 3.1 3.2 7.9l-1.8 10.2c-.5 2.9.6 5.2 3.2 5.2 1.4 0 3.4-1.1 4.9-2.6l-.1-1.7c-.5.7-2.1 1.8-3 1.8zm-48-34.6h-4.1l-2.1 11.8h-4.8l-.4 2.6h4.8l-2.7 14.7c-1 5.6.6 8.2 3.9 8.2 1.6 0 4.4-1.3 6.6-4.2l-.1-2.1c-2.2 2.6-3.7 3.3-4.6 3.3-1.8 0-2.4-1.8-1.7-5.3l2.7-14.7h5.9l.4-2.6h-5.9l2.1-11.7zm-178.9-2.8c-2.1-4-5.3-6.3-9.2-6.3-10 0-18.8 10.5-21.1 23.3-2.3 12.8 3.5 23.3 12.8 23.3 3.9 0 8-2.4 11.4-6.3.6.7.7 2.4.7 4.2h1.5l2.9-16.2h-1.5c-3.1 9.4-8.4 15.3-14.4 15.3-8 0-9.4-11.3-7.8-20.4 1.6-9.1 7.1-20.5 15-20.5 6 0 9.2 5.8 8.9 15.4h1.5l2.9-16.2h-1.5c-.5 2-1.2 3.6-2.1 4.4z"/></svg>
